<svg width="438" height="520" viewBox="0 0 438 520" fill="none" xmlns="http://www.w3.org/2000/svg">
<path fill-rule="evenodd" clip-rule="evenodd" d="M285.38 0C297.198 10.3445 308.502 21.3083 320.833 31.0336C348.683 52.9986 384.533 68.9801 395.338 106.058C416.392 178.299 369.968 274.593 315.773 320.927C302.63 332.163 288.066 341.647 274.831 352.773C246.567 376.531 212.001 422.123 168.828 413.478C93.9756 398.488 56.8577 328.079 25.6843 266.899C21.2997 258.294 13.716 251.265 10.7571 242.07C-1.52469 203.905 -7.09286 152.181 18.721 117.113C32.4557 98.4553 47.8451 81.0186 63.7323 64.1607C97.0709 28.7852 112.935 20.3056 157.92 11.5734C169.805 9.26642 181.483 5.98917 193.318 3.44331C198.607 2.30585 203.873 0.633408 209.281 0.525752C281.79 -0.917769 225.628 5.42337 265.417 0.276355L285.38 0Z" fill="#F9FDFF"/>
<path fill-rule="evenodd" clip-rule="evenodd" d="M172.251 293.192C171.645 293.192 171.179 290.956 172.624 290.956C173.416 290.909 173.229 293.192 172.251 293.192Z" fill="#20386F"/>
<path fill-rule="evenodd" clip-rule="evenodd" d="M179.331 293.05C178.772 293.003 178.492 290.674 179.983 290.86C180.729 290.907 180.309 293.143 179.331 293.05Z" fill="#20386F"/>
<path fill-rule="evenodd" clip-rule="evenodd" d="M177.794 297.896C178.54 297.57 178.959 297.337 179.052 297.057C179.145 296.778 178.959 296.498 178.586 295.986C178.167 295.426 177.561 294.541 176.909 293.143C176.862 293.05 176.723 292.957 176.629 293.05C176.536 293.097 176.443 293.237 176.536 293.33C177.188 294.821 177.841 295.706 178.26 296.219C178.493 296.591 178.679 296.871 178.679 296.917C178.633 297.104 178.12 297.29 177.701 297.523C177.608 297.57 177.561 297.71 177.608 297.803C177.561 297.896 177.701 297.942 177.794 297.896Z" fill="#ED7D57"/>
<path fill-rule="evenodd" clip-rule="evenodd" d="M178.96 290.022C178.68 289.975 178.401 289.835 178.261 289.649C177.888 289.136 178.494 288.764 179.1 288.624C180.264 288.344 181.662 288.95 182.734 289.742C182.967 289.928 182.827 290.255 182.547 290.255C181.942 290.301 180.87 290.255 178.96 290.022Z" fill="#20386F"/>
<path fill-rule="evenodd" clip-rule="evenodd" d="M172.297 290.301C172.576 290.254 172.856 290.115 172.996 289.882C173.368 289.369 172.716 288.996 172.11 288.903C170.946 288.67 169.548 289.323 168.523 290.115C168.29 290.301 168.43 290.627 168.709 290.627C169.315 290.674 170.386 290.581 172.297 290.301Z" fill="#20386F"/>
<path fill-rule="evenodd" clip-rule="evenodd" d="M173.228 300.598C175.511 301.11 176.862 301.11 179.192 301.017C180.124 300.971 176.909 307.493 173.042 300.924C172.948 300.784 173.042 300.551 173.228 300.598Z" fill="#ED7D57"/>
<path fill-rule="evenodd" clip-rule="evenodd" d="M173.368 300.738C172.436 301.437 177.701 302.555 178.726 301.903C178.866 301.81 179.285 301.391 179.192 301.251C179.099 301.064 178.446 301.204 178.307 301.204C176.583 301.297 175.045 301.158 173.368 300.738Z" fill="white"/>
<path fill-rule="evenodd" clip-rule="evenodd" d="M401.669 318.397C402.228 318.444 402.648 316.347 401.343 316.301C400.644 316.301 400.784 318.397 401.669 318.397Z" fill="#20386F"/>
<path fill-rule="evenodd" clip-rule="evenodd" d="M396.777 316.953C397.336 316.907 397.569 314.763 396.218 314.903C395.519 314.996 395.845 317.046 396.777 316.953Z" fill="#20386F"/>
<path fill-rule="evenodd" clip-rule="evenodd" d="M397.523 321.66C396.824 321.334 396.451 321.147 396.358 320.821C396.265 320.542 396.451 320.309 396.777 319.843C397.15 319.33 397.709 318.585 398.315 317.187C398.362 317.094 398.501 317.094 398.595 317.094C398.688 317.14 398.688 317.28 398.688 317.327C398.035 318.678 397.476 319.517 397.104 320.029C396.871 320.309 396.684 320.588 396.731 320.681C396.777 320.821 397.243 321.054 397.616 321.194C397.709 321.24 397.756 321.38 397.709 321.473C397.709 321.66 397.616 321.66 397.523 321.66Z" fill="#ED7D57"/>
<path fill-rule="evenodd" clip-rule="evenodd" d="M398.408 314.486C398.641 314.579 398.921 314.579 399.154 314.486C399.713 314.206 399.34 313.6 398.921 313.274C398.036 312.575 396.638 312.436 395.473 312.622C395.24 312.669 395.147 312.995 395.38 313.135C395.846 313.414 396.731 313.833 398.408 314.486Z" fill="#20386F"/>
<path fill-rule="evenodd" clip-rule="evenodd" d="M401.623 315.741C401.343 315.694 401.11 315.555 400.97 315.368C400.644 314.856 401.25 314.53 401.809 314.436C402.927 314.25 404.185 314.856 405.117 315.555C405.35 315.741 405.21 316.067 404.93 316.067C404.418 316.067 403.393 316.021 401.623 315.741Z" fill="#20386F"/>
<path fill-rule="evenodd" clip-rule="evenodd" d="M400.924 325.434C398.78 325.341 397.569 325.061 395.472 324.455C394.634 324.222 396.031 330.745 401.017 325.76C401.156 325.667 401.063 325.434 400.924 325.434Z" fill="#ED7D57"/>
<path fill-rule="evenodd" clip-rule="evenodd" d="M286.307 520C364.07 520 427.481 511.799 427.481 501.782C427.481 491.765 364.07 483.564 286.307 483.564C208.592 483.564 145.133 491.718 145.133 501.782C145.133 511.846 208.592 520 286.307 520Z" fill="#F9FDFF"/>
<path fill-rule="evenodd" clip-rule="evenodd" d="M114.15 490.508C157.9 490.508 193.59 485.896 193.59 480.258C193.59 474.62 157.9 470.008 114.15 470.008C70.4005 470.008 34.711 474.62 34.711 480.258C34.711 485.896 70.4005 490.508 114.15 490.508Z" fill="#F9FDFF"/>
<path fill-rule="evenodd" clip-rule="evenodd" d="M338.723 25.8457H169.874C155.943 25.8457 144.574 37.2142 144.574 51.1452V417.079C144.574 431.01 155.943 442.379 169.874 442.379H338.723C352.654 442.379 364.023 431.01 364.023 417.079V51.1452C364.023 37.2608 352.608 25.8457 338.723 25.8457Z" fill="#444444"/>
<path fill-rule="evenodd" clip-rule="evenodd" d="M338.723 29.4785H169.873C157.945 29.4785 148.208 39.2163 148.208 51.1438V417.078C148.208 429.006 157.945 438.743 169.873 438.743H338.723C350.65 438.743 360.435 429.006 360.435 417.078V51.1438C360.435 39.2163 350.65 29.4785 338.723 29.4785Z" fill="white"/>
<path fill-rule="evenodd" clip-rule="evenodd" d="M338.722 38.3789C283.371 38.3789 225.27 38.3789 169.872 38.3789C162.837 38.3789 157.106 44.1097 157.106 51.1451V417.079C157.106 424.115 162.837 429.846 169.872 429.846H338.722C345.758 429.846 351.535 424.115 351.535 417.079V51.1451C351.535 44.1097 345.758 38.3789 338.722 38.3789Z" fill="#ECFAFF"/>
<path fill-rule="evenodd" clip-rule="evenodd" d="M108.279 157.98C110.935 151.551 112.332 143.956 114.988 141.347C133.811 137.76 134.324 147.917 141.918 150.992C141.639 153.461 140.474 156.07 138.424 158.866C137.399 169.768 133.858 176.105 127.801 177.782C126.124 179.087 123.608 179.599 120.3 179.366C120.393 180.811 120.579 182.162 120.812 183.513C118.296 195.487 106.276 197.351 99.1469 184.724C98.914 184.305 98.681 183.886 98.4481 183.466C98.4946 183.373 98.4946 183.233 98.4946 183.187C99.3333 178.481 99.9856 174.334 100.405 170.84C100.685 168.557 100.917 166.507 101.057 164.736C96.0718 157.701 95.606 152.529 99.7527 149.268C104.785 147.73 107.021 151.318 106.462 159.891C108.046 159.471 107.021 159.798 108.279 157.98Z" fill="#FAB688"/>
<path fill-rule="evenodd" clip-rule="evenodd" d="M141.919 150.99C134.278 147.915 133.812 137.758 114.989 141.345C112.333 143.954 110.936 151.549 108.28 157.979C107.022 159.796 108.047 159.516 106.556 159.842C107.115 151.223 104.832 147.682 99.8467 149.219C95.7 152.481 96.1193 157.652 101.151 164.688C100.965 166.505 100.779 168.508 100.499 170.791C86.1952 152.993 92.6715 132.632 103.807 127.321C101.291 127.228 98.6353 127.787 95.8398 129.045C100.266 124.665 105.484 123.687 111.495 126.11C111.355 122.522 111.867 119.959 113.079 118.422C112.986 120.845 113.172 122.708 113.638 124.106C118.204 121.031 126.031 121.357 133.44 125.504C143.084 130.862 152.216 141.811 156.642 139.621C154.592 149.126 148.256 154.205 141.919 150.99Z" fill="#2C3D4F"/>
<path fill-rule="evenodd" clip-rule="evenodd" d="M76.3648 217.153C74.6875 219.855 72.8705 222.604 70.867 225.399C68.6306 228.568 66.2078 231.829 63.6452 235.137C60.9895 228.847 52.6961 222.557 45.4277 224.561C54.2336 206.39 62.76 193.95 68.7704 188.685C75.2932 185.47 85.2173 183.606 98.4961 183.094C98.4961 183.187 98.4495 183.327 98.4495 183.42C105.438 197.444 118.158 195.86 120.767 183.466C129.62 184.398 139.963 187.706 145.647 191.434C151.192 196.885 160.976 209.605 170.76 228.009C168.571 229.965 157.761 234.764 153.242 235.556C149.934 231.317 147.744 228.009 144.948 223.769C144.622 243.896 144.622 258.48 145.135 268.497C145.508 275.16 146.067 283.267 146.905 286.202C133.3 304.979 90.3425 305.445 70.867 290.722C74.5944 265.469 76.6444 240.868 76.3648 217.153Z" fill="#FF9D00"/>
<path fill-rule="evenodd" clip-rule="evenodd" d="M76.9693 235.369C85.7286 233.552 92.1117 232.667 103.48 228.706C104.132 225.072 110.516 217.571 113.451 213.471C119.275 214.309 113.265 221.531 113.591 222.929C117.877 222.323 119.881 220.879 121.418 219.667C127.522 217.431 129.712 229.359 124.4 234.111C121.372 236.813 113.078 239.469 108.978 239.469C94.7209 246.178 86.2411 249.952 75.7113 253.447C74.4067 253.866 73.1487 254.285 71.8907 254.658C54.4187 260.109 42.6309 260.668 36.4342 256.429C35.083 247.203 42.6309 230.57 45.4265 224.56C55.4904 221.904 61.9667 231.269 63.5974 234.903C62.9451 236.347 62.0133 237.792 60.8019 239.19C64.0633 238.118 67.8372 237.233 72.0771 236.347C73.6613 236.068 75.292 235.742 76.9693 235.369Z" fill="#FAB688"/>
<path fill-rule="evenodd" clip-rule="evenodd" d="M160.322 233.366C157.899 231.409 146.857 224.141 143.782 221.159C144.295 217.571 141.22 208.253 140.008 203.407C135.116 202.149 137.911 211.002 137.306 212.213C133.998 210.163 132.786 208.066 131.948 206.389C127.708 202.149 122.676 212.539 125.658 218.829C127.382 222.417 133.252 227.868 136.514 229.266C138.983 232.201 144.341 240.168 146.391 242.498C160.881 266.167 181.755 271.525 182.733 258.665C182.314 252.189 175.651 238.864 169.408 228.986C167.824 229.965 165.308 231.176 162.698 232.341C166.892 235.043 170.06 238.631 172.296 243.15C168.709 238.538 166.1 236.953 160.322 233.366Z" fill="#FAB688"/>
<path fill-rule="evenodd" clip-rule="evenodd" d="M59.5901 238.118C60.755 236.394 61.78 234.67 62.7119 232.992C63.038 233.645 63.3642 234.25 63.5971 234.903C62.8982 236.44 61.9198 237.931 60.6618 239.422C55.7696 241.053 52.0423 243.056 49.8524 246.225C50.9241 242.59 54.1855 239.935 59.5901 238.118ZM162.652 232.387C166.845 235.089 170.013 238.677 172.25 243.196C168.709 238.537 166.1 236.953 160.322 233.365C161.114 233.039 161.906 232.713 162.652 232.387Z" fill="#ED7D57"/>
<path fill-rule="evenodd" clip-rule="evenodd" d="M72.3093 236.348C72.123 232.155 71.7502 228.381 71.1911 224.98C73.0548 222.324 74.7787 219.715 76.3628 217.152C76.4094 223.209 76.3162 229.359 76.1299 235.51C74.8253 235.789 73.5673 236.069 72.3093 236.348ZM68.2559 288.904C70.2127 276.045 71.5173 264.63 72.0764 254.612C73.0548 254.333 74.0798 254.007 75.1049 253.681C74.173 265.841 72.7287 278.188 70.9116 290.768C70.0263 290.162 69.1411 289.556 68.2559 288.904Z" fill="#FF9D00"/>
<path fill-rule="evenodd" clip-rule="evenodd" d="M131.947 206.438C127.707 202.198 122.675 212.588 125.657 218.878C125.75 219.064 125.89 219.297 125.983 219.484C127.614 222.419 131.621 226.286 134.696 228.29C135.022 228.523 135.348 228.709 135.675 228.895L135.302 235.325C135.255 236.63 134.09 237.701 132.786 237.701L118.389 237.655H117.457C120.253 236.676 122.908 235.418 124.353 234.067C128.546 230.386 128.08 222.186 124.725 219.95C123.794 219.344 122.675 219.158 121.371 219.67C120.672 220.229 119.88 220.835 118.762 221.441C117.876 221.907 116.805 222.326 115.454 222.605L115.78 217.294C115.966 216.548 116.059 215.803 115.873 215.197L115.92 213.986L116.618 201.825C116.712 200.521 117.83 199.449 119.134 199.449L134.976 199.496C136.28 199.496 137.259 200.567 137.212 201.872L136.653 211.843C133.904 209.886 132.786 207.976 131.947 206.438Z" fill="#071023"/>
<path fill-rule="evenodd" clip-rule="evenodd" d="M118.808 464.461C116.665 412.697 112.379 358.837 106.089 309.403C102.641 340.806 95.3259 391.591 84.3768 463.995C81.0222 465.905 75.8504 466.185 68.8616 464.834C61.5467 405.336 61.8728 347.748 69.5139 289.834L70.8651 290.766C88.6167 304.231 125.844 304.976 142.617 290.859C147.928 344.254 144.667 402.168 132.879 464.554C129.757 465.812 125.052 465.766 118.808 464.461Z" fill="#343D58"/>
<path fill-rule="evenodd" clip-rule="evenodd" d="M82.9792 477.974C76.5495 478.161 75.1517 479.605 69.8402 481.096C62.2457 483.193 57.2604 481.562 58.9377 477.788C64.2958 474.433 68.1629 471.358 70.4459 468.563C72.496 467.445 76.9222 468.004 77.6211 471.638C80.4632 472.011 81.3951 471.312 81.9542 469.495C82.7462 471.591 83.119 474.433 82.9792 477.974ZM117.97 478.86C126.31 479.046 127.475 480.397 131.854 481.282C142.664 484.357 149.839 482.773 147.602 478.673C141.033 475.319 136.281 472.244 133.438 469.448C130.922 468.33 128.267 469.401 125.564 472.523C122.07 472.896 119.973 472.197 119.321 470.333C118.296 472.476 117.877 475.319 117.97 478.86Z" fill="#071023"/>
<path fill-rule="evenodd" clip-rule="evenodd" d="M131.621 465.022C131.574 466.466 131.76 467.771 132.133 469.029C130.037 468.749 127.847 469.868 125.564 472.477C122.395 472.849 120.392 472.244 119.507 470.753C120.019 468.796 120.299 466.793 120.439 464.789C125.144 465.628 128.825 465.721 131.621 465.022ZM81.9069 465.022C81.8603 466.606 81.8603 468.097 81.9535 469.448C81.3944 471.265 80.4625 471.964 77.6204 471.591C77.0147 468.283 73.334 467.538 71.0975 468.237C71.1907 467.212 71.2373 466.187 71.1907 465.208C75.5704 465.907 79.1114 465.814 81.9069 465.022Z" fill="#FAB688"/>
<path fill-rule="evenodd" clip-rule="evenodd" d="M74.9211 255.777C101.013 258.433 124.262 258.293 144.856 255.358C144.809 253.075 144.809 250.605 144.809 247.996C123.144 249.767 104.46 250 88.7124 248.648C84.3327 250.465 80.186 252.003 75.6666 253.541L75.0609 253.774V253.82V253.727L72.0324 254.705C72.0324 254.985 71.9858 255.264 71.9858 255.544C73.0109 255.544 73.9893 255.684 74.9211 255.777Z" fill="white"/>
<path fill-rule="evenodd" clip-rule="evenodd" d="M104.458 241.567C118.529 241.986 131.668 241.241 143.922 239.33C142.151 236.908 139.961 233.786 138.237 231.503C137.352 231.596 136.467 231.689 135.535 231.736L135.302 235.37C135.255 236.675 134.091 237.746 132.786 237.746L118.389 237.7H117.457C117.178 237.793 116.945 237.886 116.712 237.933C113.87 238.911 110.934 239.517 108.931 239.517C107.393 240.169 105.902 240.915 104.458 241.567ZM76.2699 231.037C74.8256 230.944 73.3812 230.804 71.9368 230.711C72.03 231.922 72.1232 233.134 72.2164 234.392C72.263 235.184 72.3096 235.836 72.3096 236.349L76.1301 235.51L76.9688 235.324C82.5598 234.159 87.1725 233.413 92.7169 231.969C87.4054 231.783 81.9542 231.456 76.2699 231.037Z" fill="white"/>
<path fill-rule="evenodd" clip-rule="evenodd" d="M334.25 68.6621H263.523C261.659 68.6621 260.168 70.1531 260.168 72.0167V107.66C280.156 110.269 296.044 126.11 298.654 146.145H334.297C336.114 146.145 337.651 144.654 337.651 142.79V72.0167C337.605 70.1997 336.067 68.6621 334.25 68.6621Z" fill="white"/>
<path fill-rule="evenodd" clip-rule="evenodd" d="M245.073 68.6621H174.347C172.483 68.6621 170.945 70.1531 170.945 72.0167V142.744C170.945 144.607 172.483 146.098 174.347 146.098H209.943C212.552 126.11 228.393 110.222 248.428 107.613V71.9701C248.475 70.1996 246.937 68.6621 245.073 68.6621Z" fill="#1D417F"/>
<path fill-rule="evenodd" clip-rule="evenodd" d="M337.605 231.921V161.148C337.605 159.284 336.114 157.793 334.25 157.793H298.607C295.998 177.781 280.157 193.622 260.122 196.278V231.921C260.122 233.785 261.613 235.276 263.477 235.276H334.204C336.067 235.229 337.605 233.785 337.605 231.921Z" fill="#1D417F"/>
<path fill-rule="evenodd" clip-rule="evenodd" d="M174.394 235.231H245.121C246.938 235.231 248.475 233.74 248.475 231.876V196.233C228.441 193.624 212.599 177.783 209.99 157.748H174.394C172.53 157.748 170.993 159.239 170.993 161.103V231.829C170.993 233.786 172.53 235.231 174.394 235.231Z" fill="white"/>
<path fill-rule="evenodd" clip-rule="evenodd" d="M254.299 111.016C231.702 111.016 213.344 129.326 213.344 151.97C213.344 174.614 231.655 192.925 254.299 192.925C276.943 192.925 295.253 174.614 295.253 151.97C295.253 129.326 276.896 111.016 254.299 111.016ZM254.299 117.119C273.541 117.119 289.15 132.681 289.15 151.924C289.15 171.166 273.541 186.728 254.299 186.728C235.103 186.728 219.495 171.166 219.495 151.924C219.495 132.681 235.103 117.119 254.299 117.119Z" fill="white"/>
<path fill-rule="evenodd" clip-rule="evenodd" d="M329.963 257.641V260.343H332.666H332.852H332.805L332.899 260.39C333.038 260.39 333.271 260.436 333.411 260.483L334.39 257.967C333.83 257.734 333.225 257.641 332.619 257.641H329.963ZM337.092 260.39C337.418 261.088 337.604 261.834 337.604 262.579V263.604H334.902V262.579V262.393V262.3V262.346C334.856 262.067 334.809 261.881 334.669 261.601L337.092 260.39ZM337.604 266.353H334.902V269.056H337.604V266.353ZM337.604 271.758H334.902V274.46H337.604V271.758ZM337.604 277.163H334.902V279.865H337.604V277.163ZM337.604 282.567H334.902V285.27H337.604V282.567ZM337.604 287.925H334.902V290.628H337.604V287.925ZM337.604 293.377H334.902V296.079H337.604V293.377ZM337.604 298.735H334.902V301.437H337.604V298.735ZM337.604 304.139H334.902V306.842H337.604V304.139ZM337.604 309.544H334.902V312.247H337.604V309.544ZM337.604 314.949H334.902V317.651H337.604V314.949ZM337.604 320.354H334.902V323.056H337.604V320.354ZM336.673 326.411C335.88 327.436 334.855 328.088 333.597 328.367L333.085 325.712C333.318 325.665 333.504 325.618 333.737 325.479C333.83 325.432 333.97 325.339 334.063 325.246C334.157 325.153 334.296 325.013 334.39 324.873L334.436 324.78L336.673 326.411ZM330.616 328.414V325.712H327.913V328.414H330.616ZM325.257 328.414V325.712H322.555V328.414H325.257ZM319.806 328.414V325.712H317.104V328.414H319.806ZM314.448 328.414V325.712H311.746V328.414H314.448ZM309.043 328.414V325.712H306.341V328.414H309.043ZM303.639 328.414V325.712H300.936V328.414H303.639ZM298.234 328.414V325.712H295.532V328.414H298.234ZM292.829 328.414V325.712H290.127V328.414H292.829ZM287.425 328.414V325.712H284.722V328.414H287.425ZM282.02 328.414V325.712H279.318V328.414H282.02ZM276.615 328.414V325.712H273.913V328.414H276.615ZM271.211 328.414V325.712H268.508V328.414H271.211ZM265.573 328.367C264.315 328.134 263.243 327.436 262.451 326.411L264.641 324.826L264.688 324.873C264.781 325.013 264.874 325.106 265.014 325.246C265.107 325.339 265.247 325.432 265.34 325.479C265.573 325.572 265.759 325.665 265.992 325.712L265.573 328.367ZM261.52 323.103H264.222V320.4H261.52V323.103ZM261.52 317.651H264.222V314.949H261.52V317.651ZM261.52 312.293H264.222V309.591H261.52V312.293ZM261.52 306.842H264.222V304.139H261.52V306.842ZM261.52 301.484H264.222V298.781H261.52V301.484ZM261.52 296.032H264.222V293.33H261.52V296.032ZM261.52 290.674H264.222V287.972H261.52V290.674ZM261.52 285.27H264.222V282.567H261.52V285.27ZM261.52 279.865H264.222V277.163H261.52V279.865ZM261.52 274.507H264.222V271.805H261.52V274.507ZM261.52 269.056H264.222V266.353H261.52V269.056ZM261.52 263.698H264.222V262.579V262.393V262.3V262.346C264.268 262.067 264.315 261.881 264.455 261.601L262.032 260.436C261.706 261.135 261.52 261.787 261.52 262.579V263.698ZM264.688 257.967C265.107 257.734 265.992 257.641 266.412 257.641H267.856V260.343H266.412H266.225H266.272L266.179 260.39H266.225C266.039 260.39 265.806 260.436 265.666 260.483L264.688 257.967ZM270.512 257.641V260.343H273.214V257.641H270.512ZM275.963 257.641V260.343H278.665V257.641H275.963ZM281.321 257.641V260.343H284.024V257.641H281.321ZM286.726 257.641V260.343H289.428V257.641H286.726ZM292.131 257.641V260.343H294.833V257.641H292.131ZM297.535 257.641V260.343H300.238V257.641H297.535ZM302.94 257.641V260.343H305.642V257.641H302.94ZM308.345 257.641V260.343H311.047V257.641H308.345ZM313.749 257.641V260.343H316.452V257.641H313.749ZM319.154 257.641V260.343H321.856V257.641H319.154ZM324.605 257.641V260.343H327.308V257.641H324.605Z" fill="#859AC6"/>
<path fill-rule="evenodd" clip-rule="evenodd" d="M334.856 352.316H173.694C172.203 352.316 170.945 353.528 170.945 355.019V401.518C170.945 403.009 172.157 404.22 173.694 404.22H334.856C336.347 404.22 337.559 403.009 337.559 401.518V355.019C337.605 353.574 336.394 352.316 334.856 352.316Z" fill="#B0C2E4"/>
<path fill-rule="evenodd" clip-rule="evenodd" d="M237.48 281.168H174.58C172.623 281.168 170.993 282.752 170.993 284.756C170.993 286.712 172.623 288.343 174.58 288.343H237.48C239.436 288.343 241.067 286.759 241.067 284.756C241.067 282.752 239.436 281.168 237.48 281.168ZM237.48 318.675H174.58C172.623 318.675 170.993 320.259 170.993 322.262C170.993 324.219 172.623 325.85 174.58 325.85H237.48C239.436 325.85 241.067 324.219 241.067 322.262C241.067 320.259 239.436 318.675 237.48 318.675ZM237.48 299.898H174.58C172.623 299.898 170.993 301.529 170.993 303.486C170.993 305.442 172.623 307.073 174.58 307.073H237.48C239.436 307.073 241.067 305.442 241.067 303.486C241.067 301.529 239.436 299.898 237.48 299.898Z" fill="#859AC6"/>
<path fill-rule="evenodd" clip-rule="evenodd" d="M253.505 498.335C266.877 498.102 276.895 497.962 281.507 496.517C286.493 494.933 285.468 491.905 282.625 487.013C270.046 492.837 273.4 485.848 267.483 486.733C263.336 490.088 257.233 492.324 249.079 493.442C245.631 495.958 247.029 498.195 253.505 498.335Z" fill="#0E2952"/>
<path fill-rule="evenodd" clip-rule="evenodd" d="M270.697 294.59H353.352C354.936 294.59 356.66 295.941 357.079 297.572L371.756 353.529C372.175 355.16 371.196 356.511 369.566 356.511H286.911C285.327 356.511 283.603 355.16 283.184 353.529L268.507 297.572C268.135 295.941 269.067 294.59 270.697 294.59Z" fill="#C4D1EB"/>
<path fill-rule="evenodd" clip-rule="evenodd" d="M358.804 296.221L368.775 334.24C380.749 328.416 395.192 319.004 410.335 306.983C410.754 301.579 411.267 297.246 411.872 293.984C410.661 291.608 409.31 288.999 407.865 286.296C421.843 286.203 430.369 283.175 433.444 277.258C429.717 266.355 424.452 255.173 417.743 243.804C413.084 236.816 403.858 232.762 390.16 231.551C388.576 249.861 360.388 248.93 367.051 233.135C356.8 235.884 348.181 240.916 341.052 248.324C334.949 263.373 331.221 273.856 329.87 279.82C336.533 284.479 342.776 287.461 348.693 288.812C348.973 290.117 349.206 291.608 349.346 293.239H355.03C356.707 293.239 358.384 294.59 358.804 296.221Z" fill="#00DDEF"/>
<path fill-rule="evenodd" clip-rule="evenodd" d="M368.822 334.239L358.851 296.22C358.432 294.589 356.755 293.238 355.124 293.238H349.44H272.516C270.886 293.238 267.997 295.335 268.463 296.966C268.37 295.614 269.301 294.589 270.699 294.589H353.354C354.938 294.589 356.662 295.941 357.081 297.571L371.757 353.528C372.037 354.507 371.804 355.346 371.198 355.905C372.549 355.019 373.854 353.342 373.575 352.177L368.822 334.239Z" fill="#859AC6"/>
<path fill-rule="evenodd" clip-rule="evenodd" d="M369.567 356.511H286.912C286.633 356.511 286.306 356.464 286.027 356.371C287.658 360.657 292.131 360.005 293.854 360.005H391.791C397.102 359.772 396.963 356.045 397.009 352.504H373.48C373.573 353.622 372.362 355.16 371.104 355.952C370.778 356.278 370.219 356.511 369.567 356.511Z" fill="#859AC6"/>
<path fill-rule="evenodd" clip-rule="evenodd" d="M358.013 317.605C349.16 322.125 338.677 323.476 327.961 324.035C328.054 324.408 328.147 324.781 328.194 325.2C328.939 329.719 325.724 333.633 321.065 333.633C316.732 333.633 312.772 330.185 312.073 325.852C311.98 325.386 311.98 324.967 311.98 324.501C300.798 324.781 289.988 325.386 281.043 328.881L287.193 352.27H367.098L358.013 317.605Z" fill="#9DB2D9"/>
<path fill-rule="evenodd" clip-rule="evenodd" d="M319.293 320.215C322.229 320.215 324.978 322.591 325.49 325.573C325.909 328.555 323.906 330.931 320.971 330.931C317.989 330.931 315.24 328.555 314.727 325.573C314.308 322.591 316.311 320.215 319.293 320.215Z" fill="#9DB2D9"/>
<path fill-rule="evenodd" clip-rule="evenodd" d="M414.342 342.86C412.711 337.828 411.5 332.61 410.754 327.205C399.619 331.492 386.899 335.638 370.825 342.021L373.015 350.315C397.336 351.107 411.127 348.637 414.342 342.86Z" fill="#00DDEF"/>
<path fill-rule="evenodd" clip-rule="evenodd" d="M370.825 342.023C386.946 335.64 399.619 331.493 410.755 327.206C420.586 323.432 429.159 319.519 437.638 313.835C437.312 302.932 435.681 292.402 431.162 280.148C427.015 284.109 419.234 286.112 407.819 286.205C411.127 292.449 413.783 297.853 415.88 302.373C398.734 316.583 382.194 327.626 368.729 334.195L370.825 342.023Z" fill="#F9AF79"/>
<path fill-rule="evenodd" clip-rule="evenodd" d="M332.061 281.217C330.85 285.55 329.685 289.557 328.613 293.238H349.393C349.207 291.607 349.021 290.116 348.741 288.811C343.476 287.6 337.885 285.084 332.061 281.217Z" fill="#F9AF79"/>
<path fill-rule="evenodd" clip-rule="evenodd" d="M281.6 482.633C293.901 438.091 298.28 406.735 294.786 388.704C301.775 389.682 308.764 390.008 315.846 389.636C314.774 384.837 313.702 379.991 312.631 375.099C312.771 368.436 316.125 363.497 328.193 360.003H293.947C292.783 360.003 290.406 360.283 288.449 359.211C277.407 362.333 272.049 367.551 270.185 373.934C268.834 391.406 272.468 411.301 269.347 482.773C273.214 483.146 277.267 483.146 281.6 482.633Z" fill="#20386F"/>
<path fill-rule="evenodd" clip-rule="evenodd" d="M294.461 360.003H293.902C292.737 360.003 290.361 360.283 288.404 359.211C277.362 362.333 272.004 367.551 270.14 373.934C268.789 391.406 272.423 411.301 269.301 482.773C271.584 483.053 274.007 483.099 276.476 483.053C282.813 458.172 297.955 397.277 280.903 370.999C284.956 366.712 289.429 363.078 294.461 360.003Z" fill="#1D417F"/>
<path fill-rule="evenodd" clip-rule="evenodd" d="M390.161 231.69C387.971 228.894 386.061 226.331 385.502 224.468C385.921 223.21 386.387 221.626 386.853 219.715C395.053 214.124 396.171 210.024 390.207 207.368C388.996 208.021 387.505 210.117 385.735 213.612C384.29 213.565 383.219 212.82 382.52 211.422C384.244 205.551 385.315 200.799 385.828 197.118C381.774 191.108 372.316 190.269 359.829 191.9C359.27 195.255 358.804 198.749 358.432 202.476C356.195 204.526 356.475 212.074 358.525 220.787C357.5 225.726 360.575 228.428 367.703 228.894C367.797 230.618 367.144 232.854 367.051 233.134C367.051 233.18 367.051 233.181 367.005 233.181C360.528 248.882 388.39 249.86 390.161 231.69Z" fill="#F9AF79"/>
<path fill-rule="evenodd" clip-rule="evenodd" d="M359.829 191.854C372.362 190.223 381.82 191.108 385.827 197.072C385.315 200.753 384.243 205.505 382.519 211.376C383.218 212.774 384.336 213.519 385.734 213.566C387.504 210.071 388.995 208.021 390.207 207.322C396.171 209.978 395.052 214.125 386.852 219.669C386.34 221.58 385.92 223.164 385.501 224.422C392.863 222.744 399.059 216.175 399.945 213.286C408.517 196.327 398.92 189.152 393.794 186.542C391.558 169.769 367.144 184.586 354.937 176.479C350.044 183.281 356.055 191.714 359.829 191.854Z" fill="#2C3D4F"/>
<path fill-rule="evenodd" clip-rule="evenodd" d="M376.928 228.615C373.48 228.895 370.405 228.988 367.702 228.848C367.795 230.06 367.469 231.504 367.236 232.343C371.663 232.249 374.924 230.991 376.928 228.615Z" fill="#ED7D57"/>
<path fill-rule="evenodd" clip-rule="evenodd" d="M339.189 386.469H413.69C416.346 386.469 418.535 388.659 418.535 391.314C418.535 394.017 416.346 396.16 413.69 396.16H339.189C336.487 396.16 334.297 393.97 334.297 391.314C334.297 388.705 336.487 386.469 339.189 386.469Z" fill="#9C7357"/>
<path fill-rule="evenodd" clip-rule="evenodd" d="M409.264 478.254C405.677 474.666 400.738 472.43 395.333 472.43H382.521H357.501C352.049 472.43 347.157 474.666 343.616 478.254C340.029 481.795 337.839 486.687 337.839 492.138V496.098H336.348V501.037H337.839H345.992H347.483V496.098H345.992V492.138C345.992 488.97 347.25 486.081 349.347 483.984C351.444 481.888 354.332 480.63 357.501 480.63H382.521H395.333C398.502 480.63 401.39 481.888 403.487 483.984C405.584 486.081 406.888 488.97 406.888 492.138V496.098H405.351V501.037H406.888H414.995H416.533V496.098H414.995V492.138C415.042 486.687 412.805 481.795 409.264 478.254Z" fill="#D0A382"/>
<path d="M380.469 396.16H372.362V472.431H380.469V396.16Z" fill="#D0A382"/>
<path fill-rule="evenodd" clip-rule="evenodd" d="M402.507 386.189C416.951 381.017 418.861 366.667 412.571 344.955C407.353 349.242 394.167 351.012 373.061 350.313L373.574 352.177C373.574 352.27 373.62 352.363 373.62 352.456H397.149C397.056 356.044 397.242 359.771 391.931 359.958H328.24C316.172 363.499 312.818 368.391 312.678 375.054C320.272 409.112 327.075 440.376 336.3 483.52C339.422 485.29 343.708 485.151 349.066 483.147C353.399 441.261 352.235 410.836 345.479 391.827C363.277 391.92 382.333 389.497 402.507 386.189Z" fill="#1D417F"/>
<path fill-rule="evenodd" clip-rule="evenodd" d="M402.507 386.189C416.951 381.017 418.861 366.667 412.571 344.955C411.453 345.84 410.009 346.632 408.145 347.331C413.41 369.649 407.679 381.809 390.766 383.021C371.011 385.91 354.611 387.354 341.611 387.261C347.296 424.395 348.321 456.823 344.547 484.452C345.944 484.172 347.435 483.753 349.019 483.147C353.353 441.261 352.188 410.836 345.432 391.827C363.277 391.92 382.333 389.497 402.507 386.189Z" fill="#20386F"/>
<path fill-rule="evenodd" clip-rule="evenodd" d="M270.651 482.868C270.278 484.219 269.719 485.477 268.88 486.642C272.748 487.015 271.257 492 281.693 487.434C281.227 486.129 280.994 484.545 280.948 482.682C277.314 483.054 273.912 483.148 270.651 482.868Z" fill="#F9AF79"/>
<path fill-rule="evenodd" clip-rule="evenodd" d="M336.253 506.165C343.335 503.183 344.406 498.43 348.32 496.613C352.234 494.796 352.7 491.488 348.833 487.947C345.991 490.23 342.496 493.026 340.632 491.535C339.374 490.556 335.135 490.603 334.343 492.047C330.662 500.62 325.537 497.871 324.512 501.785C324.418 507.003 331.78 507.982 336.253 506.165Z" fill="#0E2952"/>
<path fill-rule="evenodd" clip-rule="evenodd" d="M337.465 484.127C337.512 486.41 337.232 488.693 336.533 490.976C338.071 490.743 339.888 490.976 340.633 491.581C342.357 492.933 345.525 490.65 348.228 488.506C347.808 487.248 347.529 485.664 347.343 483.754C343.382 485.012 340.074 485.105 337.465 484.127Z" fill="#F9AF79"/>
<path opacity="0.4" fill-rule="evenodd" clip-rule="evenodd" d="M407.865 286.25C406.048 282.942 404.091 278.469 402.041 272.878C403.16 279.401 403.066 284.106 404.837 289.464C403.392 297.106 402.787 304.84 402.973 312.621C405.396 310.804 407.865 308.94 410.335 306.936C410.754 301.532 411.267 297.199 411.872 293.937C410.707 291.561 409.356 288.999 407.865 286.25ZM344.454 287.554C345.898 288.067 347.342 288.439 348.693 288.766C348.181 280.472 347.808 273.577 347.668 268.172C346.084 276.232 345.013 282.662 344.454 287.554ZM414.342 342.859C412.711 337.827 411.499 332.609 410.754 327.204C408.704 327.996 406.561 328.788 404.371 329.627C405.256 335.497 406.514 341.415 408.098 347.332C411.267 346.167 413.317 344.676 414.342 342.859Z" fill="white"/>
<path fill-rule="evenodd" clip-rule="evenodd" d="M119.415 87.4395H140.707C143.177 87.4395 145.227 89.4895 145.227 91.9589V102.023C145.227 104.539 143.177 106.542 140.707 106.542H137.12L126.124 114.789L128.547 106.542H119.368C116.852 106.542 114.849 104.492 114.849 102.023V91.9589C114.895 89.4429 116.899 87.4395 119.415 87.4395Z" fill="#FF6E54"/>
<path fill-rule="evenodd" clip-rule="evenodd" d="M121.605 95.7812C122.49 95.7812 123.235 96.5267 123.235 97.4586C123.235 98.3438 122.49 99.0893 121.605 99.0893C120.719 99.0893 119.974 98.3438 119.974 97.4586C119.974 96.5267 120.719 95.7812 121.605 95.7812ZM138.424 95.7812C139.31 95.7812 140.055 96.5267 140.055 97.4586C140.055 98.3438 139.31 99.0893 138.424 99.0893C137.539 99.0893 136.794 98.3438 136.794 97.4586C136.794 96.5267 137.539 95.7812 138.424 95.7812ZM132.833 95.7812C133.719 95.7812 134.464 96.5267 134.464 97.4586C134.464 98.3438 133.719 99.0893 132.833 99.0893C131.901 99.0893 131.203 98.3438 131.203 97.4586C131.203 96.5267 131.901 95.7812 132.833 95.7812ZM127.242 95.7812C128.127 95.7812 128.873 96.5267 128.873 97.4586C128.873 98.3438 128.127 99.0893 127.242 99.0893C126.357 99.0893 125.612 98.3438 125.612 97.4586C125.612 96.5267 126.31 95.7812 127.242 95.7812Z" fill="white"/>
</svg>
