<svg xmlns="http://www.w3.org/2000/svg" xmlns:xlink="http://www.w3.org/1999/xlink" width="580" height="449" viewBox="0 0 580 449">
    <defs>
        <path id="a" d="M66.376 81.346H1.03v-6.077h55.58v-61.93H1.03V1.417h52.206c7.228 0 13.14 5.915 13.14 13.142v66.787z"/>
    </defs>
    <g fill="none" fill-rule="evenodd">
        <path fill="#243A63" d="M291.023 144.789v19.839a2.297 2.297 0 1 0 4.593 0v-19.84a2.297 2.297 0 1 0-4.593 0zm0 35.71v19.841a2.297 2.297 0 1 0 4.593 0V180.5a2.296 2.296 0 0 0-4.593 0zm0 39.682v15.872a2.296 2.296 0 0 0 4.593 0V220.18a2.297 2.297 0 1 0-4.593 0zm0 35.712v7.744a2.297 2.297 0 0 0 4.593 0v-7.744a2.297 2.297 0 1 0-4.593 0zM88.46 220.727v19.839a2.296 2.296 0 1 0 4.59 0v-19.84a2.296 2.296 0 1 0-4.59 0zm0 35.712v7.198a2.295 2.295 0 1 0 4.59 0v-7.198a2.296 2.296 0 1 0-4.59 0zM493.587 220.727v19.839a2.296 2.296 0 1 0 4.59 0v-19.84a2.297 2.297 0 1 0-4.59 0zm0 35.712v7.198a2.295 2.295 0 1 0 4.59 0v-7.198a2.297 2.297 0 1 0-4.59 0z"/>
        <path fill="#243A63" d="M90.755 222.663h16.73a1.937 1.937 0 0 0 0-3.873h-16.73a1.936 1.936 0 1 0 0 3.873zm30.115 0h16.73a1.937 1.937 0 0 0 0-3.873h-16.73a1.936 1.936 0 1 0 0 3.873zm33.46 0h13.384a1.936 1.936 0 1 0 0-3.873H154.33a1.936 1.936 0 1 0 0 3.873zm30.113 0h16.73a1.936 1.936 0 1 0 0-3.873h-16.73a1.936 1.936 0 1 0 0 3.873zm30.114 0h16.732a1.937 1.937 0 0 0 0-3.873h-16.732a1.936 1.936 0 1 0 0 3.873zm33.461 0h13.383a1.937 1.937 0 0 0 0-3.873h-13.383a1.936 1.936 0 1 0 0 3.873zm30.114 0h16.73a1.937 1.937 0 0 0 0-3.873h-16.73a1.936 1.936 0 1 0 0 3.873zm30.115 0h16.73a1.937 1.937 0 0 0 0-3.873h-16.73a1.936 1.936 0 1 0 0 3.873zm33.459 0h13.385a1.937 1.937 0 0 0 0-3.873h-13.385a1.936 1.936 0 1 0 0 3.873zm30.114 0h16.73a1.936 1.936 0 1 0 0-3.873h-16.73a1.936 1.936 0 1 0 0 3.873zm30.114 0h16.73a1.936 1.936 0 1 0 0-3.873h-16.73a1.936 1.936 0 1 0 0 3.873zm33.461 0h13.383a1.937 1.937 0 0 0 0-3.873h-13.383a1.936 1.936 0 1 0 0 3.873zm30.113 0h16.731a1.937 1.937 0 0 0 0-3.873h-16.731a1.936 1.936 0 1 0 0 3.873zm30.114 0h.26a1.937 1.937 0 0 0 0-3.873h-.26a1.936 1.936 0 1 0 0 3.873z"/>
        <path fill="#F3F2ED" d="M355.086 131.378c-1.09 0-111.17-.455-117.382-.622l-.133.003-.16-.013c-19.715-2.09-34.583-18.635-34.583-38.484 0-11.042 4.637-21.395 12.795-28.737a25.17 25.17 0 0 1-3.204-12.327c0-13.945 11.345-25.29 25.29-25.29 1.642 0 3.281.159 4.885.475C254.882 11.503 272.872 3 292.203 3c28.358 0 53.394 18.66 61.578 45.63h.025c13.946 0 25.294 11.346 25.294 25.293 0 3.109-.557 6.134-1.662 9.013a29.986 29.986 0 0 1 6.376 18.477c0 15.911-12.411 29.045-28.273 29.952l-.153.01-.302.003"/>
        <path fill="#243A63" d="M292.203.486c-19.597 0-37.87 8.41-50.603 23.183a27.833 27.833 0 0 0-3.891-.273c-15.33 0-27.801 12.472-27.801 27.802 0 4.119.895 8.126 2.617 11.795-7.806 7.713-12.208 18.162-12.208 29.27 0 19.6 13.615 36.175 32.335 40.252v.754l5.024.003v-.01c8.334.192 116.33.63 117.41.63l.185-.002v.001h5.025l.003-.612c14.925-3.015 26.025-16.2 26.025-31.866a32.478 32.478 0 0 0-6.07-18.905 27.54 27.54 0 0 0 1.357-8.585c0-14.717-11.492-26.799-25.973-27.746C346.604 19.089 321.06.487 292.203.487m0 5.026c28.574 0 52.612 19.382 59.71 45.713a22.825 22.825 0 0 1 1.893-.083c12.58 0 22.78 10.196 22.78 22.78 0 3.369-.739 6.564-2.051 9.441a27.382 27.382 0 0 1 6.763 18.05c0 14.68-11.515 26.674-26.004 27.448v.003h-.023l-.185.001c-5.168 0-116.152-.492-117.382-.62h-.028v-.002c-18.175-1.923-32.336-17.3-32.336-35.982 0-11.419 5.29-21.592 13.555-28.223a22.663 22.663 0 0 1-3.962-12.84c0-12.58 10.197-22.778 22.776-22.778 2.024 0 3.985.266 5.855.763 11.32-14.41 28.892-23.671 48.639-23.671"/>
        <path fill="#DBDAD6" d="M355.14 128.866c-1.922 0-24.182-.092-48.813-.208-4.57-.02-9.228-.043-13.848-.066v-12.069c.783.04 1.57.06 2.36.06 25.062 0 45.452-20.39 45.452-45.453 0-25.059-20.39-45.445-45.452-45.445-.79 0-1.577.02-2.36.06V5.519c19.535.085 36.924 9.223 48.197 23.44a61.648 61.648 0 0 1 11.237 22.267 22.825 22.825 0 0 1 1.893-.083c12.58 0 22.78 10.196 22.78 22.78 0 3.369-.739 6.564-2.051 9.441a27.382 27.382 0 0 1 6.763 18.05c0 14.68-11.515 26.674-26.004 27.448v.003h-.023l-.115.001h-.017"/>
        <path fill="#20345A" d="M355.156 128.866l.115-.001h.023v-.003c14.489-.774 26.004-12.768 26.004-27.449 0 14.681-11.515 26.675-26.004 27.449v.003h-.023l-.115.001M351.913 51.226"/>
        <path fill="#243A63" d="M223.104 69.41c-2.225 1.351-4.222 3.517-5.938 6.202-1.71 2.689-3.12 5.91-4.01 9.414a2.01 2.01 0 0 0 3.896.99c.782-3.089 2.04-5.945 3.505-8.245 1.459-2.303 3.147-4.037 4.623-4.919a2.01 2.01 0 1 0-2.075-3.442zm-10.087 30.362c1.435 5.548 4.89 10.88 10.961 14.782a2.01 2.01 0 0 0 2.778-.6 2.01 2.01 0 0 0-.6-2.777c-5.253-3.405-8.018-7.753-9.25-12.42a2.01 2.01 0 0 0-3.887 1.015h-.002z"/>
        <path fill="#F9D94E" d="M294.84 114.572c-23.955 0-43.44-19.488-43.44-43.442 0-23.95 19.485-43.436 43.44-43.436 23.952 0 43.438 19.485 43.438 43.436 0 23.954-19.486 43.442-43.439 43.442"/>
        <path fill="#243A63" d="M294.84 25.685c-25.063 0-45.449 20.386-45.449 45.445 0 25.064 20.386 45.453 45.448 45.453s45.452-20.39 45.452-45.453c0-25.059-20.39-45.445-45.452-45.445m0 4.019c22.88 0 41.428 18.547 41.428 41.426 0 22.883-18.548 41.432-41.428 41.432S253.41 94.013 253.41 71.13c0-22.879 18.55-41.426 41.43-41.426"/>
        <path fill="#F3F2ED" d="M293.125 86.532v5.356a1.714 1.714 0 0 0 3.428 0v-5.356a1.713 1.713 0 1 0-3.428 0M293.125 50.378v5.874a1.713 1.713 0 1 0 3.428 0v-5.874a1.714 1.714 0 0 0-3.428 0"/>
        <path fill="#F0B938" d="M311.73 45.972a30.246 30.246 0 0 1 4.536 3.733l-4.536-3.733"/>
        <path fill="#FFF" d="M299.9 82.934c-6.12 3.037-13.544.537-16.578-5.584-3.04-6.12-.54-13.546 5.579-16.585 6.124-3.037 13.544-.538 16.587 5.584 3.031 6.12.538 13.542-5.589 16.585zm11.723-19.629a19.707 19.707 0 0 0-1.378-2.339l2.845-6.332a25.327 25.327 0 0 0-10.057-6.68l-4.737 5.076a19.162 19.162 0 0 0-5.4-.346l-4.061-5.629a25.575 25.575 0 0 0-5.732 2.033 25.27 25.27 0 0 0-5.083 3.336l2.034 6.639a19.327 19.327 0 0 0-2.997 4.507l-6.899.702a25.27 25.27 0 0 0-.77 12.05l6.766 1.564a18.97 18.97 0 0 0 2.407 4.847l-2.848 6.333a25.356 25.356 0 0 0 10.063 6.677l4.733-5.076c1.762.364 3.58.487 5.4.345l4.058 5.63a25.398 25.398 0 0 0 5.73-2.028 25.363 25.363 0 0 0 5.084-3.339l-2.03-6.638a19.257 19.257 0 0 0 2.997-4.508l6.9-.704a25.372 25.372 0 0 0 .768-12.052l-6.762-1.562a20.959 20.959 0 0 0-1.031-2.506z"/>
        <path fill="#000" d="M294.392 60.415c-1.768 0-3.474.402-5.072 1.194a11.357 11.357 0 0 0-5.75 6.594 11.352 11.352 0 0 0 .597 8.727 11.362 11.362 0 0 0 10.244 6.353c1.767 0 3.473-.402 5.07-1.194 5.642-2.803 7.958-9.676 5.161-15.32a11.378 11.378 0 0 0-10.25-6.354zm.019 24.754c-5.1 0-9.671-2.836-11.934-7.4a13.224 13.224 0 0 1-.694-10.167 13.233 13.233 0 0 1 6.7-7.682 13.185 13.185 0 0 1 5.91-1.39c5.095 0 9.67 2.835 11.94 7.4 3.257 6.577.56 14.583-6.013 17.849a13.183 13.183 0 0 1-5.91 1.39zm1.498 4.9c.302 0 .587.144.765.39l3.688 5.119a24.485 24.485 0 0 0 4.917-1.808 24.564 24.564 0 0 0 4.416-2.822l-1.845-6.036a.945.945 0 0 1 .196-.902 18.295 18.295 0 0 0 2.85-4.287.942.942 0 0 1 .756-.532l6.274-.64c.962-3.369 1.19-6.94.664-10.402l-6.148-1.42a.938.938 0 0 1-.681-.616 19.837 19.837 0 0 0-.986-2.393c-.362-.731-.802-1.48-1.309-2.223a.944.944 0 0 1-.082-.918l2.587-5.757a24.515 24.515 0 0 0-8.68-5.763l-4.306 4.614a.934.934 0 0 1-.883.28 18.338 18.338 0 0 0-5.135-.33.938.938 0 0 1-.836-.388l-3.691-5.116a24.662 24.662 0 0 0-4.917 1.814 24.318 24.318 0 0 0-4.416 2.818l1.848 6.036a.944.944 0 0 1-.198.904 18.403 18.403 0 0 0-2.85 4.286.942.942 0 0 1-.755.531l-6.272.639a24.44 24.44 0 0 0-.665 10.398l6.153 1.422a.94.94 0 0 1 .68.62 18.044 18.044 0 0 0 2.29 4.612.945.945 0 0 1 .084.92l-2.59 5.76a24.543 24.543 0 0 0 8.684 5.76l4.303-4.615a.942.942 0 0 1 .88-.28c1.69.348 3.413.462 5.136.327l.074-.002zm4.058 7.516a.945.945 0 0 1-.766-.392l-3.752-5.208a20.307 20.307 0 0 1-4.607-.293l-4.377 4.694a.935.935 0 0 1-1.009.243 26.418 26.418 0 0 1-10.437-6.923.944.944 0 0 1-.167-1.026l2.635-5.857a20.066 20.066 0 0 1-1.149-2.01 20.359 20.359 0 0 1-.903-2.126l-6.26-1.446a.943.943 0 0 1-.715-.753 26.3 26.3 0 0 1 .799-12.5.944.944 0 0 1 .804-.655l6.38-.65A20.254 20.254 0 0 1 279 58.84l-1.88-6.14a.942.942 0 0 1 .292-.995 26.27 26.27 0 0 1 5.274-3.46 26.658 26.658 0 0 1 5.942-2.109c.369-.083.75.061.972.368l3.757 5.206a20.133 20.133 0 0 1 4.607.295l4.38-4.694a.946.946 0 0 1 1.01-.243 26.393 26.393 0 0 1 10.432 6.929c.254.276.32.68.165 1.025l-2.631 5.857c.433.669.82 1.343 1.149 2.008.337.689.64 1.4.903 2.123l6.257 1.445c.369.086.65.381.716.754.742 4.15.467 8.473-.795 12.499a.943.943 0 0 1-.804.657l-6.383.65a20.288 20.288 0 0 1-2.556 3.847L311.683 91a.942.942 0 0 1-.293.995 26.376 26.376 0 0 1-5.272 3.463 26.5 26.5 0 0 1-5.944 2.104.97.97 0 0 1-.207.023z"/>
        <path fill="#FFF" d="M288.901 60.765c-6.12 3.04-8.62 10.465-5.579 16.585 3.034 6.121 10.458 8.62 16.577 5.584 6.127-3.043 8.62-10.465 5.589-16.585-3.043-6.122-10.463-8.62-16.587-5.584"/>
        <path fill="#000" d="M294.392 60.415c-1.768 0-3.474.402-5.072 1.194a11.357 11.357 0 0 0-5.75 6.594 11.352 11.352 0 0 0 .597 8.727 11.362 11.362 0 0 0 10.244 6.353c1.767 0 3.473-.402 5.07-1.194 5.642-2.803 7.958-9.676 5.161-15.32a11.378 11.378 0 0 0-10.25-6.354zm.019 24.754c-5.1 0-9.671-2.836-11.934-7.4a13.224 13.224 0 0 1-.694-10.167 13.233 13.233 0 0 1 6.7-7.682 13.185 13.185 0 0 1 5.91-1.39c5.095 0 9.67 2.835 11.94 7.4 3.257 6.577.56 14.583-6.013 17.849a13.186 13.186 0 0 1-5.91 1.39z"/>
        <path fill="#F3F2ED" d="M171.614 384.93a80.032 80.032 0 0 1-3.36 10.397 1.386 1.386 0 1 0 2.575 1.031 82.526 82.526 0 0 0 3.475-10.758 1.388 1.388 0 0 0-2.692-.67h.002m-8.106 20.236a80.592 80.592 0 0 1-4.733 7.348 1.387 1.387 0 0 0 2.247 1.626 83.308 83.308 0 0 0 4.895-7.602 1.387 1.387 0 0 0-2.41-1.373v.001m-11.719 15.742a80.688 80.688 0 0 1-8.053 7.376 1.386 1.386 0 1 0 1.73 2.167 83.6 83.6 0 0 0 8.33-7.627 1.386 1.386 0 1 0-2.007-1.916m-15.165 12.45a80.366 80.366 0 0 1-9.591 5.208 1.386 1.386 0 1 0 1.155 2.52 82.828 82.828 0 0 0 9.92-5.386 1.386 1.386 0 1 0-1.486-2.341h.002m-19.807 9.06a79.961 79.961 0 0 1-8.491 2.055 1.386 1.386 0 1 0 .504 2.726 82.136 82.136 0 0 0 8.785-2.125 1.387 1.387 0 0 0-.798-2.656m-19.34 3.306a81.324 81.324 0 0 1-10.919-.216 1.388 1.388 0 0 0-1.502 1.26c-.065.764.5 1.437 1.262 1.502a85.22 85.22 0 0 0 11.29.224 1.386 1.386 0 0 0-.13-2.77m-19.57-1.446a79.997 79.997 0 0 1-10.548-2.854 1.385 1.385 0 1 0-.905 2.62A82.185 82.185 0 0 0 77.368 447a1.387 1.387 0 0 0 .539-2.72m-20.604-7.122a79.853 79.853 0 0 1-7.566-4.375 1.389 1.389 0 0 0-1.517 2.323 82.81 82.81 0 0 0 7.829 4.525 1.387 1.387 0 0 0 1.254-2.473m-16.285-10.954a80.782 80.782 0 0 1-7.752-7.694 1.386 1.386 0 0 0-2.081 1.832c2.49 2.83 5.17 5.49 8.015 7.957.579.502 1.454.44 1.958-.138a1.39 1.39 0 0 0-.14-1.957m-13.16-14.556a80.359 80.359 0 0 1-5.66-9.332 1.388 1.388 0 0 0-2.465 1.274 83.146 83.146 0 0 0 5.857 9.653 1.386 1.386 0 0 0 2.27-1.595h-.002m-10.003-19.35a79.718 79.718 0 0 1-2.46-8.383 1.386 1.386 0 1 0-2.7.634 83.11 83.11 0 0 0 2.547 8.675 1.387 1.387 0 0 0 2.615-.926h-.002m-4.228-19.157a81.203 81.203 0 0 1-.3-10.919 1.386 1.386 0 1 0-2.77-.108 84.493 84.493 0 0 0 .31 11.289 1.385 1.385 0 0 0 1.51 1.249 1.388 1.388 0 0 0 1.251-1.513l-.001.002m.516-19.618a79.85 79.85 0 0 1 2.341-10.664 1.385 1.385 0 1 0-2.661-.778 82.433 82.433 0 0 0-2.422 11.034 1.386 1.386 0 1 0 2.742.408m6.118-20.916a79.812 79.812 0 0 1 4.007-7.767 1.387 1.387 0 0 0-2.393-1.404 83.35 83.35 0 0 0-4.145 8.037 1.386 1.386 0 1 0 2.531 1.134m10.162-16.791a80.878 80.878 0 0 1 7.315-8.109 1.386 1.386 0 1 0-1.928-1.993 83.611 83.611 0 0 0-7.567 8.388 1.386 1.386 0 1 0 2.18 1.714m13.914-13.838a80.645 80.645 0 0 1 9.05-6.102 1.386 1.386 0 1 0-1.389-2.4 83.268 83.268 0 0 0-9.363 6.312 1.388 1.388 0 0 0 1.702 2.19m18.842-10.919a79.711 79.711 0 0 1 8.254-2.864 1.387 1.387 0 0 0-.764-2.666 82.573 82.573 0 0 0-8.541 2.965 1.385 1.385 0 1 0 1.052 2.565h-.001m18.93-5.148a81.228 81.228 0 0 1 10.888-.817 1.386 1.386 0 1 0-.02-2.773c-3.822.029-7.581.316-11.262.844a1.387 1.387 0 0 0 .393 2.746h.002m19.618-.416c3.665.367 7.26.981 10.764 1.823a1.386 1.386 0 0 0 .648-2.695 82.947 82.947 0 0 0-11.136-1.888 1.388 1.388 0 0 0-.276 2.76m21.187 5.101a80.06 80.06 0 0 1 7.952 3.626 1.386 1.386 0 1 0 1.287-2.456 82.717 82.717 0 0 0-8.229-3.753 1.387 1.387 0 1 0-1.01 2.583m17.26 9.341a80.742 80.742 0 0 1 8.45 6.922 1.386 1.386 0 0 0 1.9-2.022 83.636 83.636 0 0 0-8.743-7.158 1.385 1.385 0 1 0-1.606 2.258m14.488 13.24a80.597 80.597 0 0 1 6.529 8.75 1.388 1.388 0 0 0 2.33-1.504 83.322 83.322 0 0 0-6.754-9.05 1.387 1.387 0 1 0-2.105 1.804m11.812 18.3a80.149 80.149 0 0 1 3.258 8.106 1.385 1.385 0 0 0 1.758.866 1.384 1.384 0 0 0 .868-1.758 82.469 82.469 0 0 0-3.373-8.39 1.387 1.387 0 0 0-2.513 1.175h.002m6.056 18.66a80.555 80.555 0 0 1 1.335 10.837 1.388 1.388 0 0 0 2.768-.153 83.391 83.391 0 0 0-1.38-11.209 1.387 1.387 0 0 0-2.723.525m1.457 15.32a80.85 80.85 0 0 1-.733 10.894 1.388 1.388 0 0 0 2.75.373c.498-3.686.758-7.447.758-11.268a1.388 1.388 0 0 0-2.773 0h-.002M370.465 384.93a79.539 79.539 0 0 1-3.36 10.397 1.387 1.387 0 0 0 2.575 1.032 82.78 82.78 0 0 0 3.477-10.759 1.387 1.387 0 0 0-2.693-.67h.001m-8.106 20.236a80.926 80.926 0 0 1-4.73 7.348 1.386 1.386 0 1 0 2.244 1.626 83.323 83.323 0 0 0 4.897-7.602 1.387 1.387 0 0 0-2.411-1.373v.001m-11.72 15.742a80.51 80.51 0 0 1-8.053 7.376 1.388 1.388 0 0 0 1.732 2.167 83.78 83.78 0 0 0 8.33-7.627 1.388 1.388 0 0 0-2.009-1.916m-15.165 12.45a80.241 80.241 0 0 1-9.591 5.208 1.386 1.386 0 1 0 1.155 2.52 82.974 82.974 0 0 0 9.923-5.386 1.388 1.388 0 0 0-1.488-2.341h.001m-19.806 9.06a79.96 79.96 0 0 1-8.492 2.055 1.386 1.386 0 1 0 .505 2.726 82.325 82.325 0 0 0 8.786-2.125 1.386 1.386 0 0 0-.8-2.656m-19.338 3.306a81.38 81.38 0 0 1-10.92-.216 1.385 1.385 0 1 0-.239 2.762 85.219 85.219 0 0 0 11.289.224 1.387 1.387 0 0 0-.13-2.77m-19.57-1.446a79.906 79.906 0 0 1-10.547-2.854 1.387 1.387 0 1 0-.907 2.62A82.252 82.252 0 0 0 276.22 447a1.386 1.386 0 1 0 .54-2.72m-20.605-7.122a80.057 80.057 0 0 1-7.566-4.375 1.389 1.389 0 0 0-1.517 2.323 82.81 82.81 0 0 0 7.829 4.525 1.385 1.385 0 1 0 1.254-2.473m-16.285-10.954a80.578 80.578 0 0 1-7.75-7.694 1.388 1.388 0 0 0-1.958-.124 1.384 1.384 0 0 0-.123 1.956 83.463 83.463 0 0 0 8.015 7.957 1.386 1.386 0 1 0 1.816-2.095m-13.158-14.556a80.597 80.597 0 0 1-5.662-9.332 1.387 1.387 0 1 0-2.463 1.274 82.922 82.922 0 0 0 5.857 9.653 1.386 1.386 0 1 0 2.268-1.595m-10.004-19.35a79.718 79.718 0 0 1-2.462-8.383 1.386 1.386 0 1 0-2.7.634 82.725 82.725 0 0 0 2.55 8.675 1.387 1.387 0 0 0 2.614-.926h-.002m-4.227-19.157a80.663 80.663 0 0 1-.364-7.686c0-1.083.02-2.16.063-3.233a1.387 1.387 0 0 0-2.771-.109 84.045 84.045 0 0 0 .31 11.289 1.387 1.387 0 0 0 2.762-.263v.002m.515-19.618c.542-3.64 1.328-7.2 2.34-10.664a1.385 1.385 0 1 0-2.661-.778 82.686 82.686 0 0 0-2.422 11.034 1.386 1.386 0 1 0 2.743.408m6.118-20.916a80.174 80.174 0 0 1 4.006-7.767 1.386 1.386 0 1 0-2.392-1.404 83.362 83.362 0 0 0-4.145 8.037 1.386 1.386 0 1 0 2.53 1.134m10.162-16.791a80.894 80.894 0 0 1 7.317-8.109 1.388 1.388 0 0 0-1.93-1.993 83.81 83.81 0 0 0-7.567 8.388 1.387 1.387 0 1 0 2.18 1.714m13.914-13.838a80.517 80.517 0 0 1 9.052-6.102 1.386 1.386 0 1 0-1.39-2.4 83.416 83.416 0 0 0-9.364 6.312 1.388 1.388 0 0 0 1.702 2.19m18.842-10.919a79.844 79.844 0 0 1 8.254-2.864 1.387 1.387 0 0 0-.763-2.666 82.573 82.573 0 0 0-8.542 2.965 1.385 1.385 0 1 0 1.053 2.565h-.002m18.93-5.148c3.56-.51 7.194-.788 10.889-.817a1.385 1.385 0 0 0 1.376-1.396 1.389 1.389 0 0 0-1.398-1.377 83.81 83.81 0 0 0-11.26.844 1.386 1.386 0 1 0 .394 2.746m19.618-.416c3.666.367 7.26.981 10.764 1.823a1.386 1.386 0 0 0 .648-2.695 82.947 82.947 0 0 0-11.136-1.888 1.387 1.387 0 0 0-.276 2.76m21.187 5.101a80.06 80.06 0 0 1 7.952 3.626 1.386 1.386 0 1 0 1.287-2.456 82.717 82.717 0 0 0-8.228-3.753 1.387 1.387 0 0 0-1.01 2.583m17.26 9.341a80.742 80.742 0 0 1 8.45 6.922 1.388 1.388 0 0 0 1.898-2.022 83.617 83.617 0 0 0-8.74-7.158 1.387 1.387 0 1 0-1.608 2.258m14.488 13.24a80.386 80.386 0 0 1 6.529 8.75 1.388 1.388 0 0 0 2.33-1.504 83.11 83.11 0 0 0-6.754-9.05 1.387 1.387 0 0 0-2.105 1.805m11.812 18.298a80.148 80.148 0 0 1 3.259 8.107 1.386 1.386 0 0 0 2.625-.892 82.469 82.469 0 0 0-3.373-8.39 1.388 1.388 0 0 0-2.513 1.175h.002m6.056 18.66a80.556 80.556 0 0 1 1.336 10.837 1.386 1.386 0 0 0 2.768-.153 83.13 83.13 0 0 0-1.381-11.209 1.387 1.387 0 0 0-2.723.525m1.457 15.32c0 3.695-.248 7.333-.73 10.894a1.386 1.386 0 1 0 2.749.374 84 84 0 0 0 .756-11.269 1.387 1.387 0 1 0-2.773 0h-.002M574.192 384.93a79.539 79.539 0 0 1-3.36 10.397 1.388 1.388 0 0 0 2.575 1.031 82.532 82.532 0 0 0 3.477-10.758 1.387 1.387 0 0 0-2.692-.67m-8.107 20.236a80.576 80.576 0 0 1-4.73 7.348 1.386 1.386 0 1 0 2.246 1.626 83.308 83.308 0 0 0 4.895-7.602 1.388 1.388 0 0 0-2.41-1.373v.001m-11.718 15.742a80.688 80.688 0 0 1-8.053 7.376 1.387 1.387 0 1 0 1.73 2.167 83.6 83.6 0 0 0 8.329-7.627 1.388 1.388 0 0 0-2.006-1.916m-15.167 12.45a80.24 80.24 0 0 1-9.592 5.208 1.386 1.386 0 1 0 1.155 2.521 82.724 82.724 0 0 0 9.923-5.387 1.387 1.387 0 0 0-1.486-2.341m-19.807 9.06a79.961 79.961 0 0 1-8.491 2.055 1.386 1.386 0 1 0 .505 2.726 82.23 82.23 0 0 0 8.786-2.125 1.386 1.386 0 1 0-.798-2.656h-.002m-19.338 3.306a81.38 81.38 0 0 1-10.92-.216 1.387 1.387 0 0 0-.24 2.762 85.289 85.289 0 0 0 11.29.224 1.387 1.387 0 0 0-.13-2.77m-19.57-1.446a79.861 79.861 0 0 1-10.548-2.854 1.387 1.387 0 1 0-.906 2.62A82.208 82.208 0 0 0 479.947 447a1.387 1.387 0 0 0 .54-2.72m-20.606-7.122a80.057 80.057 0 0 1-7.566-4.375 1.386 1.386 0 1 0-1.516 2.323 82.58 82.58 0 0 0 7.827 4.525 1.385 1.385 0 0 0 1.864-.608 1.389 1.389 0 0 0-.61-1.865m-16.284-10.954a80.578 80.578 0 0 1-7.75-7.694 1.388 1.388 0 0 0-2.082 1.832 83.463 83.463 0 0 0 8.016 7.957 1.386 1.386 0 1 0 1.816-2.095m-13.159-14.556a80.359 80.359 0 0 1-5.66-9.332 1.387 1.387 0 1 0-2.464 1.274 82.922 82.922 0 0 0 5.856 9.653c.44.627 1.305.777 1.932.336.627-.44.778-1.304.338-1.931h-.002m-10.002-19.35a79.718 79.718 0 0 1-2.461-8.383 1.388 1.388 0 0 0-2.702.634 82.725 82.725 0 0 0 2.549 8.675 1.385 1.385 0 0 0 1.77.843 1.384 1.384 0 0 0 .844-1.77m-4.229-19.156a80.665 80.665 0 0 1-.362-7.686c0-1.083.02-2.16.063-3.233a1.387 1.387 0 0 0-2.771-.108 84.484 84.484 0 0 0 .308 11.289 1.387 1.387 0 1 0 2.762-.264v.002m.517-19.618c.54-3.64 1.327-7.2 2.34-10.664a1.385 1.385 0 1 0-2.661-.778 82.686 82.686 0 0 0-2.423 11.034 1.386 1.386 0 1 0 2.744.408m6.116-20.916a79.824 79.824 0 0 1 4.008-7.767 1.387 1.387 0 0 0-2.393-1.404 82.984 82.984 0 0 0-4.144 8.037 1.385 1.385 0 1 0 2.53 1.134M433 315.815a80.894 80.894 0 0 1 7.318-8.109 1.388 1.388 0 0 0-1.929-1.993 83.825 83.825 0 0 0-7.568 8.388 1.387 1.387 0 0 0 2.18 1.714m13.916-13.838a80.35 80.35 0 0 1 9.05-6.102 1.386 1.386 0 0 0-1.39-2.4 83.248 83.248 0 0 0-9.363 6.312 1.388 1.388 0 0 0 1.703 2.19m18.841-10.919a79.711 79.711 0 0 1 8.254-2.864 1.387 1.387 0 0 0-.765-2.666 82.545 82.545 0 0 0-8.54 2.965 1.386 1.386 0 1 0 1.051 2.565m18.93-5.148c3.559-.51 7.193-.788 10.887-.817a1.388 1.388 0 0 0-.021-2.773 83.81 83.81 0 0 0-11.26.844 1.386 1.386 0 1 0 .393 2.746m19.618-.416a80.45 80.45 0 0 1 10.766 1.823 1.386 1.386 0 1 0 .647-2.695 82.903 82.903 0 0 0-11.136-1.888 1.386 1.386 0 0 0-.277 2.76m21.188 5.101a80.06 80.06 0 0 1 7.952 3.626 1.385 1.385 0 1 0 1.287-2.456 82.69 82.69 0 0 0-8.227-3.753 1.387 1.387 0 1 0-1.01 2.583h-.002m17.26 9.341a80.742 80.742 0 0 1 8.45 6.922 1.388 1.388 0 0 0 1.899-2.022 83.617 83.617 0 0 0-8.74-7.158 1.385 1.385 0 1 0-1.607 2.258h-.001m14.489 13.24a80.81 80.81 0 0 1 6.529 8.75 1.385 1.385 0 1 0 2.328-1.504 83.307 83.307 0 0 0-6.752-9.05 1.387 1.387 0 1 0-2.105 1.804m11.81 18.3a79.77 79.77 0 0 1 3.26 8.106 1.387 1.387 0 0 0 2.626-.892 82.469 82.469 0 0 0-3.372-8.39 1.387 1.387 0 0 0-2.513 1.175m6.056 18.66a80.294 80.294 0 0 1 1.335 10.837 1.387 1.387 0 0 0 2.77-.153 83.13 83.13 0 0 0-1.383-11.209 1.386 1.386 0 0 0-2.721.525h-.001m1.459 15.32c0 3.695-.25 7.333-.733 10.894a1.387 1.387 0 1 0 2.749.373 84 84 0 0 0 .757-11.268 1.386 1.386 0 1 0-2.773 0"/>
        <path fill="#65C3D5" d="M35.678 409.457c-8.589 0-15.58-6.989-15.58-15.58v-66.78c0-8.59 6.991-15.58 15.58-15.58h110.158c8.59 0 15.576 6.99 15.576 15.58v66.78c0 8.591-6.986 15.58-15.576 15.58H35.678"/>
        <path fill="#243A63" d="M145.836 309.082H35.678c-9.934 0-18.016 8.081-18.016 18.015v66.78c0 9.935 8.082 18.017 18.016 18.017h110.158c9.934 0 18.013-8.082 18.013-18.017v-66.78c0-9.934-8.08-18.015-18.013-18.015m0 4.873c7.227 0 13.14 5.914 13.14 13.142v66.78c0 7.228-5.913 13.143-13.14 13.143H35.678c-7.227 0-13.142-5.915-13.142-13.143v-66.78c0-7.228 5.915-13.142 13.142-13.142h110.158"/>
        <path fill="#F9D94E" d="M21.506 417.718c-10.454 0-18.96-8.506-18.96-18.96a2.438 2.438 0 0 1 2.436-2.437H176.53a2.439 2.439 0 0 1 2.437 2.437c0 10.454-8.508 18.96-18.964 18.96H21.506"/>
        <path fill="#243A63" d="M176.538 393.884H4.982a4.873 4.873 0 0 0-4.873 4.874c0 11.797 9.6 21.398 21.397 21.398h138.497c11.725 0 21.276-9.476 21.399-21.171l.006-.227a4.87 4.87 0 0 0-4.87-4.874m-.008 4.874c0 9.086-7.436 16.524-16.527 16.524H21.506c-9.088 0-16.524-7.438-16.524-16.524h171.556-.008"/>
        <path fill="#F3F2ED" d="M32.304 387.806H149.21v-61.929H32.304z"/>
        <g transform="translate(92.6 312.538)">
            <mask id="b" fill="#fff">
                <use xlink:href="#a"/>
            </mask>
            <path fill="#5FB3C3" d="M1.03 81.346h65.346V1.416H1.03z" mask="url(#b)"/>
        </g>
        <path fill="#20345A" d="M158.975 393.884v-66.787 66.787"/>
        <path fill="#DAAA35" d="M160.003 415.282H93.63v-16.524h82.901c0 9.086-7.436 16.524-16.527 16.524"/>
        <path fill="#20345A" d="M160.003 415.282H93.63h66.374c9.091 0 16.527-7.438 16.527-16.524 0 9.086-7.436 16.524-16.527 16.524m-1.977-16.524H93.63v-4.874h65.346c0 1.72-.336 3.364-.949 4.874"/>
        <path fill="#DBDAD6" d="M93.63 387.806h55.58v-61.929H93.63z"/>
        <path fill="#243A63" d="M36.866 331.492v8.385a.97.97 0 0 0 1.941 0v-8.385a.97.97 0 1 0-1.941 0zm0 15.093v8.386a.97.97 0 0 0 1.941 0v-8.386a.97.97 0 1 0-1.941 0zm0 16.772v6.708a.97.97 0 0 0 1.941 0v-6.708a.97.97 0 1 0-1.941 0z"/>
        <path fill="#65C3D5" d="M256.887 437.162c-4.304 0-7.803-3.501-7.803-7.804v-133.03c0-4.303 3.5-7.803 7.803-7.803h70.494c4.303 0 7.8 3.5 7.8 7.803v133.03c0 4.303-3.497 7.804-7.8 7.804h-70.494"/>
        <path fill="#243A63" d="M327.38 286.435h-70.493c-5.454 0-9.894 4.438-9.894 9.893v133.03c0 5.456 4.44 9.895 9.894 9.895h70.494c5.457 0 9.892-4.439 9.892-9.895v-133.03c0-5.455-4.435-9.893-9.892-9.893m0 4.181a5.713 5.713 0 0 1 5.712 5.712v133.03a5.713 5.713 0 0 1-5.712 5.713h-70.494a5.713 5.713 0 0 1-5.712-5.713v-133.03a5.713 5.713 0 0 1 5.712-5.712h70.494"/>
        <path fill="#F3F2ED" d="M326.412 412.565c0 2.584-2.142 4.677-4.782 4.677h-58.994c-2.64 0-4.781-2.093-4.781-4.677V303.679c0-2.583 2.141-4.677 4.78-4.677h58.995c2.64 0 4.782 2.094 4.782 4.677v108.886"/>
        <path fill="#F9D94E" d="M280.9 431.336c-2.446 0-4.433-1.731-4.433-3.861 0-2.125 1.987-3.857 4.432-3.857h22.468c2.446 0 4.435 1.732 4.435 3.857 0 2.13-1.989 3.861-4.435 3.861h-22.468"/>
        <path fill="#243A63" d="M303.367 422.422h-22.468c-3.103 0-5.629 2.268-5.629 5.053 0 2.79 2.526 5.059 5.63 5.059h22.467c3.104 0 5.629-2.27 5.629-5.06 0-2.784-2.525-5.052-5.63-5.052m0 2.393c1.79 0 3.238 1.19 3.238 2.66 0 1.472-1.447 2.666-3.237 2.666h-22.468c-1.787 0-3.236-1.194-3.236-2.666 0-1.47 1.45-2.66 3.236-2.66h22.468"/>
        <path fill="#5FB3C3" d="M327.38 435.071h-34.903v-2.537h10.89c3.104 0 5.629-2.27 5.629-5.06 0-2.784-2.525-5.052-5.63-5.052h-10.889v-5.18h29.153c2.64 0 4.782-2.093 4.782-4.677V303.679c0-2.583-2.142-4.677-4.782-4.677h-29.153v-8.386h34.904a5.713 5.713 0 0 1 5.712 5.712v133.03a5.713 5.713 0 0 1-5.712 5.713"/>
        <path fill="#DBDAD6" d="M321.63 417.242h-29.153v-118.24h29.153c2.64 0 4.782 2.094 4.782 4.677v108.886c0 2.584-2.142 4.677-4.782 4.677"/>
        <path fill="#DAAA35" d="M303.367 430.14h-10.89v-5.325h10.89c1.79 0 3.237 1.19 3.237 2.66 0 1.472-1.447 2.666-3.237 2.666"/>
        <path fill="#20345A" d="M303.367 432.534h-10.89v-2.393h10.89c1.79 0 3.237-1.194 3.237-2.666 0-1.47-1.447-2.66-3.237-2.66h-10.89v-2.393h10.89c3.104 0 5.629 2.268 5.629 5.053 0 2.79-2.525 5.059-5.63 5.059"/>
        <path fill="#243A63" d="M260.786 314.258v10.332a1.195 1.195 0 1 0 2.391 0v-10.332a1.196 1.196 0 0 0-2.391 0zm0 18.598v10.332a1.195 1.195 0 1 0 2.391 0v-10.332a1.196 1.196 0 0 0-2.391 0zm0 20.664v8.266a1.195 1.195 0 1 0 2.391 0v-8.266a1.196 1.196 0 0 0-2.391 0zm0 18.598v10.332a1.195 1.195 0 1 0 2.391 0v-10.332a1.196 1.196 0 1 0-2.391 0zm0 18.596v10.333a1.196 1.196 0 0 0 2.39 0v-10.333a1.195 1.195 0 1 0-2.39 0z"/>
        <path fill="#F9D94E" d="M475.437 425.611l6.31-26.38h28.384l6.188 26.56-40.882-.18"/>
        <path fill="#243A63" d="M512.064 396.794h-32.24l-7.469 31.241 6.146.028 34.725.15 6.168.029-7.33-31.448m-3.868 4.873l5.053 21.673-34.725-.15 5.146-21.523h24.526"/>
        <path fill="#65C3D5" d="M422.844 407.533c-4.134 0-7.499-3.364-7.499-7.499v-82.622c0-4.137 3.365-7.501 7.499-7.501h146.08c4.136 0 7.5 3.364 7.5 7.5v82.623c0 4.135-3.364 7.5-7.5 7.5h-146.08"/>
        <path fill="#243A63" d="M568.923 307.474H422.844c-5.48 0-9.936 4.458-9.936 9.938v82.622c0 5.478 4.456 9.936 9.936 9.936h146.08c5.48 0 9.937-4.458 9.937-9.936v-82.622c0-5.48-4.458-9.938-9.938-9.938m0 4.874c2.8 0 5.064 2.27 5.064 5.064v82.622a5.061 5.061 0 0 1-5.064 5.063H422.844a5.06 5.06 0 0 1-5.062-5.063v-82.622a5.062 5.062 0 0 1 5.062-5.064h146.08"/>
        <path fill="#F3F2ED" d="M563.072 389.377c0 2.19-1.948 3.964-4.352 3.964H433.05c-2.406 0-4.355-1.774-4.355-3.964v-64.66c0-2.186 1.95-3.962 4.355-3.962H558.72c2.404 0 4.352 1.776 4.352 3.962v64.66"/>
        <path fill="#F0B938" d="M536.925 402.75a2.773 2.773 0 0 1 0-5.543h21.15a2.772 2.772 0 0 1 0 5.544h-21.15"/>
        <path fill="#243A63" d="M558.075 396.126h-21.15a3.856 3.856 0 0 0-3.852 3.853 3.857 3.857 0 0 0 3.852 3.854h21.15a3.858 3.858 0 0 0 3.853-3.854 3.857 3.857 0 0 0-3.853-3.853m0 2.165a1.688 1.688 0 1 1 0 3.376h-21.15a1.687 1.687 0 1 1 0-3.376h21.15"/>
        <path fill="#65C3D5" d="M466.502 429.103c-3.536 0-6.366-2.507-6.44-5.704l-.056-2.496h71.753l-.054 2.492c-.073 3.2-2.9 5.708-6.438 5.708h-58.765"/>
        <path fill="#243A63" d="M534.252 418.467h-76.74l.114 4.987c.108 4.534 4.004 8.085 8.876 8.085h58.765c4.874 0 8.77-3.553 8.872-8.088l.113-4.984m-4.984 4.873c-.042 1.842-1.814 3.326-4.001 3.326h-58.765c-2.19 0-3.959-1.484-4.003-3.326h66.77M432.842 328.743v12.473a1.444 1.444 0 1 0 2.888 0v-12.473a1.444 1.444 0 1 0-2.888 0zm0 22.453v12.473a1.444 1.444 0 1 0 2.888 0v-12.473a1.444 1.444 0 1 0-2.888 0zm0 24.948v8.02a1.444 1.444 0 1 0 2.888 0v-8.02a1.444 1.444 0 1 0-2.888 0z"/>
        <path fill="#DAAA35" d="M512.111 418.467h-15.906v-8.497h13.926l1.98 8.497"/>
        <path fill="#20345A" d="M512.111 418.467l-1.98-8.497h.002l1.978 8.497"/>
        <path fill="#5FB3C3" d="M568.923 405.097h-72.718V393.34h62.515c2.404 0 4.352-1.774 4.352-3.964v-64.66c0-2.186-1.948-3.962-4.352-3.962h-62.515v-8.407h72.718c2.8 0 5.064 2.27 5.064 5.064v82.622a5.061 5.061 0 0 1-5.064 5.063m-31.998-8.971a3.856 3.856 0 0 0-3.852 3.853 3.857 3.857 0 0 0 3.852 3.854h21.15a3.858 3.858 0 0 0 3.853-3.854 3.857 3.857 0 0 0-3.853-3.853h-21.15"/>
        <path fill="#20345A" d="M510.133 409.97h-13.928v-4.873h72.718c2.8 0 5.064-2.267 5.064-5.063v-82.622 82.622a5.061 5.061 0 0 1-5.064 5.063h-59.928l1.138 4.873"/>
        <path fill="#DBDAD6" d="M558.72 393.341h-62.515v-72.586h62.515c2.404 0 4.352 1.776 4.352 3.962v64.66c0 2.19-1.948 3.964-4.352 3.964"/>
        <path fill="#DAAA35" d="M558.075 401.667h-21.15a1.687 1.687 0 1 1 0-3.376h21.15a1.688 1.688 0 1 1 0 3.376"/>
        <path fill="#20345A" d="M558.075 403.833h-21.15a3.857 3.857 0 0 1-3.852-3.854 3.856 3.856 0 0 1 3.852-3.853h21.15a3.857 3.857 0 0 1 3.853 3.853 3.858 3.858 0 0 1-3.853 3.854m-21.15-5.542a1.687 1.687 0 0 0 0 3.376h21.15a1.688 1.688 0 1 0 0-3.376h-21.15M513.249 423.34l-17.044-.071v-4.802h15.906l1.138 4.873"/>
        <path fill="#5FB3C3" d="M525.267 426.666h-29.062v-3.326h33.063c-.042 1.842-1.814 3.326-4.001 3.326"/>
    </g>
</svg>
