<svg xmlns="http://www.w3.org/2000/svg" xmlns:xlink="http://www.w3.org/1999/xlink" width="537" height="550" viewBox="0 0 537 550">
    <defs>
        <path id="a" d="M0 .344h536.219v443.76H0z"/>
    </defs>
    <g fill="none" fill-rule="evenodd">
        <path fill="#FFFFFE" d="M524.425 384.747l-67.949-17.497 11.794-45.799 67.948 17.496-11.793 45.8"/>
        <path fill="#DFDFDA" d="M524.425 384.747s.058-.304.19-.859c.143-.58.343-1.395.598-2.44l2.31-9.25c2.02-7.98 4.91-19.407 8.43-33.32l.197.335-67.96-17.429c-.097.052.784-.467.41-.242l-.003.013-.02.071-.024.096-.05.191-.098.382-.196.764-.392 1.524c-.26 1.013-.522 2.025-.781 3.03l-1.547 6c-1.023 3.97-2.031 7.875-3.02 11.708-1.98 7.665-3.886 15.03-5.689 22.008l-.226-.382c19.95 5.202 36.882 9.617 48.857 12.741l13.984 3.686 3.727 1 .966.268c.219.062.333.097.337.105.004.008-.1-.011-.31-.061-.237-.056-.545-.128-.941-.223l-3.687-.91c-3.27-.821-7.996-2.008-13.955-3.507l-49.135-12.49-.302-.08.077-.304 5.648-22.018c.985-3.834 1.99-7.74 3.009-11.71.512-1.986 1.026-3.986 1.543-6l.782-3.032.588-2.287.097-.382.052-.192.023-.094.014-.05.005-.023.004-.013c-.374.216.51-.307.424-.25l67.926 17.562.267.067-.07.266-8.752 33.413-2.43 9.155-.643 2.375c-.147.533-.234.788-.234.788"/>
        <g>
            <mask id="b" fill="#fff">
                <use xlink:href="#a"/>
            </mask>
            <path fill="#DFDFDA" d="M536.219 338.947c.01.02-.245.182-.744.474l-2.197 1.247-8.167 4.491-27.285 14.721-.255.137-.179-.229-1.346-1.749c-7.695-10.042-14.658-19.132-19.754-25.785l-5.925-7.863-1.583-2.158c-.355-.499-.533-.767-.514-.782.018-.014.233.227.623.696l1.686 2.08c1.488 1.889 3.56 4.512 6.096 7.73 5.14 6.622 12.158 15.668 19.913 25.665.462.598.92 1.194 1.348 1.746l-.433-.092c10.729-5.693 20.355-10.804 27.384-14.533l8.267-4.304 2.258-1.136c.518-.253.796-.377.807-.356" mask="url(#b)"/>
            <path fill="#BCCBDE" d="M66.767 429.946c-.04-.058.788-.114 1.701-1.14a3.655 3.655 0 0 0 .83-2.294c.013-.492-.128-1.003-.274-1.57l-.45-1.795-5.328-21.5-1.751-7.13-.93-3.792c-.176-.64-.273-1.324-.539-1.868a3.32 3.32 0 0 0-1.246-1.378 3.125 3.125 0 0 0-1.82-.449c-.61.054-1.323.304-2.003.462l-4.19 1.088-8.745 2.269-38.948 10.067c-1.598.379-2.635 2.126-2.338 3.712l1.218 5.08 2.414 9.976 4.553 18.863c.182.75.362 1.498.54 2.24.144.72.477 1.337.975 1.82.497.475 1.14.793 1.813.863.667.108 1.333-.141 2.062-.315l8.257-2.11 14.824-3.778c9.04-2.283 16.37-4.133 21.476-5.424 2.512-.617 4.475-1.102 5.848-1.44l1.525-.358c.345-.077.523-.11.526-.099.003.012-.17.068-.508.167l-1.509.424-5.814 1.566c-5.095 1.34-12.404 3.261-21.423 5.634-4.529 1.179-9.484 2.472-14.802 3.858-2.662.692-5.415 1.408-8.25 2.143-.68.162-1.452.457-2.282.338-.808-.083-1.578-.459-2.171-1.022a4.092 4.092 0 0 1-1.154-2.121l-.546-2.238-4.592-18.853-2.425-9.974-1.23-5.13c-.357-1.902.884-4.014 2.84-4.485l38.963-10.016 8.753-2.24 4.194-1.072c.702-.158 1.328-.396 2.113-.471.759-.05 1.518.153 2.152.54.633.392 1.14.964 1.453 1.62.318.678.396 1.345.57 1.982l.91 3.796 1.708 7.14 5.115 21.554c.15.634.29 1.235.422 1.8.132.557.272 1.107.247 1.628a3.776 3.776 0 0 1-.929 2.38 3.44 3.44 0 0 1-1.29.907c-.33.13-.515.145-.515.145" mask="url(#b)"/>
            <path fill="#DFDFDA" d="M36.192 411.034l8.349 2.523-12.521 12.456-4.178-17.501 8.35 2.522" mask="url(#b)"/>
            <path fill="#C3EDFF" d="M325.974 21.717c3.852-1.578 6.614-5.513 6.676-10.175.078-6.11-4.503-11.122-10.232-11.197-5.726-.077-10.432 4.816-10.51 10.925-.06 4.706 2.655 8.734 6.52 10.383-15.98 2.268-15.403 19.62-15.403 19.62l37.74.495s1.011-17.529-14.791-20.05" mask="url(#b)"/>
        </g>
        <path fill="#97B4C2" d="M486.858 94.275v83.675a4.884 4.884 0 0 1-4.884 4.883h-124.33a4.883 4.883 0 0 1-4.882-4.883V94.275a4.884 4.884 0 0 1 4.883-4.883h124.329a4.885 4.885 0 0 1 4.884 4.883"/>
        <path fill="#FFFFFE" d="M361.936 179.887h111.986V92.338H361.936z"/>
        <path fill="#5A7988" d="M480.12 132.528a3.585 3.585 0 1 1-.002 7.17 3.585 3.585 0 0 1 .002-7.17M358.105 122.782v26.661a.742.742 0 0 1-1.481 0v-26.661a.74.74 0 0 1 1.481 0"/>
        <path fill="#E6E9F0" d="M475.703 141.095l-68.662.048-.067-93.957 68.66-.05.069 93.959"/>
        <path fill="#EF2A42" d="M458.299 152.922l-68.66.05-.07-93.959 68.664-.049.066 93.958"/>
        <path fill="#FFFFFE" d="M446.534 167.353l-68.663.048-.066-93.958 68.66-.05.07 93.96"/>
        <path fill="#1A282B" d="M446.534 167.353s-.013-.162-.02-.464c-.002-.32-.009-.759-.017-1.328l-.04-5.136c-.024-4.497-.056-11.034-.1-19.3l-.2-67.732.309.31c-20.678.026-44.027.054-68.653.083h-.008l.341-.344c.003 35.096.004 67.588.005 93.96l-.28-.28 49.86.11 13.874.061c1.586.012 2.806.023 3.657.03.829.009 1.272.03 1.272.03s-.402.02-1.213.031l-3.604.033-13.81.082-50.035.183h-.279v-.28c-.038-26.372-.082-58.864-.131-93.959V73.1h.351l68.653-.016.312-.001v.31c-.045 27.83-.08 51.348-.106 67.935-.03 8.235-.052 14.748-.07 19.23l-.034 5.072-.015 1.296c-.007.288-.012.432-.019.427"/>
        <path fill="#1A282B" d="M419.81 92.297c0 .19-7.47.35-16.682.356-9.216.006-16.686-.142-16.686-.332 0-.188 7.469-.347 16.684-.354 9.213-.006 16.685.142 16.685.33M437.86 100.449c.002.19-11.509.35-25.703.36-14.2.01-25.708-.134-25.708-.323s11.506-.35 25.706-.361c14.196-.01 25.706.134 25.706.324M437.867 108.967c0 .188-11.51.35-25.704.36-14.201.011-25.708-.135-25.708-.324-.001-.189 11.507-.35 25.707-.36 14.195-.011 25.705.135 25.705.324M437.874 117.484c0 .19-11.51.35-25.706.36-14.2.011-25.707-.133-25.707-.324 0-.188 11.507-.35 25.707-.36 14.195-.01 25.706.135 25.706.324M437.88 126.001c0 .19-11.51.35-25.705.36-14.2.011-25.708-.133-25.708-.323s11.508-.35 25.708-.36c14.195-.01 25.705.134 25.705.323M437.887 134.518c0 .19-11.51.352-25.705.362-14.2.01-25.708-.135-25.708-.325 0-.188 11.506-.35 25.706-.36 14.196-.01 25.706.134 25.707.323M437.892 143.037c0 .188-11.51.35-25.704.36-14.2.01-25.71-.135-25.71-.325 0-.188 11.509-.35 25.709-.36 14.195-.01 25.705.135 25.705.325M414.12 151.571c0 .188-6.187.347-13.817.353-7.632.005-13.819-.144-13.819-.333 0-.19 6.187-.348 13.819-.353 7.63-.005 13.817.144 13.817.333"/>
        <path fill="#97B4C2" d="M365.033 548.126h-190.79a9.217 9.217 0 0 1-9.218-9.217V418.987a9.219 9.219 0 0 1 9.218-9.219h190.79a9.219 9.219 0 0 1 9.218 9.219v119.922a9.217 9.217 0 0 1-9.218 9.217"/>
        <path fill="#5A7988" d="M370.85 550H168.383c-6.687 0-12.107-5.42-12.107-12.105h226.68c0 6.685-5.42 12.105-12.106 12.105"/>
        <path fill="#FFFFFE" d="M170.642 532.107H368.05V415.266H170.642z"/>
        <path fill="#365158" d="M249.013 537.895l2.813 4.473h39.582l2.61-4.473h-45.005"/>
        <path fill="#FFFFFE" d="M177.225 532.062h181.753V423.046H177.225z"/>
        <path fill="#ECECE8" d="M269.601 437.003l1.73 31.811a2.149 2.149 0 0 0 2.13 2.032l57.243.419a2.147 2.147 0 0 0 2.163-2.132l.182-24.762a2.149 2.149 0 0 0-2.146-2.164l-35.207-.03a2.146 2.146 0 0 1-1.516-.63l-6.073-6.072c-.4-.399-.94-.625-1.504-.629l-14.841-.11a2.152 2.152 0 0 0-2.16 2.267"/>
        <path fill="#F8F7F5" d="M332.818 475.84l-62.546-.458.274-37.375 62.546.457-.274 37.375"/>
        <path fill="#ECECE8" d="M265.546 441.324l4.49 39.01c.08.692.664 1.219 1.363 1.223l60.955.446a1.378 1.378 0 0 0 1.384-1.262l3.355-38.953a1.381 1.381 0 0 0-1.365-1.5l-68.8-.504a1.382 1.382 0 0 0-1.382 1.54"/>
        <path fill="#50E3C2" d="M225.429 454.09l2.387 43.913a2.963 2.963 0 0 0 2.938 2.802l79.018.58a2.963 2.963 0 0 0 2.986-2.943l.251-34.181a2.965 2.965 0 0 0-2.962-2.987l-48.597-.044a2.96 2.96 0 0 1-2.093-.867l-8.386-8.381a2.96 2.96 0 0 0-2.074-.868l-20.486-.15a2.965 2.965 0 0 0-2.982 3.125"/>
        <path fill="#F8F7F5" d="M312.69 507.7l-86.335-.634.378-51.59 86.335.633-.377 51.591"/>
        <path fill="#50E3C2" d="M219.832 460.055l6.197 53.848c.11.956.916 1.681 1.879 1.69l84.14.614a1.906 1.906 0 0 0 1.914-1.743l4.63-53.768a1.907 1.907 0 0 0-1.885-2.07l-94.969-.696a1.906 1.906 0 0 0-1.906 2.125"/>
        <path fill="#1A282B" d="M284.462 477.643c.027-.032.305.141.772.55.47.403 1.11 1.069 1.795 2.037 1.334 1.907 2.858 5.28 2.426 9.604-.393 4.246-2.793 9.242-7.416 12.625-2.281 1.68-5.106 2.953-8.22 3.299-3.115.354-6.422-.303-9.335-1.854-2.916-1.545-5.323-3.893-6.798-6.662-1.48-2.768-1.995-5.846-1.803-8.683a17.289 17.289 0 0 1 2.349-7.654c1.272-2.19 2.954-3.898 4.652-5.172 3.424-2.582 6.858-3.48 9.158-3.844 1.167-.164 2.08-.203 2.697-.192.616.021.939.056.939.103.004.122-1.291.132-3.539.613-2.214.512-5.48 1.53-8.66 4.084-1.578 1.26-3.118 2.91-4.262 4.974a16.356 16.356 0 0 0-2.074 7.165c-.146 2.632.36 5.457 1.724 7.97 1.354 2.507 3.572 4.665 6.26 6.087 2.685 1.43 5.711 2.035 8.544 1.73 2.847-.295 5.478-1.444 7.628-2.985 4.354-3.101 6.709-7.743 7.193-11.713.526-4.032-.76-7.28-1.91-9.205-1.195-1.953-2.212-2.783-2.12-2.877"/>
        <path fill="#1A282B" d="M268.787 466.792c.277-.504 3.449 1.717 7.077 4.782l.604.509-.6.525c-.14.124-.293.256-.446.39-3.798 3.306-7.077 5.756-7.326 5.47-.249-.286 2.629-3.197 6.428-6.504l.446-.386.004 1.034a136.434 136.434 0 0 1-4.49-4.033c-1.117-1.054-1.748-1.737-1.697-1.787"/>
        <path fill="#97B4C2" d="M66.547 279.11l-52.459-6.097c-6.31-.733-10.833-6.426-10.104-12.718l15.192-131.156c.73-6.296 6.44-10.806 12.753-10.073l52.46 6.097c6.308.733 10.83 6.426 10.102 12.719L79.299 269.037c-.73 6.296-6.438 10.806-12.752 10.072"/>
        <path fill="#FFFFFE" d="M83.808 129.683L73.637 128.5c-1.363-.159-2.604.866-2.769 2.288l-.213 1.839c-.164 1.423-1.404 2.447-2.767 2.288l-19.826-2.303c-1.363-.16-2.336-1.44-2.171-2.863l.213-1.84c.164-1.422-.808-2.702-2.171-2.861l-12.48-1.45c-4.421-.513-8.42 2.644-8.93 7.055L7.694 258.67c-.512 4.408 2.656 8.394 7.075 8.908l52.355 6.085c4.42.512 8.42-2.646 8.93-7.055l14.83-128.017c.508-4.407-2.659-8.395-7.077-8.908"/>
        <path fill="#FFA81A" d="M52.14 172.521l-43.362 2.137-1.441-29.23 43.363-2.136 1.44 29.23"/>
        <path fill="#DFDFDA" d="M50.7 143.292c.033.036-.504.592-1.501 1.569-1.092 1.047-2.53 2.426-4.271 4.093a1692.415 1692.415 0 0 1-14.298 13.349l-.206.19-.227-.164-.317-.228a1728.245 1728.245 0 0 1-16.023-11.673l-4.81-3.602c-1.129-.863-1.738-1.358-1.71-1.397.027-.038.69.384 1.866 1.18l4.936 3.425a1721.82 1721.82 0 0 1 16.141 11.512l.317.228-.433.026a1724.138 1724.138 0 0 1 14.437-13.2l4.417-3.934c1.054-.917 1.65-1.407 1.682-1.374"/>
        <path fill="#DFDFDA" d="M8.778 174.658c-.152-.115 2.86-4.321 6.725-9.395 3.867-5.075 7.12-9.095 7.272-8.98.15.114-2.86 4.32-6.726 9.396-3.866 5.074-7.121 9.093-7.271 8.979M37.171 155.208c.142-.125 3.61 3.651 7.743 8.431 4.135 4.783 7.37 8.758 7.227 8.882-.144.124-3.61-3.651-7.745-8.433-4.133-4.78-7.368-8.758-7.225-8.88"/>
        <path fill="#F0B149" d="M98.312 243.322L24.367 228.2l10.194-49.84 73.943 15.122-10.192 49.84"/>
        <path fill="#1A282B" d="M108.504 193.482c.012.02-.272.2-.824.522l-2.427 1.383c-2.189 1.21-5.245 2.902-8.996 4.979l-29.877 16.24-.246.133-.18-.215-.436-.521c-8.57-10.336-16.329-19.69-22-26.528-2.755-3.372-5-6.121-6.606-8.09l-1.77-2.22c-.399-.514-.6-.79-.581-.806.018-.014.253.232.686.716l1.869 2.14 6.773 7.95 22.156 26.398.435.523-.425-.083c11.696-6.267 22.257-11.927 29.973-16.06l9.098-4.79 2.49-1.27c.572-.283.877-.422.888-.401"/>
        <path fill="#1A282B" d="M24.367 228.2c-.116-.149 6.84-5.843 15.54-12.718 8.7-6.877 15.847-12.33 15.964-12.182.117.149-6.838 5.842-15.54 12.72-8.698 6.875-15.845 12.329-15.964 12.18M80.578 207.704c.17-.084 4.277 7.821 9.173 17.655 4.899 9.838 8.73 17.878 8.56 17.963-.169.085-4.275-7.82-9.173-17.658-4.896-9.834-8.729-17.876-8.56-17.96"/>
        <path fill="#ECECE8" d="M361.346 353.818c11.85.125 15.492-16.223 4.612-20.922l-.263-.112c-8.808-3.696-19.41-2.767-27.442 2.404-2.477-10.556-10.23-19.735-20.225-23.942-9.995-4.207-21.98-3.334-31.26 2.274-2.142-22.283-13.45-43.846-31.532-57.048-18.082-13.2-42.848-17.32-63.735-9.264-20.888 8.056-36.776 28.604-37.881 50.963-11.71-1.245-23.869 2.526-32.817 10.18a23.9 23.9 0 0 0-.848.762c-15.988 15.062-4.923 42.05 17.04 42.288l224.351 2.417"/>
        <path fill="#DFDFDA" d="M206.483 295.679c-.947 0-1.713-.06-1.713-.136 0-.073.766-.134 1.713-.134.945 0 1.712.06 1.712.134 0 .075-.767.136-1.712.136"/>
        <path fill="#DE4D59" d="M378.357 346.045l.231-10.43-19.533-.56-.502 15.254 1.209.113c5.381.454 27.395 1.93 31.03.941 4.054-1.104-12.435-5.318-12.435-5.318"/>
        <path fill="#FFFFFE" d="M377.301 351.493a348.63 348.63 0 0 1-7.277-.302c.105-.016.198-.032.283-.049 2.267.13 4.663.254 6.994.351m13.324-.09c.06-.012.114-.025.167-.04.48-.13.671-.304.637-.51l.007-.003c0-.001-.003-.003-.008-.004a.34.34 0 0 0-.037-.104c.113.158.133.304.029.434-.073.091-.349.166-.795.228m-2.938-2.566"/>
        <path fill="#E98B94" d="M384.766 351.624c-2.188 0-4.758-.046-7.465-.13a453.046 453.046 0 0 1-6.994-.352c.236-.05.386-.105.436-.17.08-.098.087-.209.035-.326a352.292 352.292 0 0 0 14.417.305c.484 0 .946 0 1.384-.002 1.401-.019 2.588-.033 3.555-.044l.965-.029c.192-.008.304-.015.33-.023.034.206-.158.38-.637.51a3.472 3.472 0 0 1-.167.04c-1.087.152-3.19.22-5.86.22m6.663-.777a3.022 3.022 0 0 0-.33-.018l-.965-.016c-.966-.01-2.153-.019-3.553-.032-.605-.005-1.256-.012-1.947-.02.138-.459.77-2.353 1.772-2.367l.032.01c.427.144.849.29 1.25.435 1.322.486 3.252 1.276 3.704 1.904a.34.34 0 0 1 .037.104m-11.425-.162c-1.62-.033-3.35-.073-5.146-.127-1.464-.045-2.88-.094-4.23-.146a1.17 1.17 0 0 0-.08-.085l9.456.358"/>
        <path fill="#1A282B" d="M358.29 349.854c0 .008.115.024.335.046l.963.086 3.545.257c2.996.195 7.138.41 11.717.55 4.579.137 8.726.171 11.729.156 1.401-.019 2.588-.033 3.555-.044l.965-.029c.22-.009.337-.018.337-.026s-.116-.016-.337-.022l-.966-.016c-.966-.01-2.153-.019-3.553-.032a582.89 582.89 0 0 1-11.723-.223c-4.577-.14-8.718-.328-11.714-.48-1.4-.073-2.585-.134-3.55-.182-.359-.017-.676-.03-.965-.042-.22-.007-.337-.007-.337 0"/>
        <path fill="#1A282B" d="M384.59 351.162c.072.012.152-.834.713-1.675.546-.85 1.288-1.263 1.25-1.324-.014-.06-.86.284-1.448 1.195-.6.901-.575 1.817-.516 1.804M378.913 348.068c.054.039.338-.29.637-.73.297-.44.496-.827.442-.864-.054-.037-.34.29-.64.731-.297.441-.494.828-.439.863M377.355 347.186c.042.05.356-.147.702-.44.346-.29.59-.568.548-.618-.042-.05-.355.146-.701.44-.346.29-.59.568-.549.618M376.41 345.314c-.003.065.452.136 1.015.16.562.022 1.021-.012 1.025-.078.003-.066-.453-.135-1.017-.16-.562-.023-1.021.013-1.024.078M376.104 344.003c-.024.058.467.297 1.128.364.66.072 1.19-.06 1.179-.122-.01-.067-.528-.045-1.154-.113-.628-.064-1.13-.193-1.153-.13"/>
        <path fill="#1A282B" d="M379.625 346.384c-.003.028.478.1 1.255.03a7.512 7.512 0 0 0 1.345-.256c.247-.08.505-.137.774-.292.127-.08.268-.192.322-.382.058-.187-.037-.4-.175-.506-1.182-.657-2.403-.017-2.866.59-.255.308-.376.614-.435.824-.056.213-.056.337-.042.34.043.015.098-.493.602-1.056.25-.275.621-.54 1.094-.665.447-.119 1.08-.135 1.493.146.195.154.11.385-.116.511-.21.128-.479.2-.714.28a8.86 8.86 0 0 1-1.303.3c-.755.111-1.233.098-1.234.136"/>
        <path fill="#1A282B" d="M379.949 346.457c.015.013.212-.302.17-.868a2.067 2.067 0 0 0-.316-.927c-.215-.284-.489-.676-1.027-.67-.292.028-.443.355-.404.567.016.221.11.413.198.567.177.32.38.58.57.778.381.396.689.553.702.529.024-.03-.242-.233-.578-.64a4.357 4.357 0 0 1-.502-.77c-.165-.27-.269-.748.047-.798.316-.02.628.303.812.558.19.278.29.574.332.826.08.515-.046.837-.004.848M358.846 344.521c0 .016.078.016.221.015.24-.002.666-.004 1.219.077a6.319 6.319 0 0 1 3.11 1.39 6.31 6.31 0 0 1 1.887 2.84c.274.845.287 1.408.33 1.404.015 0 .026-.14.012-.393a5.13 5.13 0 0 0-.182-1.06 6.054 6.054 0 0 0-1.893-2.972 6.052 6.052 0 0 0-3.242-1.375 5.204 5.204 0 0 0-1.076-.004c-.252.03-.387.064-.386.078M361.108 336.451c-.066-.002-.194 1.792-.287 4.007-.093 2.217-.114 4.016-.05 4.018.065.003.193-1.79.287-4.008.092-2.215.116-4.014.05-4.017M368.154 348.528c-.01.061 1.257.306 2.842.365 1.588.065 2.87-.082 2.865-.144-.004-.069-1.283-.028-2.854-.091-1.574-.058-2.844-.199-2.853-.13"/>
        <path fill="#1A282B" d="M364.326 348.41c-.051.045.096.273.217.57.125.295.186.558.253.556.063 0 .11-.307-.034-.648-.142-.34-.394-.524-.436-.479M362.936 346.572c-.05.045.072.252.268.462.195.21.393.346.44.302.05-.044-.072-.253-.268-.464-.196-.21-.393-.346-.44-.3M360.895 345.69c.012.067.27.073.555.182.287.104.486.269.538.225.054-.034-.102-.317-.455-.447-.353-.132-.657-.02-.638.04M359.437 345.262c-.026.06.083.163.243.23.16.069.312.074.336.013.026-.06-.083-.163-.244-.231-.159-.067-.31-.073-.335-.012"/>
        <path fill="#ADAEAA" d="M378.41 344.245c0-.006-.005-.01-.014-.016l.053-2.316-.038 2.332"/>
        <path fill="#9D9D9A" d="M358.792 343.013l-.024-.256.033-.002-.009.258"/>
        <path fill="#AB363E" d="M378.396 344.229c-.085-.047-.567-.036-1.14-.097-.509-.052-.934-.146-1.09-.146-.037 0-.058.005-.062.017-.015.034.15.131.421.218l-15.68-.199c.03-.304.063-.748.097-1.288l2.962-.016.049-.19 14.496-.636v.021l-.053 2.316m-17.66-.208l-1.85-.022-.094-.986.01-.258.237-.01 1.707-.01c-.01.539-.014.982-.01 1.286"/>
        <path fill="#111819" d="M378.41 344.245l-1.885-.024c-.271-.087-.436-.184-.421-.218.004-.012.025-.017.062-.017.156 0 .581.094 1.09.146.573.061 1.055.05 1.14.097.01.005.013.01.015.016M360.845 344.022h-.11c-.003-.305 0-.748.011-1.286l.196-.002c-.034.54-.067.984-.097 1.288"/>
        <path fill="#DE4D59" d="M357.68 345.843l.232-10.43-19.533-.56-.503 15.255 1.21.112c5.381.455 27.394 1.93 31.03.94 4.052-1.103-12.436-5.317-12.436-5.317"/>
        <path fill="#F6F5F3" d="M356.604 351.29c-6.634-.204-14.082-.637-18.728-1.182l1.21.112c2.873.243 10.489.776 17.518 1.07"/>
        <path fill="#FFFFFE" d="M369.945 351.203l.055-.014.024.002-.08.012"/>
        <path fill="#FFFFFE" d="M370.024 351.19H370c.04-.01.079-.019.116-.03.03-.007.058-.017.085-.024.035.002.071.003.106.006a5.627 5.627 0 0 1-.283.049"/>
        <path fill="#F1B9BB" d="M370.307 351.142c-.035-.003-.071-.004-.106-.006.42-.13.587-.297.552-.491a.16.16 0 0 0 .025.001c.052.117.046.228-.035.326-.05.065-.2.12-.436.17"/>
        <path fill="#747F7F" d="M370.778 350.646l-.025-.001a.378.378 0 0 0-.04-.107.556.556 0 0 1 .065.108"/>
        <path fill="#E98B94" d="M367.068 348.657c-.429-.156-.877-.31-1.336-.465.052.017.609.197 1.336.465"/>
        <path fill="#E98B94" d="M364.088 351.421c-2.193 0-4.77-.046-7.484-.13-7.029-.295-14.645-.828-17.518-1.071l-1.21-.112.044-.436 6.984.265c.012.07.021.108.033.108.008 0 .014-.037.017-.107l18.974.719s.661-2.45 1.8-2.466l.004.001c.459.154.907.31 1.336.465 1.319.486 3.2 1.261 3.645 1.881.02.037.033.073.04.107.035.194-.132.362-.552.49-.027.008-.055.018-.085.026-.037.01-.075.02-.116.028l-.055.014c-1.088.15-3.19.218-5.857.218"/>
        <path fill="#1A282B" d="M337.614 349.65c0 .01.115.025.335.047.288.027.605.056.962.087l3.546.257c2.996.196 7.136.412 11.717.548 4.579.139 8.727.172 11.729.157l3.554-.045.965-.027c.221-.01.337-.019.337-.027s-.116-.014-.337-.02c-.29-.006-.608-.011-.965-.016-.966-.01-2.153-.02-3.554-.032-3-.029-7.146-.088-11.723-.225-4.576-.14-8.716-.326-11.714-.48l-3.549-.182-.964-.042c-.221-.007-.339-.007-.339 0"/>
        <path fill="#1A282B" d="M363.913 350.96c.073.01.153-.835.713-1.676.546-.85 1.29-1.262 1.25-1.323-.012-.06-.86.284-1.447 1.194-.599.902-.575 1.816-.516 1.806M358.237 347.867c.054.036.338-.292.637-.733.298-.44.496-.826.44-.863-.053-.037-.339.29-.636.732-.3.44-.496.827-.441.864M356.679 346.984c.042.049.357-.147.701-.44.346-.293.591-.569.549-.62-.042-.05-.355.147-.701.44-.346.293-.591.57-.55.62M355.733 345.11c-.003.066.451.139 1.016.16.563.023 1.02-.01 1.023-.077.003-.064-.45-.136-1.014-.159-.563-.023-1.022.01-1.025.077M355.428 343.8c-.024.058.467.297 1.127.366.66.07 1.191-.062 1.18-.123-.01-.068-.528-.044-1.155-.113-.629-.064-1.13-.194-1.152-.13"/>
        <path fill="#1A282B" d="M358.949 346.183c-.003.025.477.099 1.255.028a7.273 7.273 0 0 0 1.345-.256c.247-.08.505-.138.773-.293.128-.078.269-.19.323-.38.056-.186-.037-.402-.177-.508-1.18-.657-2.402-.016-2.864.59-.255.31-.376.615-.434.827-.057.213-.057.334-.044.337.045.018.1-.492.603-1.053.25-.276.621-.54 1.093-.666.446-.118 1.08-.135 1.494.145.195.154.109.385-.116.512-.21.126-.48.2-.714.281a8.657 8.657 0 0 1-1.303.298c-.755.11-1.233.097-1.234.138"/>
        <path fill="#1A282B" d="M359.272 346.253c.016.014.212-.3.17-.866a2.044 2.044 0 0 0-.317-.928c-.213-.285-.487-.677-1.025-.67-.292.03-.445.356-.405.568.017.22.11.413.198.568.178.318.38.578.571.775.382.396.689.553.703.53.022-.03-.243-.233-.579-.64a4.392 4.392 0 0 1-.502-.768c-.166-.272-.269-.75.048-.798.315-.021.627.301.81.556a2.1 2.1 0 0 1 .332.827c.08.514-.047.836-.004.846M338.17 344.318c0 .016.079.016.222.015.24-.001.666-.003 1.217.079a6.312 6.312 0 0 1 3.112 1.39 6.316 6.316 0 0 1 1.886 2.837c.273.845.285 1.41.33 1.406.014-.002.026-.141.012-.395a5.164 5.164 0 0 0-.182-1.06 6.036 6.036 0 0 0-1.893-2.969 6.05 6.05 0 0 0-3.242-1.376 5.19 5.19 0 0 0-1.075-.004c-.253.029-.39.063-.387.077M340.432 336.249c-.065-.003-.194 1.79-.286 4.008-.095 2.215-.116 4.014-.05 4.017.063.001.192-1.792.286-4.008.093-2.216.115-4.015.05-4.017M347.478 348.326c-.01.06 1.256.307 2.842.366 1.587.065 2.87-.084 2.864-.145-.005-.07-1.283-.029-2.854-.092-1.572-.059-2.843-.197-2.852-.129"/>
        <path fill="#1A282B" d="M343.649 348.208c-.049.046.097.274.218.568.125.296.184.56.253.557.063.001.109-.305-.034-.647-.143-.343-.394-.524-.437-.478M342.258 346.37c-.047.044.074.251.268.462.198.21.395.346.442.3.048-.044-.072-.25-.268-.46-.195-.211-.393-.347-.442-.302M340.218 345.488c.012.067.271.073.556.182.287.102.485.268.538.226.054-.034-.103-.317-.455-.447-.353-.133-.657-.021-.639.04M338.76 345.058c-.026.06.083.164.244.231.16.069.31.074.335.015.027-.06-.082-.165-.243-.232-.16-.068-.312-.075-.335-.014"/>
        <path fill="#9D9D9A" d="M357.734 344.043c-.001-.006-.005-.011-.013-.015l.028-1.277h.006l-.02 1.292"/>
        <path fill="#AB363E" d="M357.721 344.028c-.087-.05-.568-.036-1.14-.098-.51-.052-.936-.147-1.092-.147-.035 0-.057.005-.061.017-.015.034.15.132.425.22l-15.685-.199c.024-.243.05-.575.077-.974l17.504-.096-.028 1.277"/>
        <path fill="#111819" d="M357.734 344.043l-1.881-.023c-.274-.088-.44-.186-.425-.22.004-.012.026-.017.061-.017.156 0 .582.095 1.091.147.573.062 1.054.049 1.141.098.008.004.012.009.013.015"/>
        <path fill="#AB363E" d="M340.06 343.82l-1.85-.024-.089-.937 1.943-.01c-.006.397-.007.729-.005.97"/>
        <path fill="#111819" d="M340.168 343.821l-.109-.001c-.002-.242-.001-.574.005-.971l.18-.002c-.026.4-.052.73-.076.974"/>
        <path fill="#1A282B" d="M259.207 306.966l110.456-64.849a19.594 19.594 0 0 1 16-1.731c6.838 2.23 12.449 7.156 15.015 14.685 1.673 4.915 1.593 10.26.161 15.25l-18.784 72.58-33.492.773 18.42-61.298-54.76 37.344c-17.848 12.888-42.982 6.842-53.016-12.754"/>
        <path fill="#365158" d="M241.208 306.193l110.458-64.85a19.595 19.595 0 0 1 15.998-1.73c6.839 2.23 12.45 7.157 15.015 14.686 1.674 4.914 1.595 10.259.16 15.25l-18.935 73.17-33.34.182 18.419-61.298-54.758 37.346c-17.847 12.887-42.983 6.84-53.017-12.756"/>
        <path fill="#DE4D59" d="M298.355 240.14s2.827 30.098 0 32.976l-6.638 3.423-14.883-10.085 21.521-26.315"/>
        <path fill="#8F2C34" d="M291.717 276.54s-9.329-6.59-12.929-12.073a100.497 100.497 0 0 0 2.708-3.249c.133-.168.196-.259.187-.267 9.024-9.225 15.62-16.479 15.62-16.479l-1.33-1.418 2.382-2.915s1.256 13.372 1.257 23.141c0 4.077-.219 7.527-.838 9.116-.123.317-.262.56-.419.72l-6.634 3.422-.004.001m-13.074-12.297l.964-1.179 1.467-1.49-.28.3-2.15 2.37"/>
        <path fill="#DE4D59" d="M249.312 201.921c4.204-.632-32.062-4.253-33.282 26.034-1.214 30.188 25.178 79.11 25.178 79.11l50.51-30.526s-12.12-8.559-14.063-14.285c-1.854-5.465 1.546-56.982-28.343-60.333"/>
        <path fill="#DE4D59" d="M225.754 207.888c-1.542.384-13.099 10.817-13.245 31.644-.116 16.555 1.16 53.307 12.46 58.773 5.114 2.475 11.302 1.599 18.045-2.762 19.022-12.294 54.29-51.07 54.29-51.07l-15.076-16.06s-39.14 39.828-40.808 38.366c-2.519-2.207-2.133-22.882-4.271-41.684-1.52-13.365-1.83-19.587-11.395-17.207"/>
        <path fill="#1A282B" d="M281.683 260.951c.01.008-.054.099-.187.267l-.597.744c-.53.65-1.319 1.601-2.367 2.799a190.633 190.633 0 0 1-9.208 9.85c-4.046 4.002-9.019 8.636-14.98 13.256-2.98 2.307-6.202 4.615-9.72 6.74-3.528 2.084-7.316 4.156-11.633 5.163-1.08.225-2.184.393-3.304.312-.554-.041-1.119-.11-1.654-.306-.56-.15-.999-.455-1.5-.673-1.921-1.01-3.536-2.467-4.834-4.087-2.617-3.267-4.05-7.08-5.116-10.692-1.025-3.645-1.6-7.203-2.025-10.52-.442-3.317-.82-6.413-1.108-9.245-.583-5.664-.834-10.27-.913-13.451a97.098 97.098 0 0 1-.044-3.665l.019-.954c.008-.214.018-.325.03-.325s.025.111.04.325l.05.952.17 3.656c.162 3.174.487 7.764 1.13 13.41.318 2.823.723 5.91 1.19 9.22.448 3.311 1.039 6.826 2.069 10.422 1.066 3.56 2.496 7.3 5.03 10.446 2.466 3.042 6.346 5.868 10.625 4.505 4.167-.968 7.937-3.01 11.432-5.066 3.492-2.101 6.705-4.384 9.681-6.666 5.954-4.57 10.945-9.155 15.027-13.104a238.258 238.258 0 0 0 9.347-9.68l2.462-2.712.648-.698c.15-.156.23-.23.24-.223"/>
        <path fill="#1A282B" d="M282.228 228.413c.017.015-.227.305-.706.846-.484.538-1.186 1.342-2.134 2.342-1.877 2.016-4.66 4.885-8.17 8.386a677.673 677.673 0 0 1-12.563 12.172l-7.602 7.098c-2.689 2.432-5.394 4.996-8.44 7.454l-.504.405-.04-.666a2753.73 2753.73 0 0 0-.269-4.597l-1.33-23.198c-.238-3.563-.28-6.962-.636-10.096-.35-3.131-1.075-6.008-2.287-8.388-1.183-2.39-2.825-4.249-4.568-5.435a11.103 11.103 0 0 0-5.042-1.836c-1.488-.136-2.65.074-3.405.292-.76.21-1.132.413-1.15.375 0 0 .348-.249 1.109-.508.752-.264 1.935-.523 3.468-.425 1.52.113 3.392.594 5.232 1.783 1.825 1.196 3.546 3.094 4.79 5.534 1.27 2.43 2.039 5.373 2.418 8.541.385 3.178.446 6.574.701 10.134l1.384 23.195.269 4.597-.542-.26c2.957-2.384 5.718-4.98 8.394-7.388l7.63-7.06a909.724 909.724 0 0 0 12.657-12.055 605.633 605.633 0 0 0 8.312-8.23l2.222-2.255c.51-.512.785-.773.802-.757"/>
        <path fill="#1A282B" d="M291.487 250.734c-.07.066-.982-.779-2.401-2.196a274.397 274.397 0 0 1-5.445-5.637 276.1 276.1 0 0 1-5.299-5.776c-1.329-1.503-2.116-2.463-2.047-2.526.07-.065.983.78 2.402 2.197a264.726 264.726 0 0 1 5.444 5.637 267.038 267.038 0 0 1 5.297 5.77c1.328 1.504 2.117 2.465 2.049 2.531M238.828 275.771c-.18-.046.267-2.317 1.268-4.979.995-2.666 2.151-4.668 2.316-4.585.175.084-.694 2.196-1.675 4.826-.988 2.626-1.723 4.788-1.91 4.738"/>
        <path fill="#1A282B" d="M235.436 273.114c-.128-.138 1.465-1.798 3.559-3.706 2.092-1.91 3.893-3.342 4.02-3.201.127.138-1.466 1.798-3.56 3.707-2.092 1.908-3.892 3.341-4.02 3.2M281.41 233.038c.068.074-.215.366-.15.878.03.248.16.502.42.627.254.135.642.13.88-.059.239-.185.333-.563.262-.84-.06-.283-.277-.469-.51-.557-.484-.183-.833.024-.888-.058-.08-.04.234-.512 1.005-.412.355.044.835.324.999.847.163.49.061 1.143-.445 1.558-.524.396-1.18.341-1.619.067a1.246 1.246 0 0 1-.589-1.17c.082-.772.616-.965.636-.88"/>
        <path fill="#8F2C34" d="M238.345 298.624l-.069-.548c1.544-.646 3.125-1.49 4.738-2.533.004 0 .007-.004.011-.006.54-.307 1.072-.617 1.599-.93 3.518-2.125 6.74-4.433 9.72-6.74 5.961-4.62 10.934-9.254 14.98-13.256a193.173 193.173 0 0 0 8.41-8.939c-6.562 16.589-21.89 29.441-39.39 32.952m28.826-22.62c3.702-3.64 7.302-7.397 10.873-11.133l-.017.047a236.069 236.069 0 0 1-9.04 9.346c-.587.569-1.193 1.15-1.816 1.74"/>
        <path fill="#8F2C34" d="M238.276 298.076l-.004-.033c.43-.218.858-.44 1.283-.665a58.185 58.185 0 0 0 3.47-1.841l-.01.006c-1.614 1.044-3.195 1.887-4.739 2.533"/>
        <path fill="#0F1516" d="M239.555 297.378c10.319-5.478 19.23-13.13 27.615-21.374.623-.59 1.229-1.171 1.816-1.74a236.069 236.069 0 0 0 9.04-9.346c-.096.253-.192.503-.292.754a193.173 193.173 0 0 1-8.41 8.939c-4.046 4.002-9.019 8.636-14.98 13.256-2.98 2.307-6.202 4.615-9.72 6.74-.527.313-1.06.623-1.599.93a58.185 58.185 0 0 1-3.47 1.84"/>
        <path fill="#8F2C34" d="M242.714 265.749c-.073-1.265-.15-2.591-.23-3.928l-1.384-23.195c-.255-3.56-.316-6.956-.701-10.134a33.03 33.03 0 0 0-.454-2.806l.072-.083 6.412 26.79c.62 2.589 1.243 5.26.804 7.885a8.297 8.297 0 0 1-.676 2.156 114.878 114.878 0 0 1-3.843 3.315"/>
        <path fill="#0F1516" d="M242.405 266.025l-2.609-40.167.149-.172c.19.91.34 1.848.454 2.806.385 3.178.446 6.574.701 10.134l1.384 23.195c.08 1.337.157 2.663.23 3.928a114.878 114.878 0 0 0 3.843-3.315c-.83 1.76-2.277 3.207-4.152 3.591"/>
        <path fill="#1A282B" d="M223.732 177.738c-3.485-1.833-7.946-1.645-11.265.475-3.318 2.12-5.364 6.088-5.167 10.021.149 2.966 1.437 6.107.126 8.773-1.696 3.448-7.16 4.664-7.297 8.505-.092 2.602 2.533 4.626 2.717 7.222.157 2.194-1.435 4.06-2.445 6.015-2.725 5.273-.904 12.363 3.845 15.926 4.749 3.564 11.822 3.44 16.643-.026 4.82-3.466 7.191-9.895 6.111-15.733-.604-3.257-2.175-6.433-1.747-9.717.225-1.73 1-3.38.994-5.121-.02-5.053-6.254-8.07-7.19-13.035-.783-4.159 3.326-8.456 7.515-7.86"/>
        <path fill="#D4846D" d="M255.699 204.013c.167-3.902.377-7.437.377-7.437s8.725-1.101 9.102-10.006c.376-8.908-.51-29.417-.51-29.417l-16.061-7.712-15.17 14.173.6 40.652c.39 5.895 5.425 10.392 11.325 10.12a10.85 10.85 0 0 0 10.337-10.373"/>
        <path fill="#1A282B" d="M249.92 171.57a1.122 1.122 0 0 1-1.09 1.156c-.612.01-1.118-.49-1.129-1.12-.012-.628.478-1.147 1.088-1.157.615-.01 1.12.49 1.13 1.12"/>
        <path fill="#1A282B" d="M250.997 171.11c-.14.148-.972-.552-2.168-.598-1.195-.062-2.082.562-2.21.399-.061-.072.082-.347.47-.63.38-.281 1.027-.543 1.772-.51.744.034 1.367.354 1.722.668.363.318.483.603.414.67M255.487 181.39c-.004-.074.74-.18 1.949-.298.306-.02.596-.075.65-.296.076-.233-.047-.59-.187-.976l-.865-2.527c-1.2-3.596-2.062-6.547-1.926-6.594.134-.049 1.216 2.827 2.414 6.423.287.887.562 1.732.825 2.54.11.376.302.805.139 1.29a.754.754 0 0 1-.511.457c-.196.057-.367.053-.518.057-1.215.02-1.966-.004-1.97-.077"/>
        <path fill="#BB614E" d="M256.076 196.576s-5.837.167-11.555-3.783c0 0 2.716 6.489 11.404 5.969l.151-2.186"/>
        <path fill="#1A282B" d="M221.955 172.138c-.03 7.71-2.235 17.83 11.816 20.655l1.366-18.377s12.564-3.627 14.213-19.21l.083.077c.872 2.016 2.424 6.349 1.481 9.876l12.741 3.14 1.466 1.342s4.537-9.942-4.217-18.96c-8.754-9.02-16.233-2.484-20.925-3.047-2.862-.343-11.58-.601-16.41 13.715-.822 2.437-1.257 4.99-1.415 7.556l-.199 3.233"/>
        <path fill="#D4846D" d="M235.137 174.416c-1.615-1.78-4.15-.245-5.094.784-1.482 1.618-1.74 4.234-.602 6.112 1.138 1.877 3.576 2.858 5.696 2.292"/>
        <path fill="#BB614E" d="M233.522 180.936c-.004.085-.404.176-1.04.02-.604-.147-1.557-.624-1.924-1.682a2.054 2.054 0 0 1 .062-1.51 2.13 2.13 0 0 1 .793-.902c.584-.36 1.02-.31 1.03-.232.027.102-.335.234-.734.615-.402.368-.772 1.059-.501 1.809.25.75.931 1.203 1.437 1.445.516.248.887.335.877.437"/>
        <path fill="#DE4D59" d="M232.36 182.69c-.647.153-.978 1.043-.588 1.58.39.537 1.339.498 1.683-.067.346-.567-.055-1.428-.712-1.528M223.075 184.903c-.167.065-.953-1.665-1.264-3.964-.324-2.3-.039-4.176.14-4.159.199.01.224 1.845.538 4.065.3 2.22.774 3.993.586 4.058"/>
        <path fill="#1A282B" d="M284.024 230.675l23.792-28.754 2.02 1.924-23.533 28.97-2.28-2.14"/>
        <path fill="#D4846D" d="M285.921 229.19s3.742-10.637 4.59-12.904c.847-2.268 2.273-6.216 2.847-6.311.572-.095 2.688.175.128 6.946-2.561 6.772 3.33 2.51 3.33 2.51l5.173-5.926s5.185 13.823 2.689 18.024c-2.695 4.533-8.735 11.56-8.735 11.56l-11.386-12.197 1.364-1.703"/>
        <path fill="#BB614E" d="M253.817 182.462a2.11 2.11 0 0 0-1.729 1.14 2.11 2.11 0 0 0 .125 2.068 2.11 2.11 0 0 0 1.854.925c.426-.025.851-.194 1.146-.504.501-.528.538-1.348.392-2.06-.087-.423-.238-.852-.542-1.157-.306-.307-.797-.46-1.187-.271"/>
        <path fill="#1A282B" d="M256.075 184.818c.04.178-1.338.443-2.797-.322-1.467-.75-2.045-2.03-1.878-2.099.167-.109.913.845 2.192 1.491 1.266.673 2.476.732 2.483.93M262.651 171.451a1.126 1.126 0 0 1-1.09 1.158c-.612.01-1.119-.49-1.13-1.12-.01-.628.478-1.147 1.09-1.157.613-.01 1.118.49 1.13 1.12"/>
        <path fill="#1A282B" d="M263.728 170.99c-.14.15-.973-.55-2.167-.595-1.195-.063-2.083.56-2.211.398-.063-.072.082-.346.47-.629.38-.281 1.026-.544 1.77-.51.747.034 1.368.353 1.724.667.361.318.482.603.414.67M250.105 167.225c-.035.195-1.13.125-2.42.383-1.293.24-2.284.712-2.389.545-.11-.144.818-.945 2.26-1.217 1.439-.283 2.598.115 2.55.289"/>
        <path fill="#ECECE8" d="M320.01 324.683c-6.311-3.716-13.896-5.22-21.144-4.194-7.252 1.028-14.12 4.578-19.15 9.9-3.627-5.782-9.9-9.827-16.66-10.746-6.764-.918-13.886 1.307-18.924 5.91-1.29-9.71-5.907-19.246-13.807-25.037s-19.257-7.169-27.636-2.098l-11.847 29.74 42.419 17.197 56.131 4.102 30.617-24.774"/>
        <path fill="#DFDFDA" d="M202.69 298.42c-.09-.133 1.111-1.263 3.856-2.434 2.717-1.152 7.13-2.168 12.56-1.373a28.67 28.67 0 0 1 8.544 2.7c2.912 1.475 5.779 3.598 8.284 6.31 5.063 5.405 8.675 13.12 9.867 21.709l-2.806-1.023c3.343-3.067 7.68-5.273 12.404-6.146 5.198-1.013 10.609-.204 15.081 1.97 4.51 2.133 8.162 5.52 10.573 9.416l-2.485-.246c4.73-4.878 10.469-7.848 15.824-9.221a32.538 32.538 0 0 1 14.265-.448c3.926.76 6.83 2.066 8.697 3.096 1.868 1.046 2.737 1.816 2.655 1.953-.098.168-1.138-.301-3.081-1.026-1.941-.71-4.823-1.674-8.57-2.13-3.73-.447-8.347-.373-13.255 1.102-4.885 1.46-10.05 4.346-14.24 8.843l-1.372 1.474-1.113-1.718c-2.156-3.332-5.389-6.245-9.328-8.058a21.225 21.225 0 0 0-13.024-1.64c-4.096.757-7.868 2.66-10.758 5.266l-2.393 2.158-.413-3.179c-1.034-7.964-4.248-15.125-8.716-20.168-2.218-2.541-4.742-4.539-7.318-5.98a27.732 27.732 0 0 0-7.702-2.843c-4.955-1.017-9.1-.42-11.792.33-2.713.762-4.116 1.528-4.245 1.306"/>
        <path fill="#DE4D59" d="M186.99 125.542c.035-.054.96.482 2.074 2.013 1.073 1.504 2.302 4.182 1.972 7.63-.302 3.383-2.203 7.366-5.882 10.069-1.817 1.34-4.07 2.36-6.558 2.64-2.49.284-5.133-.241-7.457-1.48-2.327-1.232-4.25-3.107-5.428-5.322-1.182-2.214-1.59-4.672-1.432-6.934a13.76 13.76 0 0 1 1.884-6.099c1.02-1.743 2.362-3.1 3.717-4.108 2.73-2.042 5.46-2.74 7.287-3.01 1.855-.245 2.886-.088 2.883-.016.004.116-1.02.143-2.786.54-1.739.42-4.302 1.238-6.789 3.25-1.234.994-2.437 2.293-3.326 3.91a12.827 12.827 0 0 0-1.61 5.61c-.11 2.058.29 4.262 1.354 6.222 1.057 1.952 2.79 3.636 4.889 4.748 2.097 1.116 4.457 1.588 6.667 1.353 2.22-.23 4.279-1.124 5.964-2.326 3.41-2.419 5.267-6.05 5.66-9.157.426-3.155-.566-5.708-1.457-7.23-.923-1.544-1.713-2.215-1.627-2.303"/>
        <path fill="#DE4D59" d="M174.607 116.968c.26-.461 2.814 1.253 5.684 3.669l.604.51-.6.525-.353.308c-3.001 2.612-5.634 4.499-5.881 4.212-.25-.284 1.981-2.633 4.982-5.246l.354-.305.004 1.034c-2.843-2.453-4.933-4.56-4.794-4.707"/>
        <path fill="#1A282B" d="M212.846 163.929c.029.021-.366-.066-1.16-.247l-3.557-.824c-3.134-.726-7.84-1.788-13.79-3.257l.303-.047a30.81 30.81 0 0 1-16.04 4.876c-3.2 0-6.588-.376-9.97-1.427-3.38-1.045-6.708-2.783-9.732-5.132-6.053-4.663-10.774-12.155-11.799-20.787a31.65 31.65 0 0 1 1.156-13.114 31.571 31.571 0 0 1 6.86-11.824c6.494-7.254 16.232-10.667 25.09-10.013a31.049 31.049 0 0 1 21.86 11.146c5.066 6.063 7.157 13.429 7.178 19.858a30.735 30.735 0 0 1-4.521 16.093l.004-.373c2.7 4.867 4.731 8.711 6.096 11.254l1.542 2.88c.342.64.508.958.48.938-.026-.021-.245-.38-.646-1.05l-1.74-2.912c-1.514-2.533-3.703-6.131-6.376-10.745l-.106-.184.11-.19c2.348-3.995 4.251-9.42 4.158-15.705-.099-6.226-2.183-13.298-7.097-19.096-4.813-5.79-12.458-10.094-21.028-10.592-8.492-.594-17.784 2.68-23.995 9.619a30.348 30.348 0 0 0-6.572 11.301 30.407 30.407 0 0 0-1.133 12.55c.954 8.266 5.437 15.468 11.224 19.995 2.893 2.277 6.08 3.979 9.327 5.013 3.252 1.042 6.517 1.438 9.614 1.476 6.223-.045 11.62-2.026 15.642-4.513l.144-.09.16.043c5.686 1.505 10.186 2.794 13.35 3.676l3.644 1.017c.84.234 1.291.365 1.32.387M152.248 438.95c-.014.045-.7-.126-1.997-.495-.646-.19-1.452-.408-2.392-.708l-3.212-1.127c-4.796-1.786-11.644-4.725-19.533-9.404-3.955-2.319-8.155-5.078-12.534-8.221-4.334-3.203-8.872-6.762-13.385-10.81-4.503-4.057-9.065-8.503-13.499-13.392a194.998 194.998 0 0 1-12.835-15.873c-4.082-5.691-7.694-11.502-10.943-17.245-3.176-5.786-5.965-11.516-8.305-17.11-4.737-11.173-7.649-21.753-9.531-30.712-1.93-8.966-2.533-16.377-3-21.466l-.24-5.888c-.038-1.346-.035-2.054.01-2.054.048-.003.139.701.266 2.04l.495 5.857c.63 5.06 1.376 12.419 3.417 21.308 1.992 8.882 4.98 19.36 9.748 30.422 2.352 5.541 5.146 11.217 8.313 16.95 3.24 5.69 6.833 11.45 10.883 17.096a198.416 198.416 0 0 0 12.718 15.775c4.388 4.865 8.899 9.298 13.345 13.353 4.46 4.045 8.94 7.61 13.216 10.832 4.32 3.163 8.46 5.95 12.358 8.306a133.786 133.786 0 0 0 19.228 9.738l3.154 1.24 2.343.829c1.265.452 1.925.712 1.912.759"/>
        <path fill="#1A282B" d="M140.87 441.94c-.058-.368 5.81-1.597 13.188-2.764l-.425 1.108-.23-.281c-4.81-5.927-8.471-10.924-8.177-11.164.294-.238 4.43 4.373 9.242 10.3l.228.282.751.926-1.176.183c-7.38 1.148-13.343 1.777-13.401 1.41M458.92 211.549c.022-.007.098.185.229.567l.538 1.704c.225.751.52 1.679.822 2.787l.937 3.855c1.299 5.82 2.78 14.376 3.23 25.055.252 5.336.23 11.19-.052 17.466-.367 6.268-.954 12.962-2.03 19.945-1.097 6.976-2.53 14.259-4.476 21.698a227.392 227.392 0 0 1-7.317 22.633c-2.95 7.605-6.318 14.83-9.851 21.66-1.854 3.368-3.614 6.711-5.576 9.85-1.856 3.202-3.878 6.206-5.824 9.153-7.878 11.742-16.34 21.328-23.876 28.878-7.513 7.603-14.353 12.922-19.013 16.63-2.403 1.724-4.28 3.067-5.582 4.002-.628.431-1.116.767-1.471 1.013-.336.22-.515.325-.53.305-.01-.02.14-.16.448-.42.337-.27.799-.644 1.39-1.12l5.416-4.2c4.548-3.828 11.267-9.24 18.655-16.892 7.41-7.6 15.746-17.194 23.516-28.9 1.92-2.94 3.917-5.934 5.747-9.122 1.938-3.124 3.676-6.451 5.512-9.801 3.493-6.794 6.83-13.974 9.762-21.53a231.028 231.028 0 0 0 7.296-22.48c1.951-7.388 3.402-14.62 4.526-21.55 1.105-6.935 1.728-13.584 2.143-19.814.33-6.235.407-12.057.219-17.366a154.808 154.808 0 0 0-2.783-24.983l-.812-3.867-.692-2.813c-.174-.74-.308-1.316-.408-1.737-.084-.393-.116-.598-.093-.606"/>
        <path fill="#1A282B" d="M469.09 220.75c-.277.25-5.178-4.732-11.018-11.19l1.16-.25-.128.403c-2.722 8.474-5.218 15.248-5.578 15.132-.362-.115 1.552-7.077 4.273-15.55l.129-.403.365-1.134.796.884c5.825 6.472 10.277 11.86 10 12.108M365.647 73.26c-.015.02-.24-.124-.664-.423l-1.86-1.353-2.991-2.233c-1.18-.881-2.653-1.746-4.246-2.806-6.416-4.169-16.212-9.466-28.994-14.4a242.6 242.6 0 0 0-21.281-6.962c-3.882-1.062-7.915-2.107-12.104-3.024-2.091-.468-4.221-.917-6.385-1.323a106.625 106.625 0 0 0-3.268-.585l-3.346-.415c-17.89-2.641-37.972-2.915-58.64.065-20.68 2.95-39.884 8.77-56.48 15.958-16.625 7.175-30.626 15.719-41.654 23.81-1.37 1.026-2.708 2.028-4.01 3.005-1.302.98-2.598 1.897-3.741 2.934l-6.624 5.663-1.525 1.303-1.381 1.351-2.607 2.547a6820.63 6820.63 0 0 0-4.57 4.45l-5.904 6.564-1.561 1.688c-.358.375-.552.56-.571.546-.016-.016.139-.23.461-.636l1.46-1.776 5.727-6.75c1.353-1.37 2.855-2.888 4.499-4.55a3342.515 3342.515 0 0 1 3.946-3.976l1.512-1.33 6.583-5.766c1.14-1.056 2.431-1.99 3.727-2.989 1.3-.993 2.634-2.013 4.002-3.056 11.007-8.23 25.034-16.91 41.727-24.19 16.663-7.293 35.978-13.188 56.791-16.156 20.799-3 41.025-2.686 59.013.04l3.365.433c1.115.187 2.213.387 3.3.604 2.181.42 4.318.88 6.418 1.362 4.208.942 8.253 2.013 12.146 3.104a236.067 236.067 0 0 1 21.328 7.154C340.042 56.214 349.824 61.674 356.18 66c1.577 1.1 3.03 2.004 4.192 2.923l2.921 2.345 1.778 1.46c.396.336.59.516.576.534"/>
        <path fill="#1A282B" d="M91.679 95.912c.368.05-.26 7.01-1.405 15.64l-.942-.723.39-.162c8.223-3.408 15.003-5.885 15.15-5.537.142.35-6.402 3.395-14.625 6.803l-.39.16-1.1.457.159-1.179c1.166-8.629 2.393-15.508 2.763-15.46"/>
    </g>
</svg>
