<svg xmlns="http://www.w3.org/2000/svg" width="697" height="404" viewBox="0 0 697 404">
    <g fill="none" fill-rule="evenodd">
        <g>
            <g>
                <g>
                    <g>
                        <path fill="#F8FBFF" d="M165.38 401.78c-3.548-4.047-6.962-8.214-10.24-12.493-5.201-6.787-13.266-10.77-21.816-10.77-16.497-.017-41.674-.017-41.674-.017-16.434 0-29.756-13.32-29.756-29.755 0-16.434 13.322-29.757 29.756-29.757h94.03c16.434 0 29.755-13.321 29.755-29.755 0-16.436-13.321-29.757-29.755-29.757H29.756C13.322 259.476 0 246.153 0 229.719s13.322-29.758 29.756-29.758H136.88c16.434 0 29.757-13.32 29.757-29.755 0-16.434-13.323-29.757-29.757-29.757H78.557c-16.434 0-29.757-13.322-29.757-29.756s13.323-29.756 29.757-29.756h76.492c7.443 0 14.567-3.016 19.745-8.359C218.726 27.779 279.921 0 347.556 0c91.648 0 171.477 51.011 212.612 126.155 4.823 8.8 14.06 14.272 24.097 14.272 18.073.022 44.191.022 44.191.022 16.434 0 29.755 13.323 29.755 29.757s-13.32 29.755-29.755 29.755h-58.322c-16.434 0-29.759 13.323-29.759 29.757 0 16.435 13.325 29.758 29.76 29.758h96.41c16.434 0 29.755 13.32 29.755 29.757 0 16.434-13.321 29.755-29.755 29.755H596.31c-11.066 0-21.056 6.635-25.346 16.837-10.173 24.24-24.178 46.483-41.248 65.956H165.381" transform="translate(-233 -5571) translate(0 4291) translate(0 1218) translate(233 62)"/>
                        <path fill="#C3EDFF" d="M124.263 284.855c-13.98.04-25.35-11.266-25.386-25.25-.04-13.987 11.267-25.352 25.25-25.39 13.98-.037 25.35 11.267 25.387 25.252.04 13.98-11.268 25.353-25.251 25.388zm54.665-16.065c-3.839-2.208-6.846-5.607-6.681-7.572l-.009-3.645c-.18-1.95 2.814-5.388 6.64-7.601 3.85-2.227 4.789-7.839 2.087-12.485l-9.508-16.373c-2.7-4.629-8.023-6.584-11.873-4.367-3.837 2.224-8.312 3.175-9.966 2.088-1.664-1.063-6.352-7.011-6.365-11.45-.011-4.447-4.402-8.055-9.764-8.04l-18.926.055c-5.36.013-9.73 3.646-9.715 8.092.01 4.437-1.441 8.785-3.206 9.689-1.776.9-9.227 1.969-13.074-.24-3.861-2.191-9.177-.21-11.845 4.433l-9.42 16.427c-2.675 4.664-1.71 10.274 2.16 12.457 3.839 2.206 6.845 5.634 6.679 7.583l.007 1.828.002 1.809c.178 1.97-2.812 5.387-6.638 7.618-3.856 2.233-4.788 7.841-2.09 12.474l9.507 16.37c2.699 4.63 8.024 6.598 11.876 4.368 3.835-2.212 8.306-3.157 9.965-2.095 1.657 1.087 6.35 7.04 6.36 11.475.013 4.442 4.406 8.052 9.76 8.04l18.937-.054c5.353-.017 9.722-3.654 9.713-8.09-.01-4.44 1.439-8.81 3.199-9.706 1.778-.904 9.231-1.955 13.077.236 3.865 2.207 9.176.202 11.851-4.44l9.42-16.423c2.674-4.646 1.703-10.252-2.16-12.46z" transform="translate(-233 -5571) translate(0 4291) translate(0 1218) translate(233 62)"/>
                        <path fill="#2D2E85" d="M172.883 220.285c-3.197-5.48-9.568-7.592-14.124-4.968-2.097 1.217-4.396 2.026-6.229 2.255-.862.108-1.586.16-2.01-.116-.746-.475-2.097-2.053-3.311-3.965-1.21-1.907-2.3-4.164-2.306-6.11-.013-5.264-5.071-9.703-11.416-9.686l-18.93.055c-6.344.018-11.377 4.484-11.36 9.749.006 2.415-.454 4.809-1.18 6.512-.343.807-.67 1.467-1.126 1.698-.81.416-1.132 1.41-.718 2.222.414.81 1.409 1.13 2.22.717.76-.387 1.532-1.172 2.166-2.323 1.135-2.055 1.946-5.42 1.939-8.837-.013-3.633 3.693-6.427 8.07-6.438l18.928-.055c4.376-.01 8.098 2.766 8.107 6.396.009 2.49 1.27 5.427 2.82 7.871 1.55 2.44 3.373 4.367 4.306 4.964.702.462 1.766.737 3.082.706 2.336-.05 5.645-1.045 8.6-2.757 3.141-1.81 7.414-.01 9.618 3.773.46.785 1.47 1.052 2.26.594.785-.46 1.051-1.47.591-2.257h.003zm-48.625 62.92c-13.069.037-23.697-10.531-23.731-23.606-.038-13.075 10.532-23.698 23.606-23.734 13.066-.037 23.698 10.532 23.731 23.606.038 13.07-10.533 23.7-23.605 23.734zm.01 3.3c-14.892.042-27.003-12.001-27.041-26.895-.043-14.899 12-27.003 26.896-27.045 14.89-.04 27.004 12.001 27.041 26.895.044 14.897-12.003 27.007-26.896 27.045h-.001.001z" transform="translate(-233 -5571) translate(0 4291) translate(0 1218) translate(233 62)"/>
                        <path fill="#2D2E85" d="M77.8 261.434c.05.842-.22 1.876-.855 2.967-1.168 2.01-3.646 4.398-6.605 6.125-3.148 1.822-3.693 6.433-1.492 10.213l.001.002s9.507 16.372 9.506 16.368c2.206 3.782 6.478 5.592 9.627 3.77 2.95-1.7 6.253-2.69 8.588-2.75 1.31-.032 2.375.234 3.107.705.927.61 2.74 2.543 4.285 4.976 1.551 2.447 2.813 5.383 2.818 7.872.011 3.627 3.735 6.406 8.107 6.395l18.937-.053c4.369-.015 8.076-2.813 8.067-6.435-.009-3.42.801-6.793 1.934-8.855.634-1.152 1.408-1.94 2.167-2.327.812-.412 1.806-.088 2.22.724.411.811.088 1.806-.724 2.22-.453.228-.777.888-1.12 1.695-.724 1.71-1.181 4.112-1.177 6.534.011 5.254-5.02 9.725-11.358 9.744l-18.937.053c-6.34.015-11.4-4.426-11.416-9.687-.004-1.944-1.093-4.2-2.305-6.111-1.22-1.92-2.58-3.507-3.294-3.978-.428-.272-1.156-.22-2.022-.11-1.834.233-4.133 1.04-6.227 2.247-4.558 2.637-10.933.51-14.128-4.966l-.001-.002s-9.507-16.373-9.507-16.37c-3.194-5.485-1.875-12.09 2.686-14.727 2.082-1.214 3.901-2.805 4.98-4.28.5-.679.89-1.268.845-1.766-.004-.048-.006-.096-.006-.145l-.002-1.806-.007-1.828c0-.049.001-.097.005-.148.042-.488-.353-1.073-.855-1.753-1.087-1.468-2.913-3.056-4.991-4.253-4.584-2.587-5.948-9.19-2.78-14.711l9.42-16.43c.454-.79 1.463-1.062 2.254-.611.79.455 1.063 1.463.61 2.252l-9.421 16.43c-2.182 3.804-1.617 8.415 1.55 10.206 2.965 1.703 5.456 4.092 6.636 6.092.641 1.09.916 2.12.872 2.956l.007 1.791.002 1.765" transform="translate(-233 -5571) translate(0 4291) translate(0 1218) translate(233 62)"/>
                        <path fill="#C3EDFF" d="M62.262 195.995c-8.305.024-15.058-6.69-15.079-14.998-.024-8.307 6.693-15.057 14.998-15.079 8.303-.022 15.056 6.693 15.079 15 .024 8.305-6.695 15.055-14.998 15.077zm32.469-9.542c-2.281-1.309-4.069-3.328-3.967-4.494l-.004-1.078-.003-1.087c-.107-1.16 1.67-3.201 3.944-4.517 2.286-1.322 2.845-4.653 1.24-7.414l-5.649-9.724c-1.605-2.75-4.763-3.913-7.05-2.596-2.28 1.322-4.937 1.886-5.92 1.241-.986-.631-3.773-4.162-3.778-6.802-.007-2.64-2.614-4.785-5.8-4.777l-11.242.033c-3.182.01-5.777 2.167-5.77 4.808.008 2.633-.856 5.216-1.905 5.752-1.052.535-5.477 1.173-7.763-.143-2.293-1.3-5.452-.12-7.034 2.634l-5.597 9.761c-1.587 2.768-1.013 6.096 1.284 7.397 2.279 1.31 4.066 3.346 3.966 4.5l.007 1.09v1.073c.106 1.173-1.669 3.201-3.944 4.524-2.288 1.326-2.843 4.657-1.242 7.41l5.65 9.725c1.603 2.746 4.766 3.914 7.053 2.592 2.28-1.313 4.934-1.874 5.917-1.24.986.644 3.77 4.18 3.777 6.813.01 2.637 2.617 4.78 5.8 4.774l11.245-.031c3.181-.009 5.778-2.167 5.77-4.805-.006-2.638.855-5.23 1.902-5.764 1.053-.537 5.48-1.164 7.767.14 2.293 1.31 5.448.122 7.036-2.635l5.597-9.757c1.582-2.758 1.005-6.09-1.287-7.403z" transform="translate(-233 -5571) translate(0 4291) translate(0 1218) translate(233 62)"/>
                        <path fill="#2D2E85" d="M48.025 154.353c.052-.075.294-.427.41-.702.402-.94.651-2.264.647-3.599-.008-3.46 3.248-6.452 7.415-6.463l11.243-.034c4.171-.01 7.445 2.964 7.454 6.424.002 1.045.614 2.249 1.264 3.272.626.986 1.302 1.82 1.717 2.116.09.007.504.04.793.002 1.015-.127 2.286-.583 3.45-1.256 2.994-1.722 7.199-.405 9.299 3.192l5.65 9.727c2.103 3.617 1.154 7.942-1.84 9.673-1.148.664-2.156 1.538-2.752 2.352-.167.229-.338.596-.37.664l.002.069.006 2.164v.069c.031.07.203.435.37.66.602.81 1.615 1.676 2.769 2.34 3.001 1.719 3.97 6.042 1.897 9.656l-5.598 9.757c-2.079 3.608-6.283 4.959-9.283 3.247-.908-.519-2.253-.594-3.464-.547-1.215.048-2.317.228-2.738.442-.811.413-1.806.09-2.218-.722-.414-.812-.09-1.806.721-2.22.634-.32 2.27-.724 4.104-.796 1.837-.075 3.85.19 5.23.977 1.587.904 3.69-.12 4.787-2.026l5.596-9.753c1.094-1.91.91-4.244-.676-5.153-1.875-1.077-3.442-2.589-4.186-3.85-.458-.776-.638-1.515-.61-2.118l-.006-2.07c-.032-.603.145-1.345.598-2.123.74-1.27 2.3-2.794 4.17-3.874 1.58-.916 1.748-3.25.638-5.16l-5.647-9.721c-1.111-1.903-3.219-2.909-4.797-2-1.866 1.082-3.957 1.698-5.431 1.731-.946.02-1.708-.2-2.207-.525-.594-.381-1.772-1.6-2.76-3.153-.99-1.56-1.775-3.445-1.778-5.036-.005-1.826-1.943-3.137-4.144-3.13l-11.244.032c-2.199.005-4.128 1.327-4.124 3.155.006 2.156-.518 4.275-1.235 5.573-.456.82-1.023 1.37-1.573 1.654-.633.32-2.267.724-4.099.799-1.84.075-3.853-.19-5.225-.977-1.587-.902-3.694.112-4.79 2.02l-5.596 9.759c-1.096 1.91-.92 4.244.665 5.14.792.448 1.072 1.456.624 2.25-.449.792-1.456 1.071-2.25.622-3.009-1.703-3.982-6.028-1.901-9.656l5.597-9.757c2.07-3.61 6.277-4.952 9.288-3.244.905.52 2.246.596 3.454.545 1.171-.048 2.236-.218 2.684-.418M46.28 206.542c-.094-.01-.51-.038-.8 0-1.016.127-2.287.578-3.447 1.247-2.993 1.731-7.206.405-9.304-3.19l-5.651-9.726c-2.097-3.604-1.156-7.93 1.841-9.665.788-.458 1.799-.19 2.255.599.457.787.187 1.797-.6 2.255-1.582.917-1.75 3.251-.644 5.152l.001.002 5.649 9.722c1.108 1.9 3.22 2.91 4.803 1.993 1.862-1.071 3.948-1.683 5.42-1.72.94-.022 1.7.191 2.226.528.591.387 1.76 1.608 2.744 3.159.99 1.56 1.774 3.443 1.778 5.03.007 1.825 1.945 3.136 4.146 3.13l6.345-.018c.91-.002 1.652.735 1.655 1.646.002.91-.735 1.652-1.646 1.654l-6.345.018c-4.169.01-7.443-2.964-7.455-6.42-.002-1.045-.613-2.246-1.265-3.273-.63-.995-1.313-1.835-1.706-2.123" transform="translate(-233 -5571) translate(0 4291) translate(0 1218) translate(233 62)"/>
                        <path fill="#77E4CC" d="M634.575 223.5c0 1.735-1.422 3.152-3.155 3.152h-62.663c-1.733 0-3.155-1.417-3.155-3.153v-40.196c0-1.734 1.422-3.155 3.155-3.155h62.663c1.736 0 3.155 1.421 3.155 3.155v40.196" transform="translate(-233 -5571) translate(0 4291) translate(0 1218) translate(233 62)"/>
                        <path fill="#2D2E85" d="M567.252 205.46v-22.157c0-.827.678-1.505 1.505-1.505h45.318c.91 0 1.65-.74 1.65-1.65 0-.91-.74-1.65-1.65-1.65h-45.318c-2.642 0-4.805 2.165-4.805 4.805v22.156c0 .91.74 1.65 1.65 1.65.911 0 1.65-.74 1.65-1.65M632.925 183.303v40.196c0 .827-.678 1.503-1.505 1.503h-62.663c-.91 0-1.65.741-1.65 1.65 0 .913.74 1.65 1.65 1.65h62.663c2.642 0 4.805-2.159 4.805-4.803v-40.196c0-.91-.74-1.65-1.65-1.65-.911 0-1.65.74-1.65 1.65" transform="translate(-233 -5571) translate(0 4291) translate(0 1218) translate(233 62)"/>
                        <path fill="#2D2E85" d="M590.143 216.967c-.756-.54-1.14-1.518-1.14-2.937v-6.589c0-.435-.052-.8-.155-1.093-.104-.293-.366-.568-.78-.825-.415-.262-1.062-.464-1.935-.612-.357-.064-.62-.204-.797-.422-.178-.22-.266-.493-.266-.825 0-.332.088-.614.266-.83.176-.217.443-.358.797-.422.873-.143 1.52-.345 1.936-.612.413-.26.675-.532.779-.822.105-.295.156-.656.156-1.094v-6.593c0-1.417.383-2.392 1.14-2.935.758-.539 1.839-.814 3.231-.814h.379c.29 0 .545.11.76.328.22.218.33.475.33.766 0 .294-.11.55-.33.767-.215.22-.47.328-.76.328h-.469c-.794 0-1.3.123-1.516.374-.22.249-.328.561-.328.937v6.935c0 1.768-.937 2.996-2.811 3.685 1.872.688 2.811 1.916 2.811 3.685v6.936c0 .372.108.685.328.935.218.251.722.374 1.516.374h.469c.29 0 .545.112.76.33.22.22.33.473.33.766 0 .29-.11.548-.33.766-.215.215-.47.325-.76.325h-.379c-1.392.002-2.473-.268-3.232-.812M605.044 217.453c-.22-.217-.33-.472-.33-.765 0-.293.11-.546.33-.766.218-.218.47-.327.763-.327h.467c.794 0 1.296-.126 1.516-.375.217-.25.327-.565.327-.937v-6.934c0-1.771.935-2.999 2.812-3.685-1.874-.689-2.812-1.916-2.812-3.687v-6.933c0-.376-.11-.688-.327-.939-.218-.248-.722-.374-1.516-.374h-.467c-.292 0-.545-.108-.763-.328-.22-.218-.33-.473-.33-.767 0-.289.11-.548.33-.764.218-.218.47-.328.763-.328h.377c1.392 0 2.468.273 3.23.814.758.541 1.141 1.516 1.141 2.935v6.591c0 .438.05.799.154 1.094.103.292.363.565.783.825.414.264 1.06.466 1.934.611.354.064.62.203.796.423.176.215.267.495.267.827 0 .332-.09.605-.267.825-.178.22-.442.363-.796.422-.873.148-1.52.35-1.934.612-.418.257-.68.535-.783.825-.103.292-.154.658-.154 1.095v6.59c0 1.416-.383 2.393-1.142 2.934-.759.544-1.837.814-3.23.814h-.376c-.292 0-.545-.11-.763-.328M569.736 146.198l2.365-2.368.293-4.51c-.984-.365-1.947-.835-2.878-1.434l-1.621 5.458c-.075.249-.21.465-.379.634-.376.378-.943.546-1.493.38-.797-.237-1.25-1.073-1.015-1.87l1.947-6.56c.005-.015.016-.022.02-.037-.035-.035-.077-.06-.112-.097-.165-.164-.288-.352-.444-.524-.029.011-.049.039-.075.045l-6.563 1.948c-.796.237-1.637-.218-1.87-1.016-.237-.799.227-1.637 1.012-1.869l5.597-1.66c-.66-1.1-1.21-2.235-1.549-3.391l-5.055.327-2.368 2.365c-.587.59-1.54.587-2.127 0-.587-.588-.59-1.54 0-2.128l2.765-2.767c.26-.258.603-.413.968-.438l5.366-.348c-.125-2.808.709-5.478 2.651-7.418 1.925-1.926 4.572-2.763 7.355-2.657l.339-5.284c.024-.366.18-.708.437-.967l2.768-2.766c.587-.59 1.54-.588 2.13 0 .587.59.587 1.54 0 2.127l-2.365 2.366-.324 4.962c1.168.33 2.308.877 3.421 1.536l1.628-5.49c.233-.786 1.07-1.249 1.87-1.013.799.237 1.254 1.074 1.017 1.872l-1.94 6.536c.18.162.373.29.55.463.045.05.078.103.125.15l6.49-1.926c.798-.239 1.636.215 1.872 1.013.16.55 0 1.116-.376 1.49-.174.175-.39.308-.636.38l-5.36 1.594c.601.935 1.079 1.906 1.437 2.898l4.411-.284 2.365-2.366c.588-.588 1.54-.588 2.128 0 .59.588.59 1.54.002 2.126l-2.768 2.768c-.26.26-.603.413-.968.437l-4.426.288c.374 3.134-.46 6.167-2.607 8.313-2.165 2.165-5.223 2.983-8.384 2.596l-.293 4.512c-.024.365-.18.71-.44.968l-2.765 2.763c-.59.592-1.54.592-2.128 0-.592-.587-.592-1.54 0-2.127" transform="translate(-233 -5571) translate(0 4291) translate(0 1218) translate(233 62)"/>
                        <path fill="#F55877" d="M575.364 140.082l-2.97-.761c-.984-.366-1.947-.837-2.878-1.435l-2.56-1.958c.004-.015.015-.022.02-.037-.036-.035-.078-.06-.113-.097-.165-.164-.288-.352-.444-.524-.029.011-.049.039-.075.045l-1.824-2.597c-.66-1.1-1.21-2.235-1.549-3.391l-.45-2.989c-.126-2.808.708-5.478 2.65-7.418 1.925-1.926 4.572-2.763 7.355-2.657l2.985.438c1.17.33 2.31.877 3.423 1.536l2.572 1.905c.18.162.376.29.55.463.046.05.082.103.126.15l1.99 2.55c.601.936 1.08 1.907 1.44 2.9l.743 2.968c.372 3.134-.462 6.167-2.61 8.313-2.162 2.165-5.222 2.985-8.381 2.596" transform="translate(-233 -5571) translate(0 4291) translate(0 1218) translate(233 62)"/>
                        <path fill="#FFF" d="M530.332 131.752v234.283l-143.761 21.298H278.307l-145.535-21.298v-234.28c0-15.618 12.778-28.399 28.393-28.399h340.767c15.625 0 28.4 12.78 28.4 28.397" transform="translate(-233 -5571) translate(0 4291) translate(0 1218) translate(233 62)"/>
                        <path fill="#2D2E85" d="M134.422 366.035v-127.79c0-.91-.739-1.65-1.65-1.65-.91 0-1.65.74-1.65 1.65v127.79c0 .91.74 1.65 1.65 1.65.911 0 1.65-.74 1.65-1.65M134.422 187.014v-55.26c0-14.71 12.034-26.747 26.743-26.747l222.297-.001c.911 0 1.65-.74 1.65-1.65 0-.91-.739-1.65-1.65-1.65l-222.297.001c-16.522 0-30.043 13.522-30.043 30.048v55.26c0 .91.74 1.65 1.65 1.65.911 0 1.65-.74 1.65-1.65M449.379 105.006h52.553c14.718 0 26.75 12.037 26.75 26.746 0 .911.74 1.65 1.65 1.65.913 0 1.65-.739 1.65-1.65 0-16.523-13.517-30.046-30.05-30.046H449.38c-.913 0-1.65.74-1.65 1.65 0 .91.737 1.65 1.65 1.65M528.682 204.183v53.71c0 .912.74 1.65 1.65 1.65.913 0 1.65-.738 1.65-1.65v-53.71c0-.91-.737-1.65-1.65-1.65-.91 0-1.65.74-1.65 1.65M528.682 355.917v10.118c0 .91.74 1.65 1.65 1.65.913 0 1.65-.74 1.65-1.65v-10.118c0-.91-.737-1.65-1.65-1.65-.91 0-1.65.74-1.65 1.65" transform="translate(-233 -5571) translate(0 4291) translate(0 1218) translate(233 62)"/>
                        <path fill="#B2BFEB" d="M161.163 344.737L501.932 344.737 501.932 131.755 161.163 131.755z" transform="translate(-233 -5571) translate(0 4291) translate(0 1218) translate(233 62)"/>
                        <path fill="#2D2E85" d="M500.282 133.405h-319.64c-.91 0-1.65-.74-1.65-1.65 0-.911.74-1.65 1.65-1.65h321.29c.913 0 1.65.738 1.65 1.65v73.447c0 .908-.739 1.65-1.65 1.65-.908 0-1.65-.742-1.65-1.65v-71.797M162.813 343.087h339.12c.91 0 1.65.739 1.65 1.65 0 .908-.74 1.65-1.65 1.65h-340.77c-.91 0-1.65-.74-1.65-1.65v-70.403c0-.913.74-1.65 1.65-1.65.913 0 1.65.737 1.65 1.65v68.753" transform="translate(-233 -5571) translate(0 4291) translate(0 1218) translate(233 62)"/>
                        <path fill="#3E405C" d="M544.53 366.035v7.097c0 15.62-12.772 28.4-28.392 28.4H146.97c-15.622 0-28.4-12.78-28.4-28.4v-7.097h177.487l3.94 7.84c1.734 3.52 6.354 6.354 10.257 6.354h42.596c3.903 0 8.521-2.833 10.257-6.353l3.944-7.841h177.479" transform="translate(-233 -5571) translate(0 4291) translate(0 1218) translate(233 62)"/>
                        <path fill="#6C6E8D" d="M358.563 378.509c1.958-1.157 3.64-2.803 4.545-4.633l3.944-7.841h177.479v7.097c0 1.837-.176 3.632-.515 5.377H358.563zm-239.478 0c-.338-1.745-.515-3.54-.515-5.377v-7.097h177.488l3.94 7.84c.903 1.831 2.586 3.477 4.541 4.634H119.085z" transform="translate(-233 -5571) translate(0 4291) translate(0 1218) translate(233 62)"/>
                        <path fill="#000" d="M295.04 367.685h-42.87c-.908 0-1.65-.74-1.65-1.65 0-.91.742-1.65 1.65-1.65h43.888c.625 0 1.195.352 1.477.91l3.942 7.85c1.485 3.012 5.438 5.434 8.778 5.434h42.596c3.34 0 7.291-2.422 8.776-5.434l3.95-7.851c.28-.557.85-.91 1.475-.91h177.479c.913 0 1.65.74 1.65 1.65v7.098c0 16.526-13.515 30.05-30.043 30.05H248.424c-.91 0-1.65-.74-1.65-1.65 0-.91.74-1.65 1.65-1.65h267.714c14.713 0 26.743-12.038 26.743-26.75v-5.447H368.069l-3.483 6.921c-1.986 4.028-7.269 7.273-11.735 7.273h-42.596c-4.468 0-9.753-3.247-11.733-7.262l-3.48-6.932h-.002M120.22 367.685v5.447c0 14.712 12.037 26.75 26.749 26.75h83.899c.91 0 1.65.74 1.65 1.65 0 .91-.74 1.65-1.65 1.65h-83.9c-16.526 0-30.048-13.524-30.048-30.05v-7.097c0-.91.74-1.65 1.65-1.65h88.265c.911 0 1.65.74 1.65 1.65 0 .91-.739 1.65-1.65 1.65H120.22" transform="translate(-233 -5571) translate(0 4291) translate(0 1218) translate(233 62)"/>
                        <path fill="#F3967A" d="M508.842 261.854v40.594c0 4.477 3.655 8.134 8.112 8.134h18.801c-.128 8.804-7.39 15.978-16.243 15.978h-67.14c-8.933 0-16.24-7.304-16.24-16.223V189.61c.016-8.914 7.322-16.207 16.24-16.207h67.14c8.772 0 15.968 7.033 16.225 15.74.018.161.018.34.018.5v64.097h-18.801c-4.46 0-8.112 3.657-8.112 8.114" transform="translate(-233 -5571) translate(0 4291) translate(0 1218) translate(233 62)"/>
                        <path fill="#FFF" d="M535.74 189.144l-.388.484h-99.204l-.016-.018c.016-8.916 7.322-16.207 16.24-16.207h67.14c8.774 0 15.968 7.033 16.228 15.74M472.3 207.175h-20.295c-1.183 0-2.142-.96-2.142-2.145 0-1.184.959-2.143 2.142-2.143H472.3c1.186 0 2.148.96 2.148 2.143 0 1.186-.962 2.145-2.148 2.145M492.598 223.413h-28.416c-1.183 0-2.142-.959-2.142-2.143 0-1.183.959-2.145 2.142-2.145l28.416-.002c1.183 0 2.145.964 2.145 2.148 0 1.183-.962 2.142-2.145 2.142M516.954 239.65h-52.77c-1.185 0-2.142-.962-2.142-2.146 0-1.181.957-2.142 2.143-2.142h52.769c1.186 0 2.145.96 2.145 2.142 0 1.184-.96 2.145-2.145 2.145M492.598 255.887h-28.416c-1.183 0-2.142-.959-2.142-2.144 0-1.184.959-2.145 2.142-2.145h28.416c1.183 0 2.145.96 2.145 2.144 0 1.186-.962 2.145-2.145 2.145M472.3 272.123h-20.295c-1.183 0-2.142-.96-2.142-2.142 0-1.186.959-2.145 2.142-2.145H472.3c1.186 0 2.148.959 2.148 2.145 0 1.183-.962 2.142-2.148 2.142M492.598 288.362h-28.416c-1.183 0-2.142-.962-2.142-2.145 0-1.184.959-2.145 2.142-2.145h28.416c1.183 0 2.145.959 2.145 2.145 0 1.183-.962 2.145-2.145 2.145M472.3 304.598h-20.295c-1.183 0-2.142-.962-2.142-2.145 0-1.184.959-2.145 2.142-2.145H472.3c1.186 0 2.148.961 2.148 2.145 0 1.186-.962 2.145-2.148 2.145" transform="translate(-233 -5571) translate(0 4291) translate(0 1218) translate(233 62)"/>
                        <path fill="#6236FF" d="M590.022 261.86v40.595c0 4.464-3.654 8.118-8.118 8.118h-64.95c-4.466 0-8.12-3.654-8.12-8.118V261.86c0-4.462 3.654-8.116 8.12-8.116h64.95c4.466 0 8.118 3.654 8.118 8.115" transform="translate(-233 -5571) translate(0 4291) translate(0 1218) translate(233 62)"/>
                        <path fill="#2D2E85" d="M510.484 277.758V261.86c0-3.556 2.912-6.466 6.47-6.466h55.644c.913 0 1.65-.74 1.65-1.65 0-.911-.737-1.65-1.65-1.65h-55.644c-5.373 0-9.77 4.395-9.77 9.766v15.897c0 .913.739 1.65 1.65 1.65.91 0 1.65-.737 1.65-1.65M588.372 283.955v18.5c0 3.555-2.91 6.468-6.468 6.468h-64.95c-.911 0-1.65.74-1.65 1.65 0 .91.739 1.65 1.65 1.65h64.95c5.373 0 9.768-4.398 9.768-9.768v-18.5c0-.91-.741-1.65-1.65-1.65-.91 0-1.65.74-1.65 1.65" transform="translate(-233 -5571) translate(0 4291) translate(0 1218) translate(233 62)"/>
                        <path fill="#FFF" d="M565.666 296.482c-.55 0-1.098-.21-1.516-.63-.84-.835-.84-2.193 0-3.03l10.664-10.664-10.664-10.66c-.84-.837-.84-2.193 0-3.033.836-.838 2.194-.838 3.03 0l12.179 12.18c.403.402.63.945.63 1.513 0 .567-.227 1.115-.63 1.518l-12.18 12.179c-.415.418-.965.627-1.513.627M533.194 296.482c-.55 0-1.098-.21-1.518-.63L519.5 283.677c-.405-.405-.627-.95-.627-1.52 0-.566.225-1.111.627-1.514l12.177-12.18c.838-.835 2.196-.835 3.032 0 .838.841.838 2.199 0 3.035l-10.664 10.659 10.664 10.665c.838.838.838 2.196 0 3.032-.418.42-.966.629-1.516.629h.002M545.369 296.482c-.224 0-.453-.035-.678-.11-1.124-.374-1.731-1.59-1.355-2.713l8.118-24.354c.374-1.122 1.589-1.733 2.713-1.357 1.124.374 1.731 1.588 1.355 2.713l-8.118 24.356c-.301.897-1.137 1.465-2.035 1.465" transform="translate(-233 -5571) translate(0 4291) translate(0 1218) translate(233 62)"/>
                        <path fill="#2D2E85" d="M530.69 319.674c-2.681 3.195-6.705 5.236-11.178 5.236h-67.14c-3.792 0-7.26-1.467-9.86-3.859-.67-.615-1.716-.572-2.332.1-.618.668-.574 1.713.097 2.33 3.19 2.934 7.443 4.73 12.096 4.73h67.14c5.484 0 10.414-2.498 13.703-6.411.588-.698.497-1.74-.2-2.326-.697-.585-1.74-.495-2.325.2M437.782 228.267V189.61c.016-8.006 6.578-14.557 14.59-14.557h67.14c3.648 0 6.992 1.355 9.553 3.584.686.598 1.731.525 2.327-.16.601-.69.528-1.73-.16-2.328-3.144-2.737-7.245-4.396-11.72-4.396h-67.14c-9.824 0-17.872 8.032-17.89 17.855v38.659c0 .912.74 1.65 1.65 1.65.909 0 1.65-.738 1.65-1.65M534.105 199.378v54.362c0 .911.741 1.65 1.65 1.65.913 0 1.65-.739 1.65-1.65v-54.362c0-.91-.737-1.65-1.65-1.65-.909 0-1.65.74-1.65 1.65" transform="translate(-233 -5571) translate(0 4291) translate(0 1218) translate(233 62)"/>
                        <path fill="#F9D94E" d="M422.877 93.107v227.216H183.975V93.108c0-6.396 5.234-11.63 11.627-11.63h215.644c6.398 0 11.631 5.231 11.631 11.63" transform="translate(-233 -5571) translate(0 4291) translate(0 1218) translate(233 62)"/>
                        <path fill="#FFF" d="M211.409 126.466h-4.123c-1.091 0-1.975-.884-1.975-1.978 0-1.093.884-1.979 1.975-1.979h4.123c1.093 0 1.98.886 1.98 1.98 0 1.093-.887 1.977-1.98 1.977M211.409 142.244h-4.123c-1.091 0-1.975-.882-1.975-1.977 0-1.092.884-1.976 1.975-1.976h4.123c1.093 0 1.98.884 1.98 1.976 0 1.095-.887 1.977-1.98 1.977M211.409 158.025h-4.123c-1.091 0-1.975-.887-1.975-1.978s.884-1.978 1.975-1.978h4.123c1.093 0 1.98.885 1.98 1.978 0 1.091-.887 1.978-1.98 1.978M211.409 173.805h-4.123c-1.091 0-1.975-.886-1.975-1.98 0-1.088.884-1.977 1.975-1.977h4.123c1.093 0 1.98.888 1.98 1.977 0 1.094-.887 1.98-1.98 1.98M211.409 189.586h-4.123c-1.091 0-1.975-.887-1.975-1.978 0-1.09.884-1.977 1.975-1.977h4.123c1.093 0 1.98.886 1.98 1.977 0 1.091-.887 1.978-1.98 1.978M211.409 205.364h-4.123c-1.091 0-1.975-.884-1.975-1.977 0-1.091.884-1.978 1.975-1.978h4.123c1.093 0 1.98.887 1.98 1.978 0 1.093-.887 1.977-1.98 1.977M211.409 221.145h-4.123c-1.091 0-1.975-.884-1.975-1.978 0-1.093.884-1.975 1.975-1.975h4.123c1.093 0 1.98.882 1.98 1.975 0 1.091-.887 1.978-1.98 1.978M211.409 236.926h-4.123c-1.091 0-1.975-.887-1.975-1.978s.884-1.98 1.975-1.98h4.123c1.093 0 1.98.889 1.98 1.98s-.887 1.978-1.98 1.978M211.409 252.704h-4.123c-1.091 0-1.975-.884-1.975-1.98 0-1.091.884-1.978 1.975-1.978h4.123c1.093 0 1.98.887 1.98 1.978 0 1.098-.887 1.98-1.98 1.98M211.409 268.485h-4.123c-1.091 0-1.975-.887-1.975-1.978s.884-1.978 1.975-1.978h4.123c1.093 0 1.98.887 1.98 1.978s-.887 1.978-1.98 1.978M211.409 284.265h-4.123c-1.091 0-1.975-.886-1.975-1.977 0-1.094.884-1.98 1.975-1.98h4.123c1.093 0 1.98.886 1.98 1.98 0 1.09-.887 1.977-1.98 1.977M211.409 300.041h-4.123c-1.091 0-1.975-.882-1.975-1.975s.884-1.978 1.975-1.978h4.123c1.093 0 1.98.885 1.98 1.978s-.887 1.976-1.98 1.976M264.71 126.466h-35.193c-1.091 0-1.978-.884-1.978-1.978 0-1.093.887-1.979 1.978-1.979h35.194c1.09 0 1.975.886 1.975 1.98 0 1.093-.884 1.977-1.975 1.977" transform="translate(-233 -5571) translate(0 4291) translate(0 1218) translate(233 62)"/>
                        <path fill="#B2BFEB" d="M271.544 126.466c-1.091 0-1.978-.884-1.978-1.978 0-1.092.887-1.979 1.978-1.979h35.191c1.096 0 1.98.885 1.98 1.978 0 1.091-.884 1.977-1.98 1.977l-35.191.002" transform="translate(-233 -5571) translate(0 4291) translate(0 1218) translate(233 62)"/>
                        <path fill="#F55877" d="M287.26 142.244h-46.809c-1.091 0-1.975-.882-1.975-1.977 0-1.092.884-1.976 1.975-1.976h46.81c1.09 0 1.977.884 1.977 1.976 0 1.095-.886 1.977-1.977 1.977" transform="translate(-233 -5571) translate(0 4291) translate(0 1218) translate(233 62)"/>
                        <path fill="#FFF" d="M316.646 142.244h-21.868c-1.091 0-1.98-.882-1.98-1.977 0-1.092.889-1.976 1.98-1.976h21.868c1.093 0 1.978.884 1.978 1.976 0 1.095-.885 1.977-1.978 1.977" transform="translate(-233 -5571) translate(0 4291) translate(0 1218) translate(233 62)"/>
                        <path fill="#B2BFEB" d="M344.663 142.244h-21.866c-1.093 0-1.98-.882-1.98-1.977 0-1.092.887-1.976 1.98-1.976h21.866c1.093 0 1.978.884 1.978 1.976 0 1.095-.887 1.977-1.978 1.977" transform="translate(-233 -5571) translate(0 4291) translate(0 1218) translate(233 62)"/>
                        <path fill="#FFF" d="M275.986 158.025h-26.332c-1.091 0-1.976-.887-1.976-1.978s.885-1.978 1.976-1.978h26.332c1.09 0 1.977.885 1.977 1.978 0 1.091-.886 1.978-1.977 1.978M297.854 173.805h-48.2c-1.091 0-1.976-.886-1.976-1.98 0-1.088.885-1.977 1.976-1.977h48.2c1.093 0 1.98.888 1.98 1.977 0 1.094-.887 1.98-1.98 1.98" transform="translate(-233 -5571) translate(0 4291) translate(0 1218) translate(233 62)"/>
                        <path fill="#F55877" d="M335.436 173.805h-31.092c-1.092 0-1.978-.886-1.978-1.98 0-1.09.886-1.977 1.978-1.977h31.092c1.094 0 1.978.886 1.978 1.977 0 1.094-.884 1.98-1.978 1.98" transform="translate(-233 -5571) translate(0 4291) translate(0 1218) translate(233 62)"/>
                        <path fill="#B2BFEB" d="M391.131 173.805h-49.544c-1.093 0-1.98-.886-1.98-1.98 0-1.09.887-1.977 1.98-1.977h49.544c1.092 0 1.976.886 1.976 1.977 0 1.094-.884 1.98-1.976 1.98" transform="translate(-233 -5571) translate(0 4291) translate(0 1218) translate(233 62)"/>
                        <path fill="#F55877" d="M298.9 189.586h-35.899c-1.091 0-1.975-.887-1.975-1.978 0-1.09.884-1.977 1.975-1.977h35.9c1.091 0 1.98.886 1.98 1.977 0 1.091-.889 1.978-1.98 1.978" transform="translate(-233 -5571) translate(0 4291) translate(0 1218) translate(233 62)"/>
                        <path fill="#FFF" d="M339.88 189.586h-35.9c-1.09 0-1.975-.887-1.975-1.978 0-1.09.884-1.977 1.976-1.977h35.9c1.09 0 1.977.886 1.977 1.977 0 1.091-.887 1.978-1.978 1.978M268.81 205.364h-19.156c-1.094 0-1.978-.884-1.978-1.977 0-1.091.884-1.978 1.978-1.978h19.155c1.094 0 1.978.887 1.978 1.978 0 1.093-.884 1.977-1.978 1.977M293.755 205.364h-19.158c-1.09 0-1.977-.884-1.977-1.977 0-1.091.886-1.978 1.977-1.978h19.158c1.091 0 1.976.887 1.976 1.978 0 1.093-.885 1.977-1.976 1.977" transform="translate(-233 -5571) translate(0 4291) translate(0 1218) translate(233 62)"/>
                        <path fill="#B2BFEB" d="M351.837 205.364H299.54c-1.091 0-1.978-.884-1.978-1.977 0-1.091.887-1.978 1.978-1.978h52.298c1.091 0 1.978.887 1.978 1.978 0 1.093-.887 1.977-1.978 1.977" transform="translate(-233 -5571) translate(0 4291) translate(0 1218) translate(233 62)"/>
                        <path fill="#F55877" d="M377.122 205.364h-19.156c-1.093 0-1.977-.884-1.977-1.977 0-1.091.884-1.978 1.977-1.978h19.156c1.095 0 1.98.887 1.98 1.978 0 1.093-.887 1.977-1.98 1.977" transform="translate(-233 -5571) translate(0 4291) translate(0 1218) translate(233 62)"/>
                        <path fill="#B2BFEB" d="M296.853 221.145H263c-1.091 0-1.975-.884-1.975-1.978 0-1.093.884-1.975 1.975-1.975h33.852c1.09 0 1.975.882 1.975 1.975 0 1.091-.886 1.978-1.975 1.978" transform="translate(-233 -5571) translate(0 4291) translate(0 1218) translate(233 62)"/>
                        <path fill="#FFF" d="M323.501 236.926h-60.5c-1.091 0-1.975-.887-1.975-1.978s.884-1.98 1.975-1.98h60.5c1.091 0 1.978.889 1.978 1.98s-.887 1.978-1.978 1.978" transform="translate(-233 -5571) translate(0 4291) translate(0 1218) translate(233 62)"/>
                        <path fill="#F55877" d="M363.136 236.926h-34.168c-1.093 0-1.978-.887-1.978-1.978s.885-1.98 1.978-1.98h34.168c1.092 0 1.978.889 1.978 1.98s-.886 1.978-1.978 1.978" transform="translate(-233 -5571) translate(0 4291) translate(0 1218) translate(233 62)"/>
                        <path fill="#B2BFEB" d="M284.185 252.704h-34.531c-1.091 0-1.976-.884-1.976-1.98 0-1.091.885-1.978 1.976-1.978h34.531c1.093 0 1.98.887 1.98 1.978-.002 1.098-.889 1.98-1.98 1.98" transform="translate(-233 -5571) translate(0 4291) translate(0 1218) translate(233 62)"/>
                        <path fill="#F55877" d="M285.234 268.485h-22.233c-1.091 0-1.975-.887-1.975-1.978s.884-1.978 1.975-1.978h22.233c1.092 0 1.978.887 1.978 1.978s-.886 1.978-1.978 1.978" transform="translate(-233 -5571) translate(0 4291) translate(0 1218) translate(233 62)"/>
                        <path fill="#FFF" d="M328.262 268.485h-36.9c-1.094 0-1.978-.887-1.978-1.978s.884-1.978 1.977-1.978h36.901c1.091 0 1.976.887 1.976 1.978s-.885 1.978-1.976 1.978M264.048 284.265h-23.597c-1.091 0-1.978-.886-1.978-1.977 0-1.094.887-1.98 1.978-1.98h23.597c1.094 0 1.98.886 1.98 1.98 0 1.09-.886 1.977-1.98 1.977" transform="translate(-233 -5571) translate(0 4291) translate(0 1218) translate(233 62)"/>
                        <path fill="#B2BFEB" d="M325.164 284.265h-54.69c-1.093 0-1.977-.886-1.977-1.977 0-1.094.884-1.98 1.978-1.98h54.69c1.09 0 1.977.886 1.977 1.98-.002 1.09-.886 1.977-1.978 1.977" transform="translate(-233 -5571) translate(0 4291) translate(0 1218) translate(233 62)"/>
                        <path fill="#FFF" d="M287.604 300.041h-37.95c-1.091 0-1.976-.882-1.976-1.975s.885-1.978 1.976-1.978h37.95c1.091 0 1.975.885 1.975 1.978s-.884 1.976-1.975 1.976M422.877 93.107v11.63l-238.902.002v-11.63c0-6.397 5.234-11.63 11.627-11.63h215.644c6.398-.002 11.631 5.23 11.631 11.628" transform="translate(-233 -5571) translate(0 4291) translate(0 1218) translate(233 62)"/>
                        <path fill="#F55877" d="M411.158 90.423c1.483 0 2.684 1.202 2.684 2.684 0 1.483-1.201 2.684-2.684 2.684s-2.684-1.201-2.684-2.684c0-1.482 1.201-2.684 2.684-2.684" transform="translate(-233 -5571) translate(0 4291) translate(0 1218) translate(233 62)"/>
                        <path fill="#6D7BED" d="M401.093 90.423c1.483 0 2.684 1.202 2.684 2.684 0 1.483-1.201 2.684-2.684 2.684s-2.684-1.201-2.684-2.684c0-1.482 1.201-2.684 2.684-2.684M391.026 90.424c1.483 0 2.684 1.202 2.684 2.683 0 1.482-1.201 2.683-2.684 2.683-1.48 0-2.682-1.201-2.682-2.683 0-1.481 1.201-2.683 2.682-2.683M246.061 93.108c0 1.475-1.21 2.683-2.684 2.683h-44.284c-1.478 0-2.684-1.207-2.684-2.683 0-1.477 1.206-2.684 2.684-2.684h44.284c1.474 0 2.684 1.207 2.684 2.684" transform="translate(-233 -5571) translate(0 4291) translate(0 1218) translate(233 62)"/>
                        <path fill="#2D2E85" d="M185.625 318.673h30.998c.91 0 1.65.74 1.65 1.65 0 .911-.74 1.65-1.65 1.65h-32.648c-.913 0-1.65-.739-1.65-1.65v-15.712c0-.91.737-1.65 1.65-1.65.909 0 1.65.74 1.65 1.65v14.062M185.625 281.671v-69.513c0-.913-.741-1.65-1.65-1.65-.913 0-1.65.737-1.65 1.65v69.513c0 .911.737 1.65 1.65 1.65.909 0 1.65-.739 1.65-1.65M185.625 149.322V93.108c0-5.489 4.49-9.98 9.977-9.98H337.17c.91 0 1.65-.74 1.65-1.65 0-.91-.74-1.65-1.65-1.65H195.602c-7.302 0-13.277 5.975-13.277 13.28v56.214c0 .908.737 1.65 1.65 1.65.909 0 1.65-.742 1.65-1.65M368.507 83.128h42.739c5.489-.001 9.981 4.49 9.981 9.98v89.212c0 .908.74 1.65 1.65 1.65.911 0 1.65-.742 1.65-1.65V93.107c0-7.305-5.977-13.28-13.281-13.279h-42.74c-.912 0-1.65.74-1.65 1.65 0 .91.738 1.65 1.65 1.65M421.227 318.673V214.618c0-.909.74-1.65 1.65-1.65.911 0 1.65.741 1.65 1.65v105.705c0 .911-.739 1.65-1.65 1.65H232.68c-.913 0-1.65-.739-1.65-1.65 0-.91.737-1.65 1.65-1.65h188.548" transform="translate(-233 -5571) translate(0 4291) translate(0 1218) translate(233 62)"/>
                    </g>
                </g>
            </g>
        </g>
    </g>
</svg>
