<svg xmlns="http://www.w3.org/2000/svg" width="636" height="275" viewBox="0 0 636 275">
    <g fill="none" fill-rule="evenodd">
        <path fill="#EFEFEF" d="M161.349 156c0 35.314-28.627 63.941-63.941 63.941-35.314 0-63.942-28.627-63.942-63.941 0-35.314 28.628-63.942 63.942-63.942s63.94 28.628 63.94 63.942"/>
        <path stroke="#54504F" stroke-linecap="round" stroke-linejoin="round" stroke-width="2" d="M131.396 125.923c-.317-.357-.64-.71-.967-1.057"/>
        <path stroke="#54504F" stroke-dasharray="11.802,11.802" stroke-linecap="round" stroke-linejoin="round" stroke-width="2" d="M128.432 122.876a45.214 45.214 0 0 0-31.024-12.25 45.205 45.205 0 0 0-29.482 10.868"/>
        <path stroke="#54504F" stroke-linecap="round" stroke-linejoin="round" stroke-width="2" d="M66.868 122.427c-.353.32-.701.648-1.044.98M56.7 176.083c.212.427.43.853.655 1.275"/>
        <path stroke="#54504F" stroke-dasharray="11.988,11.988" stroke-linecap="round" stroke-linejoin="round" stroke-width="2" d="M58.782 179.84c7.99 12.93 22.294 21.535 38.626 21.535 17.596 0 32.837-9.991 40.366-24.616"/>
        <path stroke="#54504F" stroke-linecap="round" stroke-linejoin="round" stroke-width="2" d="M138.407 175.48c.205-.431.404-.866.595-1.303"/>
        <path fill="#E3E3E3" d="M126.777 166.125l-29.33 16.906L72.63 169.49l5.137-20.081 19.825-9.21 22.789 13.42 6.396 12.507"/>
        <path stroke="#54504F" stroke-linecap="round" stroke-linejoin="round" stroke-width="8" d="M126.777 166.125l-29.33 16.906L72.63 169.49l5.137-20.081 19.825-9.21 22.789 13.42z"/>
        <path fill="#E3E3E3" d="M95.332 180.652l3.256 3.664a4.145 4.145 0 0 0 6.195-5.505l-3.255-3.665"/>
        <path stroke="#54504F" stroke-linecap="round" stroke-linejoin="round" stroke-width="2" d="M95.332 180.652l3.256 3.664a4.145 4.145 0 0 0 6.195-5.505l-3.255-3.665"/>
        <path fill="#E3E3E3" d="M99.394 172.746l6.715 7.555a4.142 4.142 0 0 0 5.85.344 4.143 4.143 0 0 0 .346-5.85l-6.714-7.556"/>
        <path stroke="#54504F" stroke-linecap="round" stroke-linejoin="round" stroke-width="2" d="M99.394 172.746l6.715 7.555a4.142 4.142 0 0 0 5.85.344 4.143 4.143 0 0 0 .346-5.85l-6.714-7.556"/>
        <path fill="#E3E3E3" d="M108.488 170.498l5.422 6.103a4.145 4.145 0 1 0 6.196-5.505l-5.422-6.102"/>
        <path stroke="#54504F" stroke-linecap="round" stroke-linejoin="round" stroke-width="2" d="M108.488 170.498l5.422 6.103a4.145 4.145 0 1 0 6.196-5.505l-5.422-6.102"/>
        <path fill="#E3E3E3" d="M97.406 139.463l-1.753-.992a5.564 5.564 0 0 0-4.713-.36l-12.17 4.617-34.952-13.348-6.467 26.793 30.686 9.952 4.672 3.257"/>
        <path stroke="#54504F" stroke-linecap="round" stroke-linejoin="round" stroke-width="2" d="M97.406 139.463l-1.753-.992a5.564 5.564 0 0 0-4.713-.36l-12.17 4.617-34.952-13.348-6.467 26.793 30.686 9.952 4.672 3.257"/>
        <path fill="#FFF" d="M118.195 156.465l-17.763-8.378-2.402 1.294-6.57 8.08a4.013 4.013 0 0 1-6.503-4.68l5.448-8.598a5.56 5.56 0 0 1 1.96-1.864l6.797-3.848a5.564 5.564 0 0 1 4.714-.36l12.17 4.617 34.95-13.348 6.469 26.793-30.688 9.952"/>
        <path stroke="#54504F" stroke-linecap="round" stroke-linejoin="round" stroke-width="2" d="M118.195 156.465l-17.763-8.378-2.402 1.294-6.57 8.08a4.013 4.013 0 0 1-6.503-4.68l5.448-8.598a5.56 5.56 0 0 1 1.96-1.864l6.797-3.848a5.564 5.564 0 0 1 4.714-.36l12.17 4.617 34.95-13.348 6.469 26.793-30.688 9.952"/>
        <path fill="#E3E3E3" d="M112 161.971l9.52 10.715a4.142 4.142 0 0 0 5.85.344 4.144 4.144 0 0 0 .346-5.85l-9.52-10.715-2.296-1.082"/>
        <path stroke="#54504F" stroke-linecap="round" stroke-linejoin="round" stroke-width="2" d="M112 161.971l9.52 10.715a4.142 4.142 0 0 0 5.85.344 4.144 4.144 0 0 0 .346-5.85l-9.52-10.715-2.296-1.082"/>
        <path fill="#FFF" d="M90.257 187.178l-.274-.203a3.331 3.331 0 0 1-.697-4.66l2.02-2.73a3.33 3.33 0 0 1 4.661-.698l.274.203a3.331 3.331 0 0 1 .697 4.66l-2.02 2.73a3.332 3.332 0 0 1-4.66.698"/>
        <path stroke="#54504F" stroke-linecap="round" stroke-linejoin="round" stroke-width="2" d="M90.257 187.178l-.274-.203a3.331 3.331 0 0 1-.697-4.66l2.02-2.73a3.33 3.33 0 0 1 4.661-.698l.274.203a3.331 3.331 0 0 1 .697 4.66l-2.02 2.73a3.332 3.332 0 0 1-4.66.698z"/>
        <path fill="#FFF" d="M83.932 183.946l-.273-.203a3.331 3.331 0 0 1-.697-4.66l4.235-5.726a3.332 3.332 0 0 1 4.66-.695l.275.203a3.331 3.331 0 0 1 .697 4.66l-4.235 5.723a3.33 3.33 0 0 1-4.662.698"/>
        <path stroke="#54504F" stroke-linecap="round" stroke-linejoin="round" stroke-width="2" d="M83.932 183.946l-.273-.203a3.331 3.331 0 0 1-.697-4.66l4.235-5.726a3.332 3.332 0 0 1 4.66-.695l.275.203a3.331 3.331 0 0 1 .697 4.66l-4.235 5.723a3.33 3.33 0 0 1-4.662.698z"/>
        <path fill="#FFF" d="M78.993 178.844l-.274-.203a3.334 3.334 0 0 1-.697-4.662l1.475-1.993a3.332 3.332 0 0 1 4.661-.697l.275.203a3.331 3.331 0 0 1 .696 4.66l-1.475 1.994a3.334 3.334 0 0 1-4.661.698"/>
        <path stroke="#54504F" stroke-linecap="round" stroke-linejoin="round" stroke-width="2" d="M78.993 178.844l-.274-.203a3.334 3.334 0 0 1-.697-4.662l1.475-1.993a3.332 3.332 0 0 1 4.661-.697l.275.203a3.331 3.331 0 0 1 .696 4.66l-1.475 1.994a3.334 3.334 0 0 1-4.661.698z"/>
        <path fill="#FFF" d="M73.361 174.676l-.274-.203a3.332 3.332 0 0 1-.697-4.66l.24-.324a3.332 3.332 0 0 1 4.66-.697l.275.203a3.333 3.333 0 0 1 .697 4.661l-.24.323a3.332 3.332 0 0 1-4.66.697"/>
        <path stroke="#54504F" stroke-linecap="round" stroke-linejoin="round" stroke-width="2" d="M73.361 174.676l-.274-.203a3.332 3.332 0 0 1-.697-4.66l.24-.324a3.332 3.332 0 0 1 4.66-.697l.275.203a3.333 3.333 0 0 1 .697 4.661l-.24.323a3.332 3.332 0 0 1-4.66.697zm48.985-39.131l-6.3 2.406-6.342-2.406h12.642zm-62.095 33.428l6.758 2.192-6.758-2.192z"/>
        <path fill="#EFEFEF" d="M550.03 156.543c0 35.314-28.626 63.943-63.94 63.943-35.315 0-63.942-28.63-63.942-63.943 0-35.314 28.627-63.941 63.941-63.941 35.315 0 63.941 28.627 63.941 63.941"/>
        <path fill="#F49D91" d="M483.7 171.669c-8.36 0-15.124-6.765-15.124-15.126 0-8.36 6.765-15.124 15.125-15.124s15.124 6.765 15.124 15.124c0 8.36-6.764 15.126-15.124 15.126zm0-45.375c-16.72 0-30.248 13.53-30.248 30.25s13.529 30.249 30.249 30.249 30.25-13.529 30.25-30.25c0-16.72-13.53-30.25-30.25-30.25z"/>
        <path stroke="#54504F" stroke-dasharray="11.938,11.938" stroke-linecap="round" stroke-linejoin="round" stroke-width="2" d="M440.714 156.543c0 25.081 20.296 45.374 45.375 45.374 25.08 0 45.375-20.293 45.375-45.374 0-8.33-2.238-16.132-6.148-22.838a45.558 45.558 0 0 0-13.087-14.267c-7.387-5.21-16.402-8.269-26.14-8.269-25.08 0-45.375 20.295-45.375 45.374z"/>
        <path stroke="#54504F" stroke-linecap="round" stroke-linejoin="round" stroke-width="2" d="M486.09 126.294c16.719 0 30.25 13.53 30.25 30.25s-13.531 30.249-30.25 30.249c-16.72 0-30.25-13.529-30.25-30.25 0-16.72 13.53-30.25 30.25-30.25zm-15.125 30.25c0 8.36 6.764 15.125 15.124 15.125s15.124-6.765 15.124-15.126c0-8.36-6.764-15.124-15.124-15.124s-15.124 6.765-15.124 15.124z"/>
        <path fill="#54504F" d="M482.062 156.543a4.025 4.025 0 0 0 4.027 4.029 4.027 4.027 0 0 0 4.03-4.029 4.027 4.027 0 0 0-4.03-4.028 4.025 4.025 0 0 0-4.027 4.028"/>
        <path fill="#FFF" d="M528.825 113.809l12.609 5.63 9.683-9.683-12.609-5.63-9.683 9.683"/>
        <path stroke="#54504F" stroke-linecap="round" stroke-linejoin="round" stroke-width="2" d="M528.825 113.809l12.609 5.63 9.683-9.683-12.609-5.63z"/>
        <path fill="#FFF" d="M519.142 123.492l12.609 5.63 9.683-9.683-12.61-5.63-9.682 9.683"/>
        <path stroke="#54504F" stroke-linecap="round" stroke-linejoin="round" stroke-width="2" d="M519.142 123.492l12.609 5.63 9.683-9.683-12.61-5.63z"/>
        <path fill="#FFF" d="M534.624 103.73l-37.19 37.19-4.614-6.647-7.424 20.076c-.666 1.801 1.087 3.554 2.888 2.888l20.076-7.425-6.647-4.613 40.762-40.764a3.024 3.024 0 1 0-4.278-4.278l-1.02 1.019"/>
        <path stroke="#54504F" stroke-linecap="round" stroke-linejoin="round" stroke-width="2" d="M534.624 103.73l-37.19 37.19-4.614-6.647-7.424 20.076c-.666 1.801 1.087 3.554 2.888 2.888l20.076-7.425-6.647-4.613 40.762-40.764a3.024 3.024 0 1 0-4.278-4.278l-1.02 1.019"/>
        <path fill="#88C2D8" d="M526.436 113.809l-5.63-12.611 9.684-9.683 5.63 12.61-9.684 9.684"/>
        <path fill="#88C2D8" d="M516.753 123.492l-5.63-12.61 9.684-9.684 5.63 12.61-9.684 9.684"/>
        <path stroke="#54504F" stroke-linecap="round" stroke-linejoin="round" stroke-width="2" d="M520.818 96.466l-9.683 9.684m9.11 27.556l-9.683 9.683"/>
        <path fill="#EFEFEF" d="M407.098 63.673a48.698 48.698 0 0 0 1.789-11.164 48.983 48.983 0 0 0-.991-12.04c-2.661-12.767-10.135-23.734-21.043-30.88-10.909-7.146-23.948-9.617-36.714-6.956-12.767 2.66-23.735 10.133-30.882 21.042-7.146 10.91-9.616 23.948-6.955 36.715 2.66 12.767 10.132 23.734 21.043 30.88l13.089-19.98c-5.573-3.65-9.39-9.252-10.748-15.773-1.36-6.521-.098-13.181 3.551-18.753 3.65-5.572 9.253-9.39 15.774-10.748 6.52-1.36 13.18-.097 18.753 3.553 5.572 3.65 9.389 9.252 10.748 15.773a25.07 25.07 0 0 1 .511 6.163c-.07 1.6-.294 3.19-.671 4.749l-14.804-7.609 14.312 47.953 39.793-30.347-16.555-2.578"/>
        <path stroke="#54504F" stroke-linecap="round" stroke-linejoin="round" stroke-width="2" d="M407.098 63.673a48.698 48.698 0 0 0 1.789-11.164 48.983 48.983 0 0 0-.991-12.04c-2.661-12.767-10.135-23.734-21.043-30.88-10.909-7.146-23.948-9.617-36.714-6.956-12.767 2.66-23.735 10.133-30.882 21.042-7.146 10.91-9.616 23.948-6.955 36.715 2.66 12.767 10.132 23.734 21.043 30.88l13.089-19.98c-5.573-3.65-9.39-9.252-10.748-15.773-1.36-6.521-.098-13.181 3.551-18.753 3.65-5.572 9.253-9.39 15.774-10.748 6.52-1.36 13.18-.097 18.753 3.553 5.572 3.65 9.389 9.252 10.748 15.773a25.07 25.07 0 0 1 .511 6.163c-.07 1.6-.294 3.19-.671 4.749l-14.804-7.609 14.312 47.953 39.793-30.347-16.555-2.578z"/>
        <path fill="#E3E3E3" d="M390.08 135.344c-2.683-12.871-7.74-24.912-15.034-35.789-7.555-11.266-17.18-20.776-28.612-28.265-11.434-7.489-23.998-12.516-37.342-14.942-12.887-2.342-25.945-2.17-38.817.513-12.871 2.682-24.912 7.74-35.79 15.033-11.264 7.555-20.775 17.182-28.263 28.614-14.183 21.651-19.497 47.458-15.055 72.883l-16.7.47 35.65 35.12 20.241-45.768-15.726 5.71c-3.28-19.308.8-38.885 11.57-55.326 23.384-35.695 71.446-45.71 107.143-22.327 17.29 11.327 29.135 28.71 33.353 48.947 4.216 20.236.301 40.903-11.028 58.196-11.326 17.29-28.71 29.136-48.945 33.354a78.101 78.101 0 0 1-15.8 1.636l.02 23.885c6.92-.005 13.869-.726 20.652-2.14 12.872-2.682 24.913-7.739 35.79-15.033 11.264-7.555 20.775-17.181 28.263-28.615 7.49-11.432 12.516-23.995 14.943-37.34 2.343-12.885 2.169-25.944-.513-38.816"/>
        <path stroke="#54504F" stroke-linecap="round" stroke-linejoin="round" stroke-width="2" d="M390.08 135.344c-2.683-12.871-7.74-24.912-15.034-35.789-7.555-11.266-17.18-20.776-28.612-28.265-11.434-7.489-23.998-12.516-37.342-14.942-12.887-2.342-25.945-2.17-38.817.513-12.871 2.682-24.912 7.74-35.79 15.033-11.264 7.555-20.775 17.182-28.263 28.614-14.183 21.651-19.497 47.458-15.055 72.883l-16.7.47 35.65 35.12 20.241-45.768-15.726 5.71c-3.28-19.308.8-38.885 11.57-55.326 23.384-35.695 71.446-45.71 107.143-22.327 17.29 11.327 29.135 28.71 33.353 48.947 4.216 20.236.301 40.903-11.028 58.196-11.326 17.29-28.71 29.136-48.945 33.354a78.101 78.101 0 0 1-15.8 1.636l.02 23.885c6.92-.005 13.869-.726 20.652-2.14 12.872-2.682 24.913-7.739 35.79-15.033 11.264-7.555 20.775-17.181 28.263-28.615 7.49-11.432 12.516-23.995 14.943-37.34 2.343-12.885 2.169-25.944-.513-38.816z"/>
        <path fill="#EFEFEF" d="M82.837 257.288h323.575l-2.665 16.51 41.169-28.45-41.172-28.448 2.666 16.503H82.837M457.221 257.288h59.398l-2.663 16.51 41.169-28.45-41.171-28.448 2.665 16.503h-59.398"/>
        <path stroke="#54504F" stroke-linecap="round" stroke-linejoin="round" stroke-width="2" d="M1.03 257.288h405.382l-2.665 16.51 41.169-28.45-41.172-28.448 2.666 16.503H109.169"/>
        <path stroke="#969696" stroke-linecap="round" stroke-linejoin="round" stroke-width="2" d="M457.221 257.288h59.398l-2.663 16.51 41.169-28.45-41.171-28.448 2.665 16.503h-73.71"/>
        <path stroke="#54504F" stroke-linecap="round" stroke-linejoin="round" stroke-width="2" d="M101.349 233.403H64.325m372.374-.036h-8.978m-201.192-50.613l3.361-7.596m-9.518 21.521l4.33-9.793m-16.039 26.893l2.888 2.844 5.685-12.852m-40.173-21.12l6.449 6.354m226-106.08l12.469-9.508m-27.053 20.631l11.16-8.511"/>
        <path fill="#FFF" d="M635.669 167.929a2.987 2.987 0 1 1-5.503-2.316 2.987 2.987 0 0 1 5.503 2.316"/>
        <path stroke="#54504F" stroke-linecap="round" stroke-linejoin="round" stroke-width="2" d="M528.825 113.809l-5.63-12.611 9.683-9.683 5.63 12.61-9.683 9.684zm-9.683 9.683l-5.63-12.61 9.683-9.684 5.63 12.61-9.683 9.684z"/>
        <path fill="#7EBBCE" d="M161.671 156c0-10.798-2.57-20.995-7.127-30.016l-25.538 8.243 9.974 30.897 22.667-7.316c.015-.601.024-1.203.024-1.808"/>
        <path fill="#88C2D8" d="M149.213 165.37l-13.603 4.39-12.048-37.324 13.603-4.39 12.048 37.324"/>
        <path stroke="#54504F" stroke-linecap="round" stroke-linejoin="round" stroke-width="2" d="M164.06 156c0-10.798-2.57-20.995-7.128-30.016l-16.342 5.276 9.974 30.897 13.472-4.35c.017-.6.024-1.202.024-1.807zm-12.459 9.37l-13.603 4.39-12.047-37.324 13.602-4.39 12.048 37.324z"/>
        <path fill="#EA9188" d="M33.143 156c0 .605.01 1.207.025 1.808l22.667 7.316 9.974-30.897-25.537-8.243c-4.558 9.021-7.129 19.218-7.129 30.016"/>
        <path fill="#F49D91" d="M45.602 165.37l13.602 4.39 12.05-37.324-13.603-4.39-12.049 37.324"/>
        <path stroke="#54504F" stroke-linecap="round" stroke-linejoin="round" stroke-width="2" d="M30.755 156c0 .605.009 1.207.025 1.808l13.471 4.348 9.974-30.897-16.342-5.275c-4.558 9.021-7.128 19.218-7.128 30.016zm12.459 9.37l13.602 4.39 12.049-37.324-13.603-4.39-12.048 37.324z"/>
        <path fill="#54504F" d="M135.342 135.784a2.21 2.21 0 1 1-4.419 0 2.21 2.21 0 0 1 4.42 0M63.893 135.784a2.21 2.21 0 1 1-4.42 0 2.21 2.21 0 0 1 4.42 0"/>
        <path fill="#88C2D8" d="M264.311 146.838c0 13.842 50.124 13.842 50.124 0 0-13.84-11.222-25.061-25.063-25.061-13.842 0-25.06 11.22-25.06 25.061"/>
        <path stroke="#54504F" stroke-linecap="round" stroke-linejoin="round" stroke-width="2" d="M266.607 146.838c0 13.842 50.123 13.842 50.123 0 0-13.84-11.219-25.061-25.06-25.061-13.842 0-25.063 11.22-25.063 25.061z"/>
        <path fill="#FFF" d="M316.64 100.768c0 2.586-2.37 4.765-3.127 7.098-.786 2.418-.177 5.568-1.641 7.58-1.479 2.033-4.675 2.422-6.707 3.9-2.011 1.465-3.36 4.391-5.778 5.176-2.334.758-5.133-.792-7.717-.792-2.585 0-5.387 1.55-7.718.792-2.42-.785-3.766-3.71-5.78-5.175-2.033-1.48-5.226-1.868-6.705-3.9-1.464-2.013-.857-5.163-1.64-7.58-.758-2.333-3.127-4.513-3.127-7.099 0-2.585 2.37-4.764 3.126-7.097.784-2.418.177-5.568 1.641-7.58 1.479-2.033 4.672-2.421 6.705-3.9 2.014-1.465 3.36-4.391 5.78-5.176 2.331-.758 5.133.792 7.718.792 2.584 0 5.383-1.55 7.717-.792 2.417.785 3.767 3.71 5.778 5.175 2.032 1.48 5.228 1.868 6.707 3.9 1.464 2.013.855 5.163 1.64 7.58.758 2.334 3.127 4.513 3.127 7.098"/>
        <path stroke="#54504F" stroke-linecap="round" stroke-linejoin="round" stroke-width="2" d="M316.64 100.768c0 2.586-2.37 4.765-3.127 7.098-.786 2.418-.177 5.568-1.641 7.58-1.479 2.033-4.675 2.422-6.707 3.9-2.011 1.465-3.36 4.391-5.778 5.176-2.334.758-5.133-.792-7.717-.792-2.585 0-5.387 1.55-7.718.792-2.42-.785-3.766-3.71-5.78-5.175-2.033-1.48-5.226-1.868-6.705-3.9-1.464-2.013-.857-5.163-1.64-7.58-.758-2.333-3.127-4.513-3.127-7.099 0-2.585 2.37-4.764 3.126-7.097.784-2.418.177-5.568 1.641-7.58 1.479-2.033 4.672-2.421 6.705-3.9 2.014-1.465 3.36-4.391 5.78-5.176 2.331-.758 5.133.792 7.718.792 2.584 0 5.383-1.55 7.717-.792 2.417.785 3.767 3.71 5.778 5.175 2.032 1.48 5.228 1.868 6.707 3.9 1.464 2.013.855 5.163 1.64 7.58.758 2.334 3.127 4.513 3.127 7.098z"/>
        <path fill="#FFF" d="M316.64 100.768c0 2.586-2.37 4.765-3.127 7.098-.786 2.418-.177 5.568-1.641 7.58-1.479 2.033-4.675 2.422-6.707 3.9-2.011 1.465-3.36 4.391-5.778 5.176-2.334.758-5.133-.792-7.717-.792-2.585 0-5.387 1.55-7.718.792-2.42-.785-3.766-3.71-5.78-5.175-2.033-1.48-5.226-1.868-6.705-3.9-1.464-2.013-.857-5.163-1.64-7.58-.758-2.333-3.127-4.513-3.127-7.099 0-2.585 2.37-4.764 3.126-7.097.784-2.418.177-5.568 1.641-7.58 1.479-2.033 4.672-2.421 6.705-3.9 2.014-1.465 3.36-4.391 5.78-5.176 2.331-.758 5.133.792 7.718.792 2.584 0 5.383-1.55 7.717-.792 2.417.785 3.767 3.71 5.778 5.175 2.032 1.48 5.228 1.868 6.707 3.9 1.464 2.013.855 5.163 1.64 7.58.758 2.334 3.127 4.513 3.127 7.098"/>
        <path stroke="#54504F" stroke-linecap="round" stroke-linejoin="round" stroke-width="2" d="M316.64 100.768c0 2.586-2.37 4.765-3.127 7.098-.786 2.418-.177 5.568-1.641 7.58-1.479 2.033-4.675 2.422-6.707 3.9-2.011 1.465-3.36 4.391-5.778 5.176-2.334.758-5.133-.792-7.717-.792-2.585 0-5.387 1.55-7.718.792-2.42-.785-3.766-3.71-5.78-5.175-2.033-1.48-5.226-1.868-6.705-3.9-1.464-2.013-.857-5.163-1.64-7.58-.758-2.333-3.127-4.513-3.127-7.099 0-2.585 2.37-4.764 3.126-7.097.784-2.418.177-5.568 1.641-7.58 1.479-2.033 4.672-2.421 6.705-3.9 2.014-1.465 3.36-4.391 5.78-5.176 2.331-.758 5.133.792 7.718.792 2.584 0 5.383-1.55 7.717-.792 2.417.785 3.767 3.71 5.778 5.175 2.032 1.48 5.228 1.868 6.707 3.9 1.464 2.013.855 5.163 1.64 7.58.758 2.334 3.127 4.513 3.127 7.098z"/>
        <path fill="#C9C9C9" d="M302.857 103.005c-1.76.612-3.181 3.029-5.195 3.345-1.865.292-3.976-1.548-5.992-1.548s-4.13 1.84-5.993 1.548c-2.014-.316-3.435-2.733-5.195-3.345a3.743 3.743 0 0 0-.206-.065c-2.555-.731-5.083 1.278-5.083 3.937v.453l1.016 10.07c1.012 7.702 7.629 13.464 15.46 13.464 7.833 0 14.449-5.762 15.462-13.464l1.015-10.07v-.453c0-2.659-2.527-4.669-5.083-3.937-.07.02-.139.041-.206.065"/>
        <path stroke="#54504F" stroke-linecap="round" stroke-linejoin="round" stroke-width="2" d="M302.857 103.005c-1.76.612-3.181 3.029-5.195 3.345-1.865.292-3.976-1.548-5.992-1.548s-4.13 1.84-5.993 1.548c-2.014-.316-3.435-2.733-5.195-3.345a3.743 3.743 0 0 0-.206-.065c-2.555-.731-5.083 1.278-5.083 3.937v.453l1.016 10.07c1.012 7.702 7.629 13.464 15.46 13.464 7.833 0 14.449-5.762 15.462-13.464l1.015-10.07v-.453c0-2.659-2.527-4.669-5.083-3.937-.07.02-.139.041-.206.065z"/>
        <path fill="#FFF" d="M287.103 120.69a4.567 4.567 0 1 0 9.133 0h-9.133"/>
        <path stroke="#54504F" stroke-linecap="round" stroke-linejoin="round" stroke-width="3" d="M287.103 120.69a4.567 4.567 0 1 0 9.133 0h-9.133z"/>
        <path fill="#FFC357" d="M282.705 192.392c0 14.398-52.146 14.398-52.146 0 0-14.4 11.673-26.074 26.073-26.074s26.073 11.673 26.073 26.074"/>
        <path stroke="#54504F" stroke-linecap="round" stroke-linejoin="round" stroke-width="2" d="M285.094 192.392c0 14.398-52.147 14.398-52.147 0 0-14.4 11.673-26.074 26.074-26.074 14.4 0 26.073 11.673 26.073 26.074z"/>
        <path fill="#FFF" d="M264.068 204.363l-5.047 4.846-5.047-4.846 2.422-32.312h5.25l2.422 32.312"/>
        <path stroke="#54504F" stroke-linecap="round" stroke-linejoin="round" stroke-width="2" d="M264.068 204.363l-5.047 4.846-5.047-4.846 2.422-32.312h5.25z"/>
        <path fill="#FFF" d="M270.151 140.684s.146.163.394.432c-.35-.065-.709-.127-1.072-.186.435-.156.678-.246.678-.246zm-33.176 6.094c0 3.668 9.869 18.75 22.046 18.75 11.214 0 20.465-12.786 21.86-17.673.117-.265.188-.612.188-1.077 0-16.154-8.18-14.861-8.18-14.861s-3.488-7.186-13.868-7.186c-12.177 0-22.046 9.87-22.046 22.047z"/>
        <path stroke="#54504F" stroke-linecap="round" stroke-linejoin="round" stroke-width="2" d="M270.151 140.684s.146.163.394.432c-.35-.065-.709-.127-1.072-.186.435-.156.678-.246.678-.246zm-33.176 6.094c0 3.668 9.869 18.75 22.046 18.75 11.214 0 20.465-12.786 21.86-17.673.117-.265.188-.612.188-1.077 0-16.154-8.18-14.861-8.18-14.861s-3.488-7.186-13.868-7.186c-12.177 0-22.046 9.87-22.046 22.047z"/>
        <path fill="#E3E3E3" d="M270.151 140.684s2.97 3.31 5.81 5.618c.133.852.202 1.725.202 2.613v2.374l-1.058 10.475c-1.053 8.013-7.935 14.008-16.084 14.008-8.148 0-15.031-5.995-16.085-14.008l-1.058-10.475v-2.374c0-.167.01-.333.015-.5 9.236-.747 28.258-7.73 28.258-7.73"/>
        <path stroke="#54504F" stroke-linecap="round" stroke-linejoin="round" stroke-width="2" d="M270.151 140.684s2.97 3.31 5.81 5.618c.133.852.202 1.725.202 2.613v2.374l-1.058 10.475c-1.053 8.013-7.935 14.008-16.084 14.008-8.148 0-15.031-5.995-16.085-14.008l-1.058-10.475v-2.374c0-.167.01-.333.015-.5 9.236-.747 28.258-7.73 28.258-7.73z"/>
        <path fill="#FFF" d="M254.454 166.318a4.567 4.567 0 1 0 9.134 0h-9.134"/>
        <path stroke="#54504F" stroke-linecap="round" stroke-linejoin="round" stroke-width="3" d="M254.454 166.318a4.567 4.567 0 1 0 9.134 0h-9.134z"/>
        <path fill="#FFF" d="M305.84 180.396a12.118 12.118 0 0 1-6.412-13.548l3.215-14.052c0-16.154 8.18-14.861 8.18-14.861s3.488-7.186 13.868-7.186c12.174 0 22.046 9.87 22.046 22.047l3.215 14.052a12.118 12.118 0 0 1-6.413 13.548"/>
        <path stroke="#54504F" stroke-linecap="round" stroke-linejoin="round" stroke-width="2" d="M305.84 180.396a12.118 12.118 0 0 1-6.412-13.548l3.215-14.052c0-16.154 8.18-14.861 8.18-14.861s3.488-7.186 13.868-7.186c12.174 0 22.046 9.87 22.046 22.047l3.215 14.052a12.118 12.118 0 0 1-6.413 13.548"/>
        <path fill="#F49D91" d="M296.23 198.268c0 14.398 52.143 14.398 52.143 0 0-14.401-11.672-26.074-26.073-26.074-14.398 0-26.07 11.673-26.07 26.074"/>
        <path stroke="#54504F" stroke-linecap="round" stroke-linejoin="round" stroke-width="2" d="M298.618 198.408c0 14.4 52.144 14.4 52.144 0 0-14.398-11.673-26.073-26.07-26.073-14.401 0-26.074 11.675-26.074 26.073z"/>
        <path fill="#EFEFEF" d="M337.417 180.124c0 7.67-12.726 13.885-12.726 13.885s-12.728-6.215-12.728-13.885 5.699-13.886 12.728-13.886c7.03 0 12.726 6.217 12.726 13.886"/>
        <path stroke="#54504F" stroke-linecap="round" stroke-linejoin="round" stroke-width="2" d="M337.417 180.124c0 7.67-12.726 13.885-12.726 13.885s-12.728-6.215-12.728-13.885 5.699-13.886 12.728-13.886c7.03 0 12.726 6.217 12.726 13.886z"/>
        <path fill="#EFEFEF" d="M307.835 152.25l-.083.07a16.847 16.847 0 0 0-.203 2.613v2.374l1.055 10.475c1.054 8.014 7.937 14.007 16.087 14.007 8.147 0 15.031-5.993 16.084-14.007l1.17-9.918s-5.99 2.368-15.53-4.678c-10.196-7.529-16.148-2.924-18.58-.936"/>
        <path stroke="#54504F" stroke-linecap="round" stroke-linejoin="round" stroke-width="2" d="M307.835 152.25l-.083.07a16.847 16.847 0 0 0-.203 2.613v2.374l1.055 10.475c1.054 8.014 7.937 14.007 16.087 14.007 8.147 0 15.031-5.993 16.084-14.007l1.17-9.918s-5.99 2.368-15.53-4.678c-10.196-7.529-16.148-2.924-18.58-.936z"/>
        <path fill="#FFF" d="M320.122 172.335a4.569 4.569 0 0 0 9.136 0h-9.136"/>
        <path stroke="#54504F" stroke-linecap="round" stroke-linejoin="round" stroke-width="3" d="M320.122 172.335a4.569 4.569 0 0 0 9.136 0h-9.136z"/>
    </g>
</svg>
