<svg xmlns="http://www.w3.org/2000/svg" width="453" height="424" viewBox="0 0 453 424">
    <g fill="none" fill-rule="evenodd">
        <g>
            <g>
                <g>
                    <g>
                        <g>
                            <path stroke="#263238" stroke-linejoin="round" stroke-width="1.571" d="M186.05 38.727l-.67 5.678 3.075 1.09c.044 1.947.315 3.881.805 5.765l-2.665 1.934 2.244 5.269 3.235-.608c1.008 1.663 2.207 3.202 3.57 4.587l-1.35 3.025 4.586 3.421 2.48-2.107c1.704.94 3.514 1.672 5.392 2.182l.347 3.285 5.665.682 1.104-3.087c1.946-.045 3.88-.315 5.764-.806l1.947 2.653 5.28-2.269-.582-3.223c1.658-1.009 3.193-2.207 4.574-3.57l3.025 1.351 3.422-4.586-2.12-2.48c.94-1.699 1.673-3.505 2.182-5.38l3.285-.347.681-5.678-3.086-1.103c-.039-1.943-.31-3.874-.806-5.752l2.678-1.946-2.257-5.269-3.223.595c-1.013-1.658-2.215-3.193-3.582-4.574l1.338-3.013-4.624-3.372-2.479 2.12c-1.696-.928-3.493-1.66-5.355-2.182l-.347-3.285-5.678-.67-1.103 3.075c-1.943.048-3.873.323-5.752.818l-1.947-2.665-5.268 2.244.595 3.223c-1.651.994-3.182 2.176-4.562 3.52l-3.013-1.338-3.434 4.587 2.12 2.479c-.938 1.705-1.67 3.515-2.181 5.393l-3.31.334zm13.177 4.55c.68-5.709 4.732-10.446 10.267-12 5.535-1.554 11.46.38 15.012 4.902 3.552 4.52 4.028 10.736 1.208 15.746-2.821 5.01-8.383 7.825-14.09 7.133h0c-7.776-.943-13.322-8.003-12.397-15.781h0z" transform="translate(-1083 -3440) translate(0 3182) translate(320 18) translate(764 241) translate(101.653 .116)"/>
                            <path fill="#263238" fill-rule="nonzero" d="M37.946 178.438l-.607 5.145 2.79.991c.038 1.763.284 3.514.73 5.22l-2.479 1.76 2.033 4.772 2.926-.557c.915 1.504 2 2.897 3.235 4.152l-1.24 2.74 4.253 3.124 2.244-1.921c1.542.855 3.182 1.52 4.884 1.983l.31 2.975 5.144.62.992-2.802c1.763-.036 3.514-.282 5.22-.73l1.76 2.416 4.76-2.045-.52-2.975c1.503-.916 2.897-2.001 4.152-3.236l2.74 1.24 3.099-4.14-1.922-2.27c.852-1.539 1.518-3.174 1.984-4.871l2.975-.322.608-5.145-2.79-.992c-.039-1.762-.284-3.514-.731-5.219l2.48-1.76-2.046-4.773-2.913.533c-.925-1.497-2.019-2.882-3.26-4.128l1.239-2.74-4.252-3.086-2.256 1.921c-1.536-.848-3.168-1.51-4.86-1.97l-.31-2.976-5.144-.62-.992 2.802c-1.763.038-3.514.283-5.22.731l-1.76-2.368-4.772 2.033.533 2.926c-1.505.915-2.898 2-4.153 3.236l-2.74-1.24-3.099 4.153 1.922 2.256c-.85 1.545-1.516 3.184-1.984 4.884l-2.963.273zm11.938 4.116c.844-7.056 7.247-12.092 14.303-11.25 7.055.843 12.092 7.245 11.251 14.3-.84 7.057-7.242 12.095-14.298 11.256-7.056-.847-12.093-7.249-11.256-14.306z" transform="translate(-1083 -3440) translate(0 3182) translate(320 18) translate(764 241) translate(101.653 .116)"/>
                            <path fill="#E6E9F0" fill-rule="nonzero" d="M300.1 304.649v-11.666l-6.51-1.475c-.55-3.932-1.566-7.786-3.024-11.48l4.959-4.573-5.851-10.166-6.397 2.02c-2.45-3.12-5.253-5.944-8.356-8.416l2.021-6.46-10.128-5.838-4.525 4.872c-3.682-1.486-7.527-2.53-11.454-3.112l-1.488-6.57h-11.665l-1.488 6.52c-3.933.547-7.787 1.563-11.48 3.026l-4.574-4.96-10.103 5.827 1.971 6.397c-3.12 2.445-5.945 5.245-8.417 8.343l-6.446-1.996-5.827 10.091 4.884 4.55c-1.484 3.678-2.529 7.518-3.111 11.442l-6.57 1.5v11.665l6.508 1.488c.559 3.927 1.574 7.775 3.025 11.467l-4.959 4.586 5.839 10.129 6.384-1.972c2.455 3.113 5.268 5.925 8.38 8.38l-1.996 6.46 10.141 5.838 4.525-4.959c3.66 1.489 7.485 2.538 11.392 3.124l1.488 6.57h11.678l1.475-6.508c3.936-.565 7.793-1.588 11.492-3.05l4.574 4.96 10.128-5.84-1.971-6.384c3.123-2.441 5.948-5.241 8.417-8.343l6.447 1.996 5.838-10.14-4.896-4.537c1.484-3.684 2.533-7.528 3.124-11.455l6.545-1.351zm-20.17-6.025c0 20.225-16.396 36.62-36.62 36.62-20.225 0-36.62-16.395-36.62-36.62 0-20.225 16.395-36.62 36.62-36.62 20.224 0 36.62 16.395 36.62 36.62z" transform="translate(-1083 -3440) translate(0 3182) translate(320 18) translate(764 241) translate(101.653 .116)"/>
                            <path fill="#92E3A9" fill-rule="nonzero" d="M67.364 15.062H97.414V21.991999999999997H67.364zM67.364 25.079H87.11200000000001V32.009H67.364zM67.364 35.095H78.732V42.025H67.364z" transform="translate(-1083 -3440) translate(0 3182) translate(320 18) translate(764 241) translate(101.653 .116)"/>
                            <path fill="#F9D94E" fill-rule="nonzero" d="M67.364 15.062H97.414V21.991999999999997H67.364zM67.364 25.079H87.11200000000001V32.009H67.364zM67.364 35.095H78.732V42.025H67.364z" transform="translate(-1083 -3440) translate(0 3182) translate(320 18) translate(764 241) translate(101.653 .116)"/>
                            <path fill="#92E3A9" fill-rule="nonzero" d="M15.186 91.822H25.375999999999998V112.69800000000001H15.186zM29.901 99H40.091V112.711H29.901zM44.628 104.814H54.818V112.711H44.628z" transform="translate(-1083 -3440) translate(0 3182) translate(320 18) translate(764 241) translate(101.653 .116)"/>
                            <path fill="#F9D94E" fill-rule="nonzero" d="M15.186 91.822H25.375999999999998V112.69800000000001H15.186zM29.901 99H40.091V112.711H29.901z" transform="translate(-1083 -3440) translate(0 3182) translate(320 18) translate(764 241) translate(101.653 .116)"/>
                            <path fill="#000" fill-rule="nonzero" d="M44.628 104.814H54.818V112.711H44.628z" opacity=".2" transform="translate(-1083 -3440) translate(0 3182) translate(320 18) translate(764 241) translate(101.653 .116)"/>
                            <path fill="#F7FBFF" fill-rule="nonzero" d="M136.29 128.504H12.904c-3.42.007-6.703-1.347-9.124-3.764C1.361 122.324 0 119.044 0 115.624V13.76C.014 6.652 5.772.894 12.88.88h123.384c3.42-.003 6.7 1.352 9.12 3.768 2.42 2.415 3.782 5.693 3.785 9.112v101.864c0 7.113-5.766 12.88-12.88 12.88z" transform="translate(-1083 -3440) translate(0 3182) translate(320 18) translate(764 241) translate(101.653 .116)"/>
                            <path fill="#263238" fill-rule="nonzero" d="M136.29 128.504H12.904c-3.42.007-6.703-1.347-9.124-3.764C1.361 122.324 0 119.044 0 115.624V13.76C.014 6.652 5.772.894 12.88.88h123.384c3.42-.003 6.7 1.352 9.12 3.768 2.42 2.415 3.782 5.693 3.785 9.112v101.864c0 7.113-5.766 12.88-12.88 12.88zM12.904 2.058C6.42 2.07 1.167 7.325 1.153 13.81v101.864c.014 6.484 5.267 11.738 11.752 11.752h123.384c6.485-.014 11.739-5.268 11.752-11.752V13.76c-.013-6.484-5.267-11.738-11.752-11.752l-123.384.05z" transform="translate(-1083 -3440) translate(0 3182) translate(320 18) translate(764 241) translate(101.653 .116)"/>
                            <path fill="#263238" fill-rule="nonzero" d="M90.707 92.393H134.703V93.521H90.707zM90.707 97.116H134.703V98.244H90.707zM90.707 101.826H134.703V102.954H90.707zM90.707 106.537H134.703V107.665H90.707zM90.707 111.248H134.703V112.376H90.707zM13.835 15.533H57.831V16.660999999999998H13.835zM13.835 20.244H57.831V21.372H13.835zM13.835 24.955H57.831V26.083H13.835zM13.835 29.665H57.831V30.793H13.835zM13.835 34.376H57.831V35.504H13.835z" transform="translate(-1083 -3440) translate(0 3182) translate(320 18) translate(764 241) translate(101.653 .116)"/>
                            <path fill="#F9D94E" fill-rule="nonzero" d="M126.012 53.59l7.885 4.141-.905-22.24-18.806 11.902 7.884 4.128-5.938 11.293c-1.046-.001-2.063.348-2.888.992l-10.475-4.847v-.062c.093-2.63-1.943-4.847-4.572-4.976-2.628-.129-4.872 1.878-5.036 4.505-.012.156-.012.314 0 .47.007.689.154 1.368.434 1.997L79.959 75.769c-.438-.138-.893-.209-1.352-.211-.237 0-.474.025-.706.074l-19.637-24.93c.933-2.394-.188-5.099-2.54-6.132-2.354-1.034-5.103-.03-6.236 2.277-.272.6-.411 1.25-.41 1.91.016.492.099.98.248 1.45L26.95 73.14c-2.484-.896-5.226.385-6.134 2.866-.907 2.481.363 5.229 2.84 6.146 2.477.918 5.23-.34 6.158-2.813.188-.53.284-1.087.285-1.649.002-.394-.053-.786-.161-1.165l22.624-23.22c.444.148.908.224 1.376.224.296.002.59-.027.88-.087l19.525 24.794c-.826 1.523-.776 3.372.13 4.849.906 1.477 2.532 2.358 4.264 2.312 1.733-.047 3.309-1.014 4.135-2.537.346-.63.546-1.329.583-2.046.012-.16.012-.323 0-.483-.008-.502-.092-1-.248-1.476l13.958-15.198c.266.05.536.074.806.074.954 0 1.886-.285 2.678-.818l10.66 4.959c.054 1.733 1.038 3.302 2.574 4.105 1.537.803 3.387.715 4.84-.231 1.453-.946 2.282-2.603 2.17-4.333-.047-.89-.344-1.75-.856-2.48l5.975-11.342z" transform="translate(-1083 -3440) translate(0 3182) translate(320 18) translate(764 241) translate(101.653 .116)"/>
                            <g>
                                <path stroke="#263238" stroke-linejoin="round" d="M7.649.335C3.607.342.335 3.62.335 7.66v63.484c0 4.04 3.274 7.314 7.314 7.314h76.86c4.04 0 7.319-3.273 7.326-7.314V7.624C91.828 3.583 88.55.31 84.508.31L7.648.335z" transform="translate(-1083 -3440) translate(0 3182) translate(320 18) translate(764 241) translate(101.653 .116) translate(128.926 141.322)"/>
                                <path fill="#263238" fill-rule="nonzero" d="M6.397 8.988H12.236V9.988H6.397zM6.397 15.36H12.236V16.36H6.397zM6.397 21.731H12.236V22.731H6.397zM6.397 28.116H12.236V29.116H6.397z" transform="translate(-1083 -3440) translate(0 3182) translate(320 18) translate(764 241) translate(101.653 .116) translate(128.926 141.322)"/>
                                <path fill="#263238" fill-rule="nonzero" d="M6.174 15.36H12.013000000000002V16.36H6.174zM6.397 34.488H12.236V35.488H6.397z" transform="translate(-1083 -3440) translate(0 3182) translate(320 18) translate(764 241) translate(101.653 .116) translate(128.926 141.322)"/>
                            </g>
                            <path fill="#92E3A9" fill-rule="nonzero" d="M179.455 210.298c11.33.233 21.684-6.384 26.23-16.765 4.546-10.38 2.387-22.478-5.468-30.646-7.856-8.168-19.86-10.796-30.41-6.658-10.55 4.137-17.566 14.226-17.774 25.556-.29 15.442 11.98 28.2 27.422 28.513zm.979-47.777c8.021.162 15.155 5.14 18.074 12.613 2.92 7.473 1.05 15.968-4.738 21.525-5.787 5.556-14.351 7.08-21.699 3.859-7.348-3.22-12.032-10.55-11.869-18.572.224-10.95 9.281-19.647 20.232-19.425z" transform="translate(-1083 -3440) translate(0 3182) translate(320 18) translate(764 241) translate(101.653 .116)"/>
                            <path fill="#01DDEF" fill-rule="nonzero" d="M179.455 210.298c11.33.233 21.684-6.384 26.23-16.765 4.546-10.38 2.387-22.478-5.468-30.646-7.856-8.168-19.86-10.796-30.41-6.658-10.55 4.137-17.566 14.226-17.774 25.556-.29 15.442 11.98 28.2 27.422 28.513zm.979-47.777c8.021.162 15.155 5.14 18.074 12.613 2.92 7.473 1.05 15.968-4.738 21.525-5.787 5.556-14.351 7.08-21.699 3.859-7.348-3.22-12.032-10.55-11.869-18.572.224-10.95 9.281-19.647 20.232-19.425z" transform="translate(-1083 -3440) translate(0 3182) translate(320 18) translate(764 241) translate(101.653 .116)"/>
                            <path fill="#263238" fill-rule="nonzero" d="M159.917 202.339c5.325 5.371 12.565 8.407 20.128 8.44 7.563.032 14.829-2.941 20.199-8.267.202-.225.202-.567 0-.793l-5.814-5.851c-.104-.11-.247-.172-.397-.174-.15.01-.293.066-.409.161-3.695 3.706-8.752 5.728-13.984 5.591h-1.376c-4.208-.235-8.22-1.851-11.417-4.599-.285-.26-.583-.52-.855-.793-6.742-6.732-7.658-17.34-2.17-25.128.026-.035.046-.072.062-.112.124-.174.26-.322.41-.496 3.868-4.9 9.88-7.61 16.115-7.264.148.003.291-.053.398-.155.107-.102.17-.243.172-.39l.161-8.22c.008-.31-.235-.569-.545-.582-11.608-.195-22.175 6.667-26.718 17.352-4.543 10.684-2.154 23.055 6.04 31.28z" transform="translate(-1083 -3440) translate(0 3182) translate(320 18) translate(764 241) translate(101.653 .116)"/>
                            <path fill="#263238" fill-rule="nonzero" d="M180.607 153.719c16.09.017 29.123 13.07 29.114 29.16-.008 16.09-13.054 29.13-29.145 29.13-16.09 0-29.136-13.04-29.144-29.13-.009-16.09 13.023-29.143 29.113-29.16h.062zm-1.14 55.996c11.1.228 21.244-6.253 25.702-16.42 4.457-10.169 2.35-22.021-5.34-30.03-7.689-8.008-19.445-10.595-29.786-6.555-10.34 4.04-17.23 13.913-17.452 25.013-.304 15.152 11.724 27.686 26.876 28.004v-.012zm.98-47.777c8.23.167 15.551 5.277 18.546 12.946 2.996 7.67 1.076 16.387-4.863 22.09-5.94 5.701-14.73 7.264-22.27 3.958-7.54-3.306-12.347-10.828-12.178-19.06.23-11.238 9.526-20.162 20.764-19.934zm-.807 39.558c7.776.159 14.881-4.382 18.003-11.505 3.122-7.123 1.646-15.425-3.74-21.035-5.387-5.61-13.622-7.422-20.866-4.592s-12.07 9.745-12.227 17.52c-.208 10.61 8.22 19.383 18.83 19.6v.012z" transform="translate(-1083 -3440) translate(0 3182) translate(320 18) translate(764 241) translate(101.653 .116)"/>
                            <path stroke="#263238" stroke-linecap="round" stroke-linejoin="round" stroke-width=".879" d="M35.541 243.136L35.541 318.335" transform="translate(-1083 -3440) translate(0 3182) translate(320 18) translate(764 241) translate(101.653 .116)"/>
                            <path fill="#263238" fill-rule="nonzero" d="M41.244 271.512H47.628V314.56600000000003H41.244z" transform="translate(-1083 -3440) translate(0 3182) translate(320 18) translate(764 241) translate(101.653 .116)"/>
                            <path fill="#92E3A9" fill-rule="nonzero" d="M50.368 289.079H56.752V314.55400000000003H50.368z" transform="translate(-1083 -3440) translate(0 3182) translate(320 18) translate(764 241) translate(101.653 .116)"/>
                            <path fill="#FFF" fill-rule="nonzero" stroke="#263238" stroke-linejoin="round" stroke-width=".879" d="M61.091 257.591H67.475V314.56600000000003H61.091z" transform="translate(-1083 -3440) translate(0 3182) translate(320 18) translate(764 241) translate(101.653 .116)"/>
                            <path fill="#263238" fill-rule="nonzero" d="M78.893 249.372H85.277V314.55400000000003H78.893z" transform="translate(-1083 -3440) translate(0 3182) translate(320 18) translate(764 241) translate(101.653 .116)"/>
                            <path fill="#92E3A9" fill-rule="nonzero" d="M88.029 298.438H94.413V314.566H88.029z" transform="translate(-1083 -3440) translate(0 3182) translate(320 18) translate(764 241) translate(101.653 .116)"/>
                            <path fill="#FFF" fill-rule="nonzero" stroke="#263238" stroke-linejoin="round" stroke-width=".879" d="M98.752 276.074H105.136V314.56600000000003H98.752z" transform="translate(-1083 -3440) translate(0 3182) translate(320 18) translate(764 241) translate(101.653 .116)"/>
                            <path fill="#263238" fill-rule="nonzero" d="M124.76 281.963H131.144V314.55400000000003H124.76z" transform="translate(-1083 -3440) translate(0 3182) translate(320 18) translate(764 241) translate(101.653 .116)"/>
                            <path fill="#92E3A9" fill-rule="nonzero" d="M133.897 256.674H140.281V314.554H133.897z" transform="translate(-1083 -3440) translate(0 3182) translate(320 18) translate(764 241) translate(101.653 .116)"/>
                            <path fill="#FFF" fill-rule="nonzero" stroke="#263238" stroke-linejoin="round" stroke-width=".879" d="M144.62 269.455H151.00400000000002V314.554H144.62z" transform="translate(-1083 -3440) translate(0 3182) translate(320 18) translate(764 241) translate(101.653 .116)"/>
                            <path stroke="#263238" stroke-linecap="round" stroke-linejoin="round" stroke-width=".879" d="M28.686 304.599L32.256 304.599M28.686 295.314L32.256 295.314M28.686 286.041L32.256 286.041M28.686 276.756L32.256 276.756M28.686 267.471L32.256 267.471M28.686 258.186L32.256 258.186M28.686 248.901L32.256 248.901M31.314 314.566L155.479 314.566" transform="translate(-1083 -3440) translate(0 3182) translate(320 18) translate(764 241) translate(101.653 .116)"/>
                            <path fill="#F9D94E" fill-rule="nonzero" d="M50.368 289.079H56.752V314.55400000000003H50.368zM88.029 298.438H94.413V314.566H88.029zM133.897 256.674H140.281V314.554H133.897z" transform="translate(-1083 -3440) translate(0 3182) translate(320 18) translate(764 241) translate(101.653 .116)"/>
                            <path stroke="#263238" stroke-linejoin="round" d="M23.616 232.698c-4.455.007-8.064 3.616-8.07 8.07v73.773c.006 4.457 3.613 8.07 8.07 8.083h136.921c4.458-.014 8.07-3.624 8.083-8.083v-73.797c-.007-4.461-3.622-8.076-8.083-8.083l-136.921.037z" transform="translate(-1083 -3440) translate(0 3182) translate(320 18) translate(764 241) translate(101.653 .116)"/>
                        </g>
                        <g>
                            <path fill="#FFF" fill-rule="nonzero" d="M16.921 397.612s2.864 19.115-4.066 21.074c-6.93 1.959-11.74-.62-12.607-3.484-.868-2.863 5.269-23.318 5.269-23.318l11.404 5.728zM137.455 401.839l30.124 7.14s2.28 1.24 2.033 3.285c-.248 2.046-13.996 7.29-17.852 7.947-3.855.657-26.107 3.558-29.268.843-3.161-2.715 3.52-24.36 3.52-24.36l11.443 5.145zM82.91 53.207s4.239 6.396 4.3 9.632c.063 3.235-.334 6.93 1.65 8.839 1.983 1.909 3.508 3.991 2.69 4.958-.819.967-2.393 2.852-2.393 2.852s2.045 10.896-.607 12.867c-2.653 1.971-10.624 0-10.624 0v7.042s-11.331-3.72-19.153-3.025l-1.389-15.087S74.38 48.607 82.91 53.207zM152.603 97.785s-1.016-7.735 2.752-12.397c0 0-4.512-.768-3.967-2.405.546-1.636 7.438.509 7.438.509l-1.86-3.72s-6.507-2.156-5.702-4.177c.806-2.02 10.352 2.95 10.352 2.95s-5.666-4.735-4.872-6.706c.793-1.971 6.558-1.934 9.632 8.28l1.562-1.945s.558-11.629 2.157-12.26c0 0 2.48 1.363 2.48 8.045 0 0 2.479 2.987.904 5.516-1.574 2.53-5.28 8.22-8.43 10.351-3.148 2.133-3.136 10.45-3.136 10.45l-9.31-2.49zM52.835 34.202l1.425-1.909s15.955-7.115 15.558-9.334c-.397-2.22-9.434.843-11.157-.335 0 0 1.649-21 0-21.682-1.649-.682-3.483 9.856-3.483 9.856S52.86-.012 51.074.298c-1.785.31-1.04 11.157-1.04 11.157s-3.41-6.955-4.736-6.31c-1.327.644.657 9.124.657 9.124s-2.48-2.914-3.472-2.033c.327 4.38 1.529 8.65 3.534 12.557L42.57 30.62l10.265 3.582z" transform="translate(-1083 -3440) translate(0 3182) translate(320 18) translate(764 241) translate(0 .116)"/>
                            <path fill="#44D7B6" fill-rule="nonzero" d="M150.88 97.835l10.996 1.537s-8.045 68.182-10.413 76.6c-2.368 8.416-4.5 14.466-12.583 14.875-8.082.41-36.88-23.802-36.88-23.802l-1.339 33.472 1.872 13.884s-35.219 18.508-71.033 2.405l.806-16.29L19.4 126.013 9.248 90.632l32.764-62.12 11.876 6.199-20.95 56.541 5.864 18.88 6.558-2.628 7.252-9.248s12.297-6.384 27.855 2.48l2.48 7.76s18.247 1.376 49.053 44.083l18.88-54.744z" transform="translate(-1083 -3440) translate(0 3182) translate(320 18) translate(764 241) translate(0 .116)"/>
                            <path fill="#000" fill-rule="nonzero" d="M72.273 97.835l1.388 9.545s10.24 6.794 14.356 9.149c0 0 10.066 63.57 2.615 76.078l-7.847 12.286s8.02 0 11.715-5.616c0 0-4.6 15.347-16.525 19.475 0 0 18.31-1.909 24.608-4.339l-1.872-13.884 3.012-77.417s2.839-5.182-20.764-14.467l-3.484-8.368-7.202-2.442z" opacity=".2" transform="translate(-1083 -3440) translate(0 3182) translate(320 18) translate(764 241) translate(0 .116)"/>
                            <path stroke="#263238" stroke-linecap="round" stroke-linejoin="round" d="M82.91 54.074s3.842 5.628 4.3 8.765c.46 3.136-.904 6.595 1.65 8.839 2.553 2.243 3.719 3.719 2.69 4.958-1.03 1.24-2.393 2.852-2.393 2.852s1.041 10.624-.607 12.867c-1.65 2.244-10.624 0-10.624 0v7.042M77.926 79.017s-3.595-9.286-6.286-7.042c-2.69 2.244-.297 14.517 6.286 11.827" transform="translate(-1083 -3440) translate(0 3182) translate(320 18) translate(764 241) translate(0 .116)"/>
                            <path fill="#263238" fill-rule="nonzero" d="M76.946 76.86s4.277-.348 1.575-10.377c-2.703-10.028 3.148-8.677 9.434-11.528 6.285-2.852 7.785-8.083 6.433-11.22-1.35-3.136-3.595-4.797-11.528-3.297 0 0-8.678-10.029-17.058 1.054 0 0-18.868-.298-23.95 8.677C36.768 59.145 43.5 82.054 53.38 89.69c9.88 7.636 19.537 1.525 21.546-5.653 0 0-6.732-3.632-3.286-12.012 0-.05 3.137-1.165 5.306 4.835z" transform="translate(-1083 -3440) translate(0 3182) translate(320 18) translate(764 241) translate(0 .116)"/>
                            <path stroke="#263238" stroke-linecap="round" stroke-linejoin="round" d="M18.421 120.36s45.658-33.112 85.45 0l-3.21 80.107 1.872 13.884s-33.645 15.756-71.033 2.405l.806-16.29L18.42 120.36z" transform="translate(-1083 -3440) translate(0 3182) translate(320 18) translate(764 241) translate(0 .116)"/>
                            <path stroke="#263238" stroke-linecap="round" stroke-linejoin="round" d="M44.752 108.322l7.86-10.016s15.409-5.33 27.855 2.48l2.48 7.76M103.872 120.36L143.628 166.079M102.037 166.116s26.343 24.508 36.843 24.793c10.5.285 12.248-12.397 12.248-12.397l10.748-79.09-10.996-1.538-18.917 54.83M161.69 99.174s1.376-8.938 4.959-10.972c3.582-2.033 7.834-9.917 6.47-12.185-1.363-2.27-5.528 5.107-9.284 6.52-3.756 1.413-6.806 8.356-7.327 11.368" transform="translate(-1083 -3440) translate(0 3182) translate(320 18) translate(764 241) translate(0 .116)"/>
                            <path stroke="#263238" stroke-linecap="round" stroke-linejoin="round" d="M171.967 75.694s0-10.326-1.897-9.843c-1.896.484-2.157 13.562-2.157 13.562M166.525 80.74s-1.24-5.79-4.649-8.616c-3.41-2.826-5.541-1.302-5.157-.347.384.954 6.198 8.678 6.062 11.306" transform="translate(-1083 -3440) translate(0 3182) translate(320 18) translate(764 241) translate(0 .116)"/>
                            <path stroke="#263238" stroke-linecap="round" stroke-linejoin="round" d="M160.624 77.876s-9.36-4.29-9.384-1.723c-.025 2.566 5.702 3.558 5.702 3.558l1.86 3.719s-7.885-2.48-7.438-.509c.446 1.972 3.967 2.405 3.967 2.405s-3.831 3.794-2.752 12.397" transform="translate(-1083 -3440) translate(0 3182) translate(320 18) translate(764 241) translate(0 .116)"/>
                            <path fill="#263238" fill-rule="nonzero" d="M97.116 215.281l2.392 16.76s22.03 66.087 25.376 79.004c3.347 12.918 5.269 42.15 6.199 55.55.93 13.4 8.677 35.95 8.677 35.95s-.954 9.1-17.231 7.662c0 0-6.707-26.814-13.884-42.62-7.178-15.806-8.232-39.781-8.232-39.781L65.455 263.64s-7.153 37.364-11.963 51.236c-4.959 14.306-38.765 93.682-36.397 88.116 0 0-4.785 2.876-14.876-4.314 0 0 7.178-23.938 9.087-36.868 1.909-12.93 11.975-42.62 11.975-42.62s2.393-56.02 6.198-73.264c0 0-2.479-18.992 2.814-32.405 20.981 6.852 43.5 7.463 64.823 1.76z" transform="translate(-1083 -3440) translate(0 3182) translate(320 18) translate(764 241) translate(0 .116)"/>
                            <path stroke="#263238" stroke-linecap="round" stroke-linejoin="round" d="M122.876 408.248s-2.12 10.624-.384 12.806c.917 1.14 3.644.93 4.958.954 3.025.062 6.062-.136 9.087-.334 6.05-.397 12.248-.335 18.087-2.207 4.919-1.479 9.618-3.609 13.971-6.335 2.38-1.587 0-4.153 0-4.153l-28.822-6.47M122.727 417.31s32.393 5.318 45.868-8.33M3.471 397.612S-.248 410.368.298 414.384c.545 4.017 4.574 4.959 9.285 4.847 4.71-.111 6.644-2.219 7.338-5.405.695-3.186 0-13.487 0-13.487M.248 412.438L16.921 413.826M43.773 28.91c1.413-2.58 2.244-4.154 2.244-4.154s-4.6-11.12-3.447-12.483c1.153-1.364 3.818 2.48 3.818 2.48s-2.727-8.84-1.004-9.596c1.723-.756 4.798 7.438 4.798 7.438S49.376.756 51.162.198c1.784-.558 3.929 11.257 3.929 11.257S57.397.942 58.81.843c1.413-.1 0 21.682 0 21.682 2.851 1.4 11.231-2.02 11.157.744-.074 2.764-16.116 9.124-16.116 9.124-.28.364-.525.754-.731 1.165M18.421 120.36L9.248 90.632 42.012 28.55 53.888 34.76 32.938 91.302 38.802 110.182" transform="translate(-1083 -3440) translate(0 3182) translate(320 18) translate(764 241) translate(0 .116)"/>
                            <path stroke="#263238" stroke-linecap="round" stroke-linejoin="round" d="M19.488 85.934s11.752-.1 13.45 5.368c-5.148-.286-10.248 1.125-14.517 4.016M58.314 97.017L58.314 88.401" transform="translate(-1083 -3440) translate(0 3182) translate(320 18) translate(764 241) translate(0 .116)"/>
                            <path fill="#000" fill-rule="nonzero" d="M103.674 144.335l2.938 19.55s2.405-12.757 3.905-12.757 0 14.95 0 14.95 24.644 22.315 35.305 22.439c0 0-5.925 4.165-11.863 1.066-5.938-3.1-31.971-23.554-31.971-23.554l1.686-21.694zM51.781 33.657L29.244 88.401s-7.847-.124-10.823 6.917l12.05-2.157 4.054 18.595 4.277-1.624-5.864-18.88 20.95-56.541-2.107-1.054z" opacity=".2" transform="translate(-1083 -3440) translate(0 3182) translate(320 18) translate(764 241) translate(0 .116)"/>
                        </g>
                        <g>
                            <path fill="#FFF" fill-rule="nonzero" d="M43.773 100.178L34.897 81.223.012 104.269 28.798 155.269 51.248 142.525zM72.52 264.124s5.641 15.657 6.472 23.281c.83 7.624-1.711 39.731-1.166 48.583.546 8.85 5.331 35.268 5.331 35.268S59.69 388.314 52.24 382.822c0 0 16.537-13.388 18.21-18.719l-5.355-36.186-5.318-42.793s-1.351-8.938-3.236-13.537c-1.884-4.6-1.599-14.356-1.599-14.356l17.579 6.893z" transform="translate(-1083 -3440) translate(0 3182) translate(320 18) translate(764 241) translate(318.595 29.868)"/>
                            <path stroke="#263238" stroke-linecap="round" stroke-linejoin="round" d="M72.025 262.736s6.099 16.487 7.525 28.326c1.425 11.839-2.864 38.69-1.45 51.62 1.412 12.93 2.863 20.082 5.367 26.888l-1.24 19.971h-3.21l-1.24-11.33s-5.033-2.095-8.083 5.157c-3.05 7.252-14.318 8.206-19.66 4.004 0 0 0-3.248 4.016-6.112 4.016-2.863 14.504-11.814 16.413-17.157 0 0-5.727-37.19-7.066-49.24-1.34-12.049-3.434-33.954-6.112-41.02-2.678-7.066-2.665-17.17-2.665-17.17M82.24 365.826s-15.732 17.108-28.934 16.996" transform="translate(-1083 -3440) translate(0 3182) translate(320 18) translate(764 241) translate(318.595 29.868)"/>
                            <path fill="#263238" fill-rule="nonzero" d="M52.24 382.822c2.182.242 4.39-.034 6.446-.805 3.558-1.24 16.364-7.438 22.661-15.26l1.934 2.193-1.017 20.133-3.235.458-1.24-11.33s-4.14-1.897-6.806 2.764c-2.665 4.661-4.586 7.86-9.247 8.889-4.662 1.029-11.69-2.48-11.69-2.48s-1.228-1.847 2.194-4.562z" transform="translate(-1083 -3440) translate(0 3182) translate(320 18) translate(764 241) translate(318.595 29.868)"/>
                            <path fill="#FFF" fill-rule="nonzero" d="M83.492 264.657c1.478 5.436 3.274 10.78 5.38 16.004 2.814 6.459 27.124 71.777 27.124 71.777s1.847 35.355 12.198 35.244c10.351-.112-.409-24.707-.409-24.707l-6.297-13.475s-2.405-39.583-5.38-54.136l-12.67-34.128-19.946 3.421z" transform="translate(-1083 -3440) translate(0 3182) translate(320 18) translate(764 241) translate(318.595 29.868)"/>
                            <path stroke="#263238" stroke-linecap="round" stroke-linejoin="round" d="M103.574 262.376s10.401 23.665 12.546 32.988c2.144 9.322 4.301 51.26 5.38 54.136 1.079 2.876 18.285 33.335 7.884 39.434-10.4 6.1-12.855-35.132-12.855-35.132s-24.012-66.695-27.608-73.14c-3.595-6.447-7.524-25.104-7.524-25.104l22.177 6.818z" transform="translate(-1083 -3440) translate(0 3182) translate(320 18) translate(764 241) translate(318.595 29.868)"/>
                            <path stroke="#263238" stroke-linecap="round" stroke-linejoin="round" d="M131.405 373.302s-.72 8.256-3.446 9.421c-2.728 1.165-8.752-8.144-8.752-8.144" transform="translate(-1083 -3440) translate(0 3182) translate(320 18) translate(764 241) translate(318.595 29.868)"/>
                            <path fill="#263238" fill-rule="nonzero" d="M119.231 376.004s3.72 14.083 8.678 13.488c4.959-.595 5.851-8.418 3.508-14.455 0 0-.83 6.199-3.446 7.686-2.64.037-8.74-6.719-8.74-6.719z" transform="translate(-1083 -3440) translate(0 3182) translate(320 18) translate(764 241) translate(318.595 29.868)"/>
                            <path fill="#F7B500" fill-rule="nonzero" d="M75.335 139.277s12.533 17.107 21.223 44.628c8.69 27.52 7.797 80.231 7.797 80.231s-32.343 10.401-63.694-2.814l5.74-118.76s20.17.372 28.934-3.285z" transform="translate(-1083 -3440) translate(0 3182) translate(320 18) translate(764 241) translate(318.595 29.868)"/>
                            <path fill="#FFF" fill-rule="nonzero" d="M59.145 15.21S49.4 24.336 48.26 30.31c-.94 4.182-2.45 8.216-4.487 11.988 1.048 1.586 2.584 2.787 4.376 3.421 0 0 .632 12.236 4.19 13.178l8.504-2.232.905 5.244 12.198-4.636v-7.066l9.298-6.075-3.31-15.88-15.124-7.066-5.665-5.975z" transform="translate(-1083 -3440) translate(0 3182) translate(320 18) translate(764 241) translate(318.595 29.868)"/>
                            <path fill="#FFF" fill-rule="nonzero" d="M46.339 141.607L45.26 124.45s-7.934-14.876-5.417-20.28c2.777-5.939 19.463-27.93 19.463-27.93l-1.637-12 23.38-10.017 1.116 10.017-2.826 2.095 3.136 6.719s.199-1.996 5.628 8.132c5.43 10.128 25.885 46.165 27.496 53.083 1.612 6.917-31.81 31.289-43.09 37.04 0 0-1.302-2.788-14.703 7.439-3.41-.595-8.12-3.657-9.124-5.554-1.004-1.896 3.855-6.409 3.855-6.409s2.926-5.529 8.095-1.103h5.504l31.5-29.318-15.967-23.368-6.334 26.244s-20.492 6.223-28.996 2.367z" transform="translate(-1083 -3440) translate(0 3182) translate(320 18) translate(764 241) translate(318.595 29.868)"/>
                            <path stroke="#263238" stroke-linecap="round" stroke-linejoin="round" d="M57.669 64.24L59.343 76.5 82.165 64.24 81.05 54.223zM59.343 76.5s-20.764 25.4-20.207 30.41c.558 5.007 6.124 17.54 6.124 17.54l1.14 18.1s16.798.458 28.935-3.273l6.334-26.244" transform="translate(-1083 -3440) translate(0 3182) translate(320 18) translate(764 241) translate(318.595 29.868)"/>
                            <path stroke="#263238" stroke-linecap="round" stroke-linejoin="round" d="M97.636 136.364l-32.17-48.496s-3.16-11.157 4.451-15.137c7.612-3.979 14.232 1.067 16.6 3.72 2.367 2.652 27.904 51.855 29.095 57.768 1.19 5.913-25.786 29.566-41.393 35.95 0 0-7.103 4.265-7.103-4.487l30.52-29.318zM82.165 73.054L79.153 65.864" transform="translate(-1083 -3440) translate(0 3182) translate(320 18) translate(764 241) translate(318.595 29.868)"/>
                            <path stroke="#263238" stroke-linecap="round" stroke-linejoin="round" d="M67.116 165.731h-6.471s-5.046-4.512-7.438 0c-2.393 4.513-5.418 5.405-4.513 7.513.905 2.107 6.087 6.31 9.124 5.554 3.037-.757 11.603-7.724 11.603-7.724M56.814 18.421s-7.6 6.645-8.442 10.327c-.843 3.682-.484 9.917-4.6 13.55 0 0 .211 2.975 4.377 3.421 0 0 2.132 11.74 4.19 13.178 2.058 1.438 14.653-5.058 19.587-7.736 1.258-.863 2.175-2.14 2.59-3.607M50.913 49.302c2.33-.393 4.431-1.634 5.901-3.484M50.913 32.318s3-1.748 4.649 1.153" transform="translate(-1083 -3440) translate(0 3182) translate(320 18) translate(764 241) translate(318.595 29.868)"/>
                            <path fill="#263238" fill-rule="nonzero" d="M52.971 38.554c0 1.004-.285 1.822-.744 1.847-.458.025-.88-.769-.93-1.76-.05-.992.286-1.835.744-1.86.459-.025.88.769.93 1.773z" transform="translate(-1083 -3440) translate(0 3182) translate(320 18) translate(764 241) translate(318.595 29.868)"/>
                            <path stroke="#263238" stroke-linecap="round" stroke-linejoin="round" d="M60.843 56.665L61.847 62.455" transform="translate(-1083 -3440) translate(0 3182) translate(320 18) translate(764 241) translate(318.595 29.868)"/>
                            <path fill="#263238" fill-rule="nonzero" d="M70.587 37.785s1.86-3.607 3.93-1.5c2.07 2.108 6 11.851-4.6 9.533 0 0-.706 5.95 4.6 7.438 5.305 1.488 15.384-6.719 15.719-20.715.334-13.996-13.178-23.442-20.319-20.74 0 0-10.35-16.227-20.615-9.31-10.265 6.918-3.347 17.567-5.53 19.972-2.181 2.405-6.842.149-6.991 6.607-.149 6.459 10.649 5.802 10.649 5.802l1.301-7.116 8.938-9.335s-2.107 6.744 1.476 12.608c3.235 5.28 11.442 6.756 11.442 6.756z" transform="translate(-1083 -3440) translate(0 3182) translate(320 18) translate(764 241) translate(318.595 29.868)"/>
                            <path fill="#263238" fill-rule="nonzero" d="M90.236 32.541s4.958 1.116 4.413 7.823c-.546 6.706-11.74 23.194-10.897 32.69l28.897 53.851s13.004-2.48 12.396-15.868c-.607-13.388-16.475-24.67-13.413-34.537 3.062-9.868 15.087-34.996-1.946-49.4-17.033-14.406-43.587 7.673-43.587 7.673l13.004-4.19 11.133 1.958z" transform="translate(-1083 -3440) translate(0 3182) translate(320 18) translate(764 241) translate(318.595 29.868)"/>
                            <path stroke="#263238" stroke-linecap="round" stroke-linejoin="round" d="M42.657 99.074L34.897 81.223 0.012 104.269 28.798 155.269 46.252 145.661" transform="translate(-1083 -3440) translate(0 3182) translate(320 18) translate(764 241) translate(318.595 29.868)"/>
                            <path fill="#FFF" fill-rule="nonzero" stroke="#263238" stroke-linecap="round" stroke-linejoin="round" d="M10.872 129.496s-1.884-3.893.632-6.037c2.517-2.145 11.157-8.504 11.157-6.942.116.766-.1 1.546-.595 2.144-2.48 3.322-8.417 8.678-8.033 9.112 0 0 10.835-7.19 11.876-6.509.26.174.112 1.104-.793 2.009-2.97 2.642-6.104 5.094-9.385 7.339 0 0 11.43-4.426 12.905-3.72.422.199.335.844-.991 1.65-3.319 1.803-6.733 3.425-10.228 4.859l2.864 4.785s-5.405.942-9.41-8.69z" transform="translate(-1083 -3440) translate(0 3182) translate(320 18) translate(764 241) translate(318.595 29.868)"/>
                            <path stroke="#263238" stroke-linejoin="round" d="M73.153 49.302L73.946 57.273" transform="translate(-1083 -3440) translate(0 3182) translate(320 18) translate(764 241) translate(318.595 29.868)"/>
                        </g>
                    </g>
                </g>
            </g>
        </g>
    </g>
</svg>
