<svg xmlns="http://www.w3.org/2000/svg" width="188.7mm" height="125.9mm" viewBox="0 0 188.7 125.9">
    <g transform="translate(-9.7,-78.5)">
        <path style="fill:#ff6200" d="m 10.5,158.6 c -0.9,0.7 -1,1.8 -0.5,3.4 0.5,1.4 1.5,3.2 3.2,5.3 6.8,8.4 14.8,15.3 24.2,20.9 9.4,5.5 19.4,9.6 30.1,12.3 10.7,2.7 21.7,4 32.9,4 14.3,0 28,-2.1 40.9,-6.3 13,-4.1 23.8,-10 32.5,-17.5 3,-2.7 4.6,-4.8 4.6,-6.4 0,-0.6 -0.3,-1.2 -0.8,-1.8 -0.7,-0.7 -1.5,-0.9 -2.5,-0.7 -1,0.2 -2.3,0.8 -4,1.7 -8.3,4.4 -18.5,7.8 -30.4,10.4 -11.9,2.6 -24.3,4 -37.3,4 -16.1,0 -31.6,-2.2 -46.5,-6.5 -15,-4.4 -28.2,-11.2 -39.8,-20.5 -1.7,-1.3 -3,-2.2 -4.1,-2.5 -1,-0.4 -1.8,-0.3 -2.5,0.2 z" />
        <path style="fill:#ff6200" d="m 162,162 c -1,0.9 -1.2,1.9 -0.8,2.9 0.3,0.7 0.9,1.1 1.8,1.2 0.9,0.1 2.2,0 3.9,-0.3 2.7,-0.6 5.6,-1 8.5,-1.2 3,-0.2 5.5,-0.1 7.7,0.1 2.2,0.3 3.5,0.9 4.1,1.6 0.8,1.2 0.5,3.8 -0.9,7.8 -1.4,4 -3.2,7.8 -5.6,11.5 -0.9,1.5 -1.5,2.7 -1.6,3.5 -0.2,0.9 0,1.6 0.7,2.2 0.4,0.4 0.9,0.6 1.4,0.6 1.3,0 3.2,-1.2 5.7,-3.5 4.5,-3.9 7.7,-8.5 9.5,-13.9 1,-2.8 1.6,-5.7 1.8,-8.7 0.2,-3 -0.1,-5.2 -1,-6.5 -0.9,-1.3 -2.8,-2.3 -5.7,-3.1 -2.9,-0.8 -5.8,-1.2 -8.8,-1.2 -5.8,0 -11.3,1.4 -16.4,4.1 -1.9,1 -3.3,2 -4.3,2.9 z" />
        <path style="fill:#161d26" d="m 38,137.6 c -9.6,0 -16.2,-6.9 -16.2,-17 0,-12.3 9.6,-20 24.9,-20 2.7,0 4.3,0.1 5.6,0.4 v -1.3 c 0,-7.1 -2.5,-10.4 -7.6,-10.4 -4.1,0 -7,2.4 -8,6.5 -0.3,1.3 -1.1,1.9 -2.1,1.7 l -9.4,-1.7 c -1.3,-0.2 -1.8,-1.1 -1.5,-2.4 2.4,-9.5 10.4,-14.9 22.1,-14.9 13.8,0 21.1,7.6 21.1,21.9 v 34.2 c 0,1.1 -0.8,1.8 -1.7,1.8 H 56.2 c -1.1,0 -1.7,-0.6 -1.9,-1.8 l -1.4,-6.3 h -0.6 c -2.6,6 -7.6,9.3 -14.2,9.3 z m 5.6,-10.8 c 5.7,0 8.7,-5.1 8.7,-14.7 v -3.4 c -1.1,-0.2 -2.3,-0.3 -3.5,-0.3 -7.4,0 -12,4 -12,10.5 0,4.8 2.7,7.9 6.9,7.9 z" />
        <path style="fill:#161d26" d="m 129.7,79.8 c -0.8,0 -1.4,0.6 -1.5,1.3 l -6.3,38.3 h -0.6 l -7.1,-38.3 c -0.1,-0.6 -0.8,-1.3 -1.5,-1.3 h -10.9 c -0.8,0 -1.4,0.6 -1.5,1.3 l -7.3,38.3 h -0.6 l -6.4,-38.3 c -0.1,-0.6 -0.8,-1.3 -1.5,-1.3 h -11.8 c -1.2,0 -1.9,0.9 -1.6,2 l 9.4,52 c 0.2,0.8 0.8,1.3 1.6,1.3 h 13.3 c 0.8,0 1.4,-0.6 1.5,-1.3 l 6.8,-31.5 h 0.5 l 6.8,31.5 c 0.1,0.7 0.8,1.3 1.5,1.3 h 13.3 c 0.9,0 1.4,-0.5 1.6,-1.3 l 12.7,-53.3 c 0.3,-1.2 -0.4,-2 -1.6,-2 z" />
        <path style="fill:#161d26" d="m 145,119.3 c -0.1,-1 0.5,-1.7 1.5,-1.9 l 9.5,-1.8 c 1.1,-0.2 1.9,0.4 2,1.5 0.9,6.1 3.9,9.2 8.9,9.2 4.5,0 7.4,-2.3 7.4,-5.9 0,-3.2 -2,-5.5 -6.3,-6.4 l -6.8,-1.6 c -10.2,-2.5 -15.3,-7.9 -15.3,-16.5 0,-10.3 8.4,-17.3 20.5,-17.3 11,0 18.2,5.1 20.8,15 0.2,0.9 -0.4,1.7 -1.2,1.8 l -10.5,1.8 c -0.6,0.1 -1.4,-0.3 -1.5,-1.1 -0.9,-4.2 -3.4,-6.2 -7.6,-6.2 -3.8,0 -6.4,2 -6.4,5 0,2.7 2.1,4.7 6.3,5.7 l 7.1,1.7 c 10.2,2.5 15,7.8 15,16.7 0,10.7 -9,18.5 -21.3,18.5 -12.4,0 -20.9,-7.2 -22.1,-18.3 z" />
    </g>
</svg>