<svg xmlns="http://www.w3.org/2000/svg" width="512" height="512" viewBox="0 0 512 512">
    <style>.st0{fill:#f8bb16}.st1{fill:#ea4334}.st2{fill:#0074bc}.st3{fill:#e2e3e4}</style>
    <g>
        <path class="st0" d="M322.4 140.9l-44.1-76.8H162.6c-10.3 0-19.9 5.5-24.9 14.5L44.1 241.7c-5.1 8.9-5.1 19.7 0 28.7l35.6 62.1 44-76.4 66.2-115.2h132.5z"/>
        <path class="st1" d="M468.2 241.7L374.6 78.6c-5.2-8.9-14.7-14.5-24.9-14.5h-71.4l44.1 76.8 66.2 115.2-66.2 115.2h88l57.8-100.9c5-8.9 5-19.8 0-28.7"/>
        <path class="st2" d="M410.3 371.2H189.7L123.5 256l-44 76.4 58 101c5.2 8.9 14.7 14.5 24.9 14.5h187.1c10.3 0 19.9-5.5 24.9-14.5l35.9-62.2z"/>
        <path class="st3" d="M322.2 371.2H189.6L123.5 256l66.2-115.2h132.5L388.6 256l-66.4 115.2z"/>
        <circle cx="256" cy="256" r="57.6" class="st3"/>
    </g>
</svg>