<svg xmlns="http://www.w3.org/2000/svg" width="504" height="443" viewBox="0 0 504 443">
    <defs>
        <linearGradient id="a" x1=".001%" y1="49.995%" y2="49.995%">
            <stop offset="0%" stop-color="#D7E7FF"/>
            <stop offset="100%" stop-color="#D9E7FF"/>
        </linearGradient>
        <linearGradient id="b" x1=".001%" y1="50.004%" y2="50.004%">
            <stop offset="0%" stop-color="#D7E7FF"/>
            <stop offset="100%" stop-color="#D9E7FF"/>
        </linearGradient>
        <linearGradient id="c" x1=".001%" y1="49.999%" y2="49.999%">
            <stop offset="0%" stop-color="#D7E7FF"/>
            <stop offset="100%" stop-color="#D9E7FF"/>
        </linearGradient>
    </defs>
    <g fill="none" fill-rule="evenodd">
        <g fill-rule="nonzero">
            <path fill="#F9D94E" d="M476.4 3.296H171.172c-6.496 0-11.764 5.267-11.764 11.763v13.11h328.756v-13.11c0-6.496-5.266-11.763-11.764-11.763z"/>
            <path fill="#6D7278" d="M476.401 229.65H171.172c-8.017 0-14.54-6.523-14.54-14.54V15.06c0-8.018 6.523-14.54 14.54-14.54h305.23c8.017 0 14.539 6.522 14.539 14.54v200.05c0 8.017-6.523 14.54-14.54 14.54zM171.172 6.073c-4.955 0-8.986 4.032-8.986 8.987v200.05c0 4.955 4.031 8.986 8.986 8.986h305.23c4.954 0 8.985-4.032 8.985-8.987V15.06c0-4.956-4.032-8.987-8.985-8.987h-305.23z"/>
            <g fill="#000">
                <path d="M176.41 24.472a7.039 7.039 0 0 1-7.03-7.03 7.039 7.039 0 0 1 7.03-7.032 7.038 7.038 0 0 1 7.031 7.031 7.038 7.038 0 0 1-7.03 7.031zm0-12.866a5.842 5.842 0 0 0-5.835 5.835 5.842 5.842 0 0 0 5.835 5.835 5.842 5.842 0 0 0 5.835-5.835 5.841 5.841 0 0 0-5.835-5.835zM195.76 24.472a7.039 7.039 0 0 1-7.032-7.03 7.039 7.039 0 0 1 7.032-7.032c3.876 0 7.031 3.154 7.031 7.031s-3.155 7.031-7.031 7.031zm0-12.866a5.841 5.841 0 0 0-5.835 5.835 5.842 5.842 0 0 0 5.835 5.835 5.842 5.842 0 0 0 5.834-5.835 5.842 5.842 0 0 0-5.834-5.835z"/>
                <g>
                    <path d="M195.605 24.472a7.039 7.039 0 0 1-7.032-7.03 7.039 7.039 0 0 1 7.032-7.032 7.039 7.039 0 0 1 7.03 7.031 7.039 7.039 0 0 1-7.03 7.031zm0-12.866a5.84 5.84 0 0 0-5.834 5.835 5.841 5.841 0 0 0 5.834 5.835 5.842 5.842 0 0 0 5.834-5.835 5.842 5.842 0 0 0-5.834-5.835zM214.954 24.472a7.039 7.039 0 0 1-7.032-7.03 7.039 7.039 0 0 1 7.032-7.032 7.038 7.038 0 0 1 7.03 7.031 7.038 7.038 0 0 1-7.03 7.031zm0-12.866a5.841 5.841 0 0 0-5.835 5.835 5.842 5.842 0 0 0 5.835 5.835 5.84 5.84 0 0 0 5.833-5.835 5.84 5.84 0 0 0-5.833-5.835z"/>
                </g>
            </g>
            <g>
                <path fill="#666" d="M381.022 111.293H266.55c-4.784 0-8.676-3.892-8.676-8.677v-31.43c0-4.784 3.892-8.676 8.676-8.676h114.471c4.784 0 8.676 3.892 8.676 8.677v31.43c0 4.784-3.891 8.676-8.675 8.676zM266.55 67.369a3.822 3.822 0 0 0-3.817 3.818v31.43a3.822 3.822 0 0 0 3.817 3.817h114.471a3.822 3.822 0 0 0 3.817-3.818v-31.43a3.822 3.822 0 0 0-3.817-3.817h-114.47z"/>
                <path fill="#F13624" d="M381.022 165.25H266.55c-4.784 0-8.676-3.893-8.676-8.678v-31.428c0-4.785 3.892-8.677 8.676-8.677h114.471c4.784 0 8.676 3.892 8.676 8.677v31.429c0 4.784-3.891 8.676-8.675 8.676zM266.55 121.325a3.822 3.822 0 0 0-3.817 3.818v31.429a3.822 3.822 0 0 0 3.817 3.817h114.471a3.822 3.822 0 0 0 3.817-3.817v-31.43a3.822 3.822 0 0 0-3.817-3.817h-114.47z"/>
                <path fill="#666" d="M381.022 219.116H266.55c-4.784 0-8.676-3.892-8.676-8.676v-31.43c0-4.784 3.892-8.677 8.676-8.677h114.471c4.784 0 8.676 3.893 8.676 8.677v31.43c0 4.784-3.891 8.676-8.675 8.676zM266.55 175.194a3.822 3.822 0 0 0-3.817 3.817v31.43a3.822 3.822 0 0 0 3.817 3.817h114.471a3.822 3.822 0 0 0 3.817-3.818v-31.429a3.822 3.822 0 0 0-3.817-3.817h-114.47z"/>
                <path fill="#D9E7FF" d="M387.27 49.336a2.297 2.297 0 0 1-2.297 2.297h-17.209a2.297 2.297 0 0 1-2.296-2.297V36.502a2.296 2.296 0 0 1 2.296-2.297h17.209a2.297 2.297 0 0 1 2.297 2.297v12.834zM362.614 38.237a2.876 2.876 0 0 1-2.876 2.876h-57.483a2.875 2.875 0 1 1 0-5.75l57.483-.001a2.876 2.876 0 0 1 2.876 2.875zM362.614 47.834a2.876 2.876 0 0 1-2.876 2.875h-26.916a2.875 2.875 0 1 1 0-5.75h26.916a2.876 2.876 0 0 1 2.876 2.875z"/>
                <g opacity=".7">
                    <path fill="url(#a)" d="M63.665 3.992a3.453 3.453 0 0 1-3.453 3.453H3.884a3.452 3.452 0 1 1 0-6.905h56.328a3.453 3.453 0 0 1 3.453 3.452z" transform="translate(176.837 179.104)"/>
                    <path fill="url(#b)" d="M63.665 3.82a3.453 3.453 0 0 1-3.453 3.452H3.884a3.452 3.452 0 1 1 0-6.905h56.328a3.453 3.453 0 0 1 3.453 3.453z" transform="translate(176.837 190.905)"/>
                    <path fill="url(#c)" d="M63.665 3.647A3.453 3.453 0 0 1 60.212 7.1H3.884a3.452 3.452 0 1 1 0-6.906h56.328a3.453 3.453 0 0 1 3.453 3.453z" transform="translate(176.837 202.707)"/>
                </g>
                <g fill="#D9E7FF">
                    <path d="M472.916 44.565a3.452 3.452 0 0 1-3.453 3.452h-56.328a3.453 3.453 0 0 1 0-6.905h56.328a3.453 3.453 0 0 1 3.453 3.453zM472.916 56.194a3.453 3.453 0 0 1-3.453 3.452h-56.328a3.452 3.452 0 1 1 0-6.905h56.328a3.453 3.453 0 0 1 3.453 3.453zM472.916 67.823a3.453 3.453 0 0 1-3.453 3.453h-56.328a3.452 3.452 0 1 1 0-6.905h56.328a3.452 3.452 0 0 1 3.453 3.452z"/>
                </g>
                <g fill="#D9E7FF">
                    <path d="M472.916 88.375a3.452 3.452 0 0 1-3.453 3.452h-56.328a3.453 3.453 0 0 1 0-6.905h56.328a3.453 3.453 0 0 1 3.453 3.453zM472.916 100.003a3.453 3.453 0 0 1-3.453 3.453h-56.328a3.452 3.452 0 1 1 0-6.905h56.328a3.452 3.452 0 0 1 3.453 3.452zM472.916 111.632a3.452 3.452 0 0 1-3.453 3.453h-56.328a3.453 3.453 0 0 1 0-6.905h56.328a3.453 3.453 0 0 1 3.453 3.452z"/>
                </g>
            </g>
        </g>
        <g fill-rule="nonzero">
            <path fill="#666" d="M392.166 386.07h-38.39a3.438 3.438 0 0 1-3.434-3.434v-37.743a3.438 3.438 0 0 1 3.435-3.434h38.389a3.438 3.438 0 0 1 3.434 3.434v37.743a3.439 3.439 0 0 1-3.434 3.434zm-38.39-42.53c-.745 0-1.351.607-1.351 1.352v37.743c0 .746.606 1.352 1.352 1.352h38.389c.745 0 1.352-.606 1.352-1.352v-37.743c0-.745-.607-1.351-1.352-1.351h-38.39z"/>
            <path fill="#F13624" d="M441.535 386.07h-38.389a3.438 3.438 0 0 1-3.434-3.434v-37.743a3.438 3.438 0 0 1 3.434-3.434h38.389a3.438 3.438 0 0 1 3.434 3.434v37.743a3.438 3.438 0 0 1-3.434 3.434zm-38.389-42.53c-.745 0-1.351.607-1.351 1.352v37.743c0 .746.606 1.352 1.351 1.352h38.389c.745 0 1.351-.606 1.351-1.352v-37.743c0-.745-.606-1.351-1.351-1.351h-38.389z"/>
            <path fill="#666" d="M490.213 386.07h-38.389a3.438 3.438 0 0 1-3.434-3.434v-37.743a3.438 3.438 0 0 1 3.434-3.434h38.389a3.439 3.439 0 0 1 3.435 3.434v37.743a3.439 3.439 0 0 1-3.435 3.434zm-38.389-42.53c-.745 0-1.351.607-1.351 1.352v37.743c0 .746.606 1.352 1.351 1.352h38.389c.745 0 1.352-.606 1.352-1.352v-37.743c0-.745-.607-1.351-1.352-1.351h-38.389z"/>
            <path fill="#F13624" d="M456.61 331.088c-5.515 0-10.003-4.488-10.003-10.003 0-5.516 4.488-10.004 10.004-10.004 5.515 0 10.003 4.488 10.003 10.004 0 5.515-4.488 10.003-10.003 10.003zm0-17.924c-4.368 0-7.92 3.553-7.92 7.92 0 4.368 3.552 7.921 7.92 7.921s7.922-3.553 7.922-7.92c0-4.368-3.554-7.921-7.921-7.921zM438.508 322.126H380.81a3.438 3.438 0 0 1-3.434-3.435v-3.428a3.437 3.437 0 0 1 3.434-3.434h57.698a3.438 3.438 0 0 1 3.434 3.434v3.428a3.439 3.439 0 0 1-3.434 3.435zm-57.698-8.215c-.745 0-1.351.606-1.351 1.351v3.428c0 .746.606 1.353 1.35 1.353h57.7c.743 0 1.35-.607 1.35-1.353v-3.428c0-.745-.607-1.351-1.35-1.351h-57.7z"/>
            <path fill="#666" d="M438.508 331.088h-35.677a3.44 3.44 0 0 1-3.434-3.436v-.44a3.438 3.438 0 0 1 3.434-3.435h35.677a3.438 3.438 0 0 1 3.434 3.435v.44a3.439 3.439 0 0 1-3.434 3.436zm-35.676-5.228c-.746 0-1.352.606-1.352 1.352v.44c0 .746.606 1.353 1.352 1.353h35.677c.744 0 1.351-.607 1.351-1.353v-.44c0-.746-.607-1.352-1.351-1.352h-35.677z"/>
            <g>
                <path fill="#F9D94E" d="M496.041 287.266H345.865a5.789 5.789 0 0 0-5.788 5.788v6.45H501.83v-6.45a5.788 5.788 0 0 0-5.789-5.788z"/>
                <path fill="#6D7278" d="M496.042 398.636H345.865c-3.945 0-7.155-3.21-7.155-7.155v-98.427c0-3.945 3.21-7.154 7.155-7.154h150.177c3.945 0 7.154 3.209 7.154 7.154v98.427c0 3.946-3.21 7.155-7.154 7.155zM345.865 288.633a4.426 4.426 0 0 0-4.422 4.421v98.427a4.426 4.426 0 0 0 4.422 4.422h150.177a4.426 4.426 0 0 0 4.421-4.422v-98.427a4.426 4.426 0 0 0-4.42-4.421H345.864z"/>
                <g fill="#FFF">
                    <path d="M348.442 297.685a3.463 3.463 0 0 1-3.46-3.46 3.463 3.463 0 0 1 3.46-3.458 3.463 3.463 0 0 1 3.46 3.459 3.463 3.463 0 0 1-3.46 3.46zm0-6.33a2.874 2.874 0 0 0-2.87 2.87 2.873 2.873 0 0 0 2.87 2.871 2.874 2.874 0 0 0 2.87-2.87 2.874 2.874 0 0 0-2.87-2.871zM357.962 297.685a3.463 3.463 0 0 1-3.46-3.46 3.463 3.463 0 0 1 3.46-3.458 3.463 3.463 0 0 1 3.46 3.459 3.463 3.463 0 0 1-3.46 3.46zm0-6.33a2.874 2.874 0 0 0-2.87 2.87 2.873 2.873 0 0 0 2.87 2.871 2.873 2.873 0 0 0 2.87-2.87 2.874 2.874 0 0 0-2.87-2.871z"/>
                    <g>
                        <path d="M357.886 297.685a3.463 3.463 0 0 1-3.459-3.46 3.463 3.463 0 0 1 3.46-3.458 3.463 3.463 0 0 1 3.46 3.459 3.463 3.463 0 0 1-3.46 3.46zm0-6.33a2.874 2.874 0 0 0-2.87 2.87 2.873 2.873 0 0 0 2.87 2.871 2.874 2.874 0 0 0 2.87-2.87 2.874 2.874 0 0 0-2.87-2.871zM367.406 297.685a3.463 3.463 0 0 1-3.46-3.46 3.463 3.463 0 0 1 3.46-3.458 3.463 3.463 0 0 1 3.46 3.459 3.463 3.463 0 0 1-3.46 3.46zm0-6.33a2.874 2.874 0 0 0-2.87 2.87 2.873 2.873 0 0 0 2.87 2.871 2.874 2.874 0 0 0 2.871-2.87 2.874 2.874 0 0 0-2.871-2.871z"/>
                    </g>
                </g>
            </g>
        </g>
        <g fill="#000">
            <path d="M115.182 159.167v-13.365a1.167 1.167 0 1 1 2.336 0v13.365a1.167 1.167 0 1 1-2.336 0zm0 24.823v-13.367a1.167 1.167 0 1 1 2.336 0v13.367a1.168 1.168 0 1 1-2.336 0zM115.182 209.167v-13.365a1.167 1.167 0 1 1 2.336 0v13.365a1.167 1.167 0 1 1-2.336 0zm0 24.823v-13.367a1.167 1.167 0 1 1 2.336 0v13.367a1.168 1.168 0 1 1-2.336 0zM115.182 259.167v-13.365a1.167 1.167 0 1 1 2.336 0v13.365a1.167 1.167 0 1 1-2.336 0zm0 24.823v-13.367a1.167 1.167 0 1 1 2.336 0v13.367a1.168 1.168 0 1 1-2.336 0zM115.182 134.345v-8.177c0-.646.522-1.168 1.168-1.168h8.177a1.167 1.167 0 1 1 0 2.336h-7.009v7.009a1.168 1.168 0 1 1-2.336 0M145.145 126.168c0-.646.523-1.168 1.169-1.168h8.177a1.167 1.167 0 1 1 0 2.336h-8.177a1.168 1.168 0 0 1-1.17-1.168"/>
        </g>
        <path fill="#000" d="M238.051 356.97h-13.365a1.167 1.167 0 1 1 0-2.336h13.365a1.167 1.167 0 1 1 0 2.336zm24.823 0h-13.366a1.167 1.167 0 1 1 0-2.336h13.366a1.168 1.168 0 1 1 0 2.336zM288.051 356.97h-13.365a1.167 1.167 0 1 1 0-2.336h13.365a1.167 1.167 0 1 1 0 2.336zm24.823 0h-13.366a1.167 1.167 0 1 1 0-2.336h13.366a1.168 1.168 0 1 1 0 2.336z"/>
        <path fill="#000" d="M313.051 356.97h-13.365a1.167 1.167 0 1 1 0-2.336h13.365a1.167 1.167 0 1 1 0 2.336zm24.823 0h-13.366a1.167 1.167 0 1 1 0-2.336h13.366a1.168 1.168 0 1 1 0 2.336z"/>
        <g fill-rule="nonzero">
            <path fill="#F9D94E" d="M214.303 291.413H10.343a7.861 7.861 0 0 0-7.861 7.86v8.76h219.682v-8.76c0-4.34-3.52-7.86-7.861-7.86z"/>
            <path fill="#6D7278" d="M214.303 442.667H10.343c-5.358 0-9.717-4.359-9.717-9.716V299.273c0-5.358 4.36-9.716 9.716-9.716h203.96c5.358 0 9.717 4.358 9.717 9.716V432.95c0 5.358-4.36 9.717-9.716 9.717zM10.343 293.268a6.012 6.012 0 0 0-6.006 6.005V432.95a6.011 6.011 0 0 0 6.005 6.005h203.96a6.012 6.012 0 0 0 6.006-6.005V299.273a6.012 6.012 0 0 0-6.005-6.005H10.343z"/>
            <g fill="#000">
                <path d="M13.842 305.562a4.704 4.704 0 0 1-4.698-4.698 4.704 4.704 0 0 1 4.698-4.698 4.704 4.704 0 0 1 4.699 4.698 4.703 4.703 0 0 1-4.699 4.698zm0-8.597a3.904 3.904 0 0 0-3.898 3.9c0 2.148 1.75 3.898 3.898 3.898 2.15 0 3.899-1.75 3.899-3.899a3.903 3.903 0 0 0-3.899-3.899zM26.772 305.562a4.704 4.704 0 0 1-4.698-4.698 4.704 4.704 0 0 1 4.698-4.698 4.704 4.704 0 0 1 4.698 4.698 4.704 4.704 0 0 1-4.698 4.698zm0-8.597c-2.15 0-3.9 1.75-3.9 3.9 0 2.148 1.75 3.898 3.9 3.898s3.899-1.75 3.899-3.899a3.903 3.903 0 0 0-3.9-3.899z"/>
                <g>
                    <path d="M26.67 305.562a4.704 4.704 0 0 1-4.7-4.698 4.704 4.704 0 0 1 4.7-4.698 4.704 4.704 0 0 1 4.697 4.698 4.704 4.704 0 0 1-4.698 4.698zm0-8.597c-2.15 0-3.9 1.75-3.9 3.9 0 2.148 1.75 3.898 3.9 3.898s3.898-1.75 3.898-3.899c0-2.15-1.75-3.899-3.899-3.899zM39.599 305.562a4.703 4.703 0 0 1-4.699-4.698 4.703 4.703 0 0 1 4.699-4.698 4.704 4.704 0 0 1 4.698 4.698 4.704 4.704 0 0 1-4.698 4.698zm0-8.597c-2.15 0-3.9 1.75-3.9 3.9 0 2.148 1.75 3.898 3.9 3.898 2.149 0 3.898-1.75 3.898-3.899 0-2.15-1.75-3.899-3.898-3.899z"/>
                </g>
            </g>
            <g opacity=".7">
                <path fill="#F13624" d="M60.752 381.468H21.906a5.87 5.87 0 0 1-5.864-5.864v-53.885a5.871 5.871 0 0 1 5.864-5.865h38.846a5.87 5.87 0 0 1 5.864 5.865v53.885a5.87 5.87 0 0 1-5.864 5.864zm-38.846-62.837a3.09 3.09 0 0 0-3.088 3.088v53.885a3.09 3.09 0 0 0 3.088 3.088h38.846a3.09 3.09 0 0 0 3.087-3.088v-53.885a3.09 3.09 0 0 0-3.087-3.088H21.906z"/>
                <path fill="#444" d="M196.837 381.468H79.003a5.871 5.871 0 0 1-5.865-5.864v-53.885a5.871 5.871 0 0 1 5.865-5.865h117.834a5.87 5.87 0 0 1 5.864 5.865v53.885a5.87 5.87 0 0 1-5.864 5.864zM79.004 318.631a3.091 3.091 0 0 0-3.088 3.088v53.885a3.091 3.091 0 0 0 3.088 3.088h117.833a3.09 3.09 0 0 0 3.087-3.088v-53.885a3.09 3.09 0 0 0-3.087-3.088H79.004z"/>
                <path fill="#F13624" d="M197.425 406.842H79.004a5.87 5.87 0 0 1-5.865-5.864v-10.163a5.87 5.87 0 0 1 5.865-5.864h118.421a5.87 5.87 0 0 1 5.864 5.864v10.163a5.87 5.87 0 0 1-5.864 5.864zM79.004 387.727a3.09 3.09 0 0 0-3.088 3.088v10.163a3.091 3.091 0 0 0 3.088 3.087h118.421a3.09 3.09 0 0 0 3.087-3.087v-10.163a3.09 3.09 0 0 0-3.087-3.088H79.004z"/>
                <path fill="#444" d="M197.425 434.16H79.004a5.87 5.87 0 0 1-5.865-5.865v-10.163a5.871 5.871 0 0 1 5.865-5.864h118.421a5.87 5.87 0 0 1 5.864 5.864v10.163a5.87 5.87 0 0 1-5.864 5.864zM79.004 415.044a3.09 3.09 0 0 0-3.088 3.087v10.163a3.091 3.091 0 0 0 3.088 3.087h118.421a3.09 3.09 0 0 0 3.087-3.087v-10.163a3.09 3.09 0 0 0-3.087-3.087H79.004z"/>
            </g>
        </g>
    </g>
</svg>
